<svg xmlns="http://www.w3.org/2000/svg" width="43.714" height="43.714"><path data-name="010-linkedin" d="M21.857 0a21.857 21.857 0 1021.857 21.857A21.86 21.86 0 0021.857 0zm-6.351 33.042h-5.323V17.027h5.323zm-2.661-18.2h-.035a2.774 2.774 0 11.07-5.534 2.775 2.775 0 11-.035 5.534zm21.855 18.2h-5.322v-8.568c0-2.153-.771-3.622-2.7-3.622A2.914 2.914 0 0023.95 22.8a3.645 3.645 0 00-.175 1.3v8.943h-5.323s.07-14.513 0-16.015h5.323v2.268a5.285 5.285 0 014.8-2.643c3.5 0 6.128 2.289 6.128 7.208zm0 0" fill="#581dc9"/></svg>