<svg xmlns="http://www.w3.org/2000/svg" width="43.714" height="43.714"><path data-name="013-twitter-1" d="M21.857 0a21.857 21.857 0 1021.857 21.857A21.86 21.86 0 0021.857 0zm9.98 17.042q.015.323.014.648a14.177 14.177 0 01-14.274 14.274 14.2 14.2 0 01-7.69-2.254 10.2 10.2 0 001.2.069 10.066 10.066 0 006.231-2.147 5.022 5.022 0 01-4.687-3.485 5 5 0 002.266-.086 5.018 5.018 0 01-4.025-4.918v-.064a4.982 4.982 0 002.272.627 5.021 5.021 0 01-1.553-6.7 14.243 14.243 0 0010.339 5.246 5.02 5.02 0 018.549-4.575 10.062 10.062 0 003.186-1.218 5.036 5.036 0 01-2.206 2.775 10.006 10.006 0 002.881-.79 10.2 10.2 0 01-2.503 2.598zm0 0" fill="#581dc9"/></svg>