<svg xmlns="http://www.w3.org/2000/svg" width="50" height="52.25"><g data-name="Group 3859"><g data-name="Group 3857"><path data-name="Path 2659" d="M25 52.25a25 25 0 01-9.853-47.976.743.743 0 01.586 1.365 23.515 23.515 0 1018.544.005.743.743 0 11.586-1.365A25 25 0 0125 52.25z"/></g><g data-name="Group 3858"><path data-name="Path 2660" d="M33.222 37.954h3.9a1.094 1.094 0 001.093-1.043c.179-3.793-1.483-7.6-4.447-11.032a1.094 1.094 0 00-1.367-.238 1.122 1.122 0 00-.227.17 5.986 5.986 0 00-.717-1.262 8.709 8.709 0 00-12.912 0 6.015 6.015 0 00-.717 1.262 1.124 1.124 0 00-.227-.17 1.1 1.1 0 00-1.367.238c-2.963 3.434-4.626 7.24-4.447 11.033a1.094 1.094 0 001.093 1.043h3.745l-5.526 7.824c-.25.331-.72.775-.535 1.147a1.093 1.093 0 00.979.607s3.763 4.606 13.381 4.606c9.991 0 13.536-4.606 13.536-4.606a1.094 1.094 0 00.98-.607c.185-.371-.439-.815-.689-1.147zM19.877 25.469a7.16 7.16 0 0110.244 0 4.627 4.627 0 01.564 4.255c-.033.109-.068.218-.1.327l-.018.053a5.878 5.878 0 01-.1.281 3.753 3.753 0 01-.04.113l-.083.224a15.1 15.1 0 01-1.849 3.462l-.082.111-.106.141-.137.175-.049.061a8.843 8.843 0 01-.175.21l-.17.2-.119.13a2.98 2.98 0 01-5.3 0q-.148-.159-.293-.33l-.17-.2-.054-.068-.132-.169c-.044-.057-.074-.1-.111-.147l-.079-.106a15.087 15.087 0 01-1.85-3.463l-.084-.224-.039-.111-.1-.282-.016-.051c-.036-.111-.073-.222-.107-.334a4.626 4.626 0 01.555-4.258zm-7.044 21.793a.739.739 0 01-.1-1l6.236-8.317a1.149 1.149 0 00-.917-1.843h-4.64a17.306 17.306 0 013.062-8.2c.094.133.187.262.278.386a5.785 5.785 0 01.566 1.634q.057.186.118.371l.019.059.108.31.048.134q.043.119.089.238a16.524 16.524 0 002.354 4.245l.06.077.14.175.14.169.049.058c.058.068.116.134.175.2.042.048.085.094.128.141l.005.005a5.062 5.062 0 008.478 0l.007-.007.123-.134.01-.011c.058-.065.116-.13.173-.2l.047-.056.146-.175.134-.167.064-.082a16.5 16.5 0 002.351-4.242l.09-.24.048-.131c.036-.1.073-.208.108-.312l.019-.057c.041-.123.081-.247.119-.371a5.608 5.608 0 01.667-1.494c.091-.124.185-.253.278-.386a16.628 16.628 0 012.961 8.061h-4.64a1.15 1.15 0 00-.918 1.843l6.45 8.621a.739.739 0 01-.127 1.021c-1.342 1.064-5.248 3.228-12.348 3.228-6.958 0-10.854-2.422-12.157-3.551zM2.776 36.489l14.745-22.653 2.635 1.953a.871.871 0 00.521.172h8.521a.876.876 0 00.561-.2l2.566-2.149 15.156 22.7.729-2.051-14.969-22.436L25.731.399a.874.874 0 00-1.462 0L1.909 34.645zm26.106-22.277h-7.917l-2.481-1.839L25 2.467l6.36 9.669z"/></g></g></svg>