<svg xmlns="http://www.w3.org/2000/svg" width="50" height="65.221"><g data-name="Group 3856"><g data-name="Group 3854"><path data-name="Path 2657" d="M33.145 61.693V51.248a.743.743 0 00-.537-.715l-2.425-.694v-20.5c0-.014-.006-.026-.007-.04a.631.631 0 00-.015-.091.714.714 0 00-.05-.167.655.655 0 00-.042-.082.72.72 0 00-.111-.14.649.649 0 00-.06-.059.715.715 0 00-.235-.13 23.437 23.437 0 00-2.444-.628V16.34a1.485 1.485 0 00-1.481-1.485h-.741V.743a.74.74 0 10-1.479 0v19.311h-.742a2.226 2.226 0 00-2.22 2.228v18.429c-1.54.232-3.008.507-3.093.521a.744.744 0 00-.609.732v21.809a23.435 23.435 0 007.444 1.207 24 24 0 008.849-1.682zM22.037 40.108a.742.742 0 01.741-.743h.741v1.147a4.3 4.3 0 00-1.2-.027l-.283.035zm0-14.855a.743.743 0 01.741-.743h.741v1.485h-.741a2.191 2.191 0 00-.741.137zm5.152 4.26l.235.05.252.059.189.045c.15.037.3.077.448.116l.1.027.29.081v1.427a10.13 10.13 0 00-3.052-.478 2.464 2.464 0 00-.651.18v-.593a.967.967 0 01.83-1.083 1.529 1.529 0 01.244 0c.046 0 .1.008.15.013l.166.017c.059.007.134.019.2.03l.17.028.232.043c.068.01.132.023.197.037zm-8.854 24.961c.842-.144 2.4-.4 3.7-.573v1.473a97.84 97.84 0 00-3.7.564zm0 2.971c.843-.144 2.4-.4 3.7-.573v1.474a97.84 97.84 0 00-3.7.564zm3.7-5.453v.411a97.84 97.84 0 00-3.7.564v-1.465c.915-.156 2.677-.447 4.029-.614a2.237 2.237 0 00-.326 1.103zm-3.7 8.424c.842-.144 2.4-.4 3.7-.573v1.473a97.84 97.84 0 00-3.7.564zm5.184-2.482a1.7 1.7 0 01.79-1.061 3 3 0 012.71-.453l4.646 1.332v1.426l-4.209-1.2a4.457 4.457 0 00-3.936.618zm8.146-1.728l-4.209-1.2a4.452 4.452 0 00-3.936.618v-.662a1.7 1.7 0 01.79-1.061 3 3 0 012.71-.453l4.646 1.332zm-7.86-6.711a.736.736 0 00-.075-.033 4.3 4.3 0 00-1.409-.065c-1.3.155-2.98.429-3.985.6v-1.464c.944-.161 2.793-.467 4.16-.631a2.348 2.348 0 012.413 1.113 4.645 4.645 0 00-1.105.479zm1.94-21.633c-.03 0-.061 0-.09.006a2.463 2.463 0 00-.651.18v-.569h.741zm2.962 9.4a10.253 10.253 0 00-3.051-.479 2.448 2.448 0 00-.652.18v-.593a.966.966 0 01.83-1.082 11.14 11.14 0 012.872.547zm-3.7 2.078a.966.966 0 01.83-1.082 11.138 11.138 0 012.872.547v1.428a10.192 10.192 0 00-3.051-.478 2.555 2.555 0 00-.652.171zm3.7-5.048a10.326 10.326 0 00-3.051-.479 2.448 2.448 0 00-.652.18V33.4a.967.967 0 01.83-1.083 11.127 11.127 0 012.872.547zm-2.872 6.937a11.139 11.139 0 012.872.547v1.426a14.649 14.649 0 00-2.35-.474 2.926 2.926 0 00-.859-1.3c-.024-.022-.051-.039-.076-.06a.945.945 0 01.408-.14zm.651 3.007a18.283 18.283 0 012.222.51v1.426a15.284 15.284 0 00-2.222-.46zm-1.481-18.24v-.743h.741v.743zm0-2.228v-.743h.741v.743zm.741-4.456h-.741v-.743h.741zm0 1.485v.743h-.741v-.743zm-3.7 7.427a.743.743 0 01.741-.743h.741v1.481h-.741a2.191 2.191 0 00-.741.137zm0 2.971a.743.743 0 01.741-.743h.741v1.485h-.741a2.19 2.19 0 00-.741.137zm0 2.971a.742.742 0 01.741-.743h.741v1.485h-.741a2.19 2.19 0 00-.741.137zm0 2.971a.742.742 0 01.741-.743h.741v1.485h-.741a2.19 2.19 0 00-.741.137zm2.962 9.883a4.052 4.052 0 00-2.679-.593c-1.3.155-2.98.429-3.985.6v-1.465c.944-.161 2.793-.467 4.16-.631a2.582 2.582 0 012.015.582 1.29 1.29 0 01.489.909zm-2.962 15.794v.567c-.656-.065-1.3-.163-1.942-.284.629-.1 1.311-.202 1.934-.284zm1.481-1.91a1.7 1.7 0 01.79-1.061 3 3 0 012.71-.453l4.646 1.332v1.425l-4.209-1.2a4.456 4.456 0 00-3.936.618zm8.146-7.669l-4.209-1.2a4.454 4.454 0 00-3.936.618v-.657a1.7 1.7 0 01.79-1.061 3 3 0 012.71-.453l4.646 1.331zm-4.218-4.173a4.144 4.144 0 00-.975-.2v-1.654a18.283 18.283 0 012.222.51v1.7zm-1.71-32.722v.743h-.741v-.743zm-2.962 5.2h.741v1.485h-.741a2.19 2.19 0 00-.741.137v-.879a.743.743 0 01.736-.744zM22.5 41.96a2.584 2.584 0 012.015.582 1.29 1.29 0 01.489.909v.587a4.112 4.112 0 00-2.679-.582c-1.3.155-2.98.429-3.985.6v-1.464c.941-.164 2.791-.47 4.155-.63zm1.177 21.519a2.385 2.385 0 01.637-.664 3 3 0 012.71-.453l2.118.607a22.642 22.642 0 01-4.839.526c-.216-.001-.423-.011-.631-.017z"/></g><g data-name="Group 3855"><path data-name="Path 2658" d="M25 65.221a25.031 25.031 0 01-9.853-48.028.744.744 0 01.586 1.367 23.515 23.515 0 1018.544.005.744.744 0 01.586-1.367A25.031 25.031 0 0125 65.221z"/></g></g></svg>