<svg xmlns="http://www.w3.org/2000/svg" width="84.507" height="23.369"><path data-name="Path 2618" d="M1.015 23.027A.938.938 0 010 22.015V1.007A.938.938 0 011.015-.005h11.179a.94.94 0 011.019 1.012v1.02a.94.94 0 01-1.019 1.016H3.556a.3.3 0 00-.336.336v6.1a.3.3 0 00.336.336h7.959a.947.947 0 011.019 1.023v1.008a.947.947 0 01-1.019 1.023H3.556a.3.3 0 00-.336.34v6.434a.3.3 0 00.336.34h9.315a.931.931 0 011.017 1.012v1.02a.931.931 0 01-1.017 1.012z" fill="#fff"/><path data-name="Path 2619" d="M22.19 23.033a1.44 1.44 0 01-.763-.172 1.228 1.228 0 01-.459-.746L16.325 8.736a.669.669 0 01.037-.691.82.82 0 01.679-.258h1.25a1.084 1.084 0 011.154.813l3.213 10.063c.07.25.186.375.344.375s.27-.125.339-.375l3.217-10.062a1.079 1.079 0 011.151-.812h1.253a.828.828 0 01.679.258.67.67 0 01.032.691l-4.642 13.379a1.213 1.213 0 01-.455.746 1.456 1.456 0 01-.763.172z" fill="#fff"/><path data-name="Path 2620" d="M43.453 19.713a.884.884 0 01.29.68 1.209 1.209 0 01-.29.711 6.412 6.412 0 01-2 1.555 6.516 6.516 0 01-3.148.711 6.806 6.806 0 01-2.559-.457 5.775 5.775 0 01-1.946-1.27 5.552 5.552 0 01-1.253-1.9 6 6 0 01-.442-2.3v-4a6.883 6.883 0 01.392-2.32 5.3 5.3 0 011.15-1.914 5.523 5.523 0 011.861-1.289 6.331 6.331 0 012.525-.473 6.439 6.439 0 012.541.473 5.848 5.848 0 011.911 1.289 5.457 5.457 0 011.222 1.914 6.392 6.392 0 01.425 2.32v2.031a.986.986 0 01-.274.746 1 1 0 01-.744.266h-7.621a.3.3 0 00-.338.344v.609a3.2 3.2 0 00.762 2.168 3 3 0 002.389.875 3.713 3.713 0 002-.449 5.71 5.71 0 001.087-.863.912.912 0 011.423-.035zm-2.371-6.266a3.459 3.459 0 00-.707-2.2 2.769 2.769 0 00-2.34-.918 2.525 2.525 0 00-2.234.918 3.689 3.689 0 00-.645 2.2v.172a.3.3 0 00.338.336h5.25a.3.3 0 00.338-.336z" fill="#fff"/><path data-name="Path 2621" d="M58.361 23.037a1.011 1.011 0 01-.746-.277.989.989 0 01-.271-.738v-8.469a3.435 3.435 0 00-.8-2.258 3.522 3.522 0 00-4.844 0 3.421 3.421 0 00-.8 2.258v8.469a1 1 0 01-.27.738 1.016 1.016 0 01-.742.277h-1.019a1.023 1.023 0 01-.747-.277 1.007 1.007 0 01-.268-.738v-8.469a6.119 6.119 0 01.455-2.34 5.93 5.93 0 013.235-3.277 7.083 7.083 0 015.148 0 6.023 6.023 0 011.964 1.328 5.887 5.887 0 011.271 1.949 6.067 6.067 0 01.458 2.34v8.469a.993.993 0 01-.271.738 1 1 0 01-.743.277z" fill="#fff"/><path data-name="Path 2622" d="M70.585 23.032a4.674 4.674 0 01-3.742-1.391 5.7 5.7 0 01-1.2-3.863v-6.775a.3.3 0 00-.338-.336h-1.02a1.02 1.02 0 01-.746-.27.994.994 0 01-.268-.742v-.848a1 1 0 01.268-.746.991.991 0 01.746-.273h1.02a.3.3 0 00.338-.34V5.077a.931.931 0 011.014-1.012h1.018a.931.931 0 011.014 1.012v2.371a.3.3 0 00.34.34h2.539a.984.984 0 01.748.273 1 1 0 01.27.746v.848a1 1 0 01-.27.742 1.012 1.012 0 01-.748.27h-2.539a.3.3 0 00-.34.336v6.609a3.312 3.312 0 00.457 1.863 1.971 1.971 0 001.746.672h.676a.944.944 0 011.018 1.02v.848a1.023 1.023 0 01-.27.746 1.012 1.012 0 01-.748.27z" fill="#fff"/><path data-name="Path 2623" d="M75.769 19.645c.383-.453.85-.441 1.389.031a4.758 4.758 0 00.9.566 2.954 2.954 0 001.268.242 2.617 2.617 0 001.525-.41A1.217 1.217 0 0081.458 19a1.459 1.459 0 00-.523-1.117 9.505 9.505 0 00-1.947-1.184 13.965 13.965 0 01-1.627-.918 6.088 6.088 0 01-1.2-1.039 4.134 4.134 0 01-.762-1.23 4.263 4.263 0 01-.27-1.59 4.472 4.472 0 01.34-1.734 4.18 4.18 0 01.965-1.414 4.523 4.523 0 011.523-.969 5.34 5.34 0 012.016-.355 5.506 5.506 0 012.406.508A5.361 5.361 0 0183.9 8.97a1.245 1.245 0 01.289.734.92.92 0 01-.289.7l-.611.641a1.346 1.346 0 01-.625.391.671.671 0 01-.658-.254 2.937 2.937 0 00-2.033-.848 2.024 2.024 0 00-1.441.441 1.524 1.524 0 00-.455 1.152 1.4 1.4 0 00.643 1.152 9.087 9.087 0 001.625.914 12.512 12.512 0 011.713.879 6.816 6.816 0 011.3 1.031 4.27 4.27 0 01.846 1.25 3.969 3.969 0 01.3 1.613 4.291 4.291 0 01-.441 1.984 4.491 4.491 0 01-1.168 1.453 4.752 4.752 0 01-1.654.879 6.272 6.272 0 01-1.883.289 6.761 6.761 0 01-2.574-.422 4.232 4.232 0 01-1.627-1.133 1.125 1.125 0 01-.285-.711.9.9 0 01.285-.711z" fill="#fff"/></svg>