<svg data-name="logo white" xmlns="http://www.w3.org/2000/svg" width="127.024" height="66.043"><path data-name="Path 1567" d="M40.664 64.331a.393.393 0 01.129.313.44.44 0 01-.129.285 4.447 4.447 0 01-1.07.786 3.772 3.772 0 01-2.883.077 3.1 3.1 0 01-1.035-.7 3.2 3.2 0 01-.683-1.084 3.722 3.722 0 01-.249-1.393V59.48a3.7 3.7 0 01.249-1.38 3.176 3.176 0 013.019-2.048 3.554 3.554 0 011.55.33 2.684 2.684 0 01.552.321 3.5 3.5 0 01.394.337.374.374 0 010 .6l-.33.326a.424.424 0 01-.272.15.438.438 0 01-.3-.15 3.848 3.848 0 00-.564-.4 2 2 0 00-1.032-.229 1.9 1.9 0 00-.808.165 1.786 1.786 0 00-.6.455 2.029 2.029 0 00-.38.686 2.648 2.648 0 00-.127.837v3.135a2.3 2.3 0 00.507 1.55 1.749 1.749 0 001.406.591 2.192 2.192 0 001.061-.235 3.623 3.623 0 00.706-.478.507.507 0 01.292-.127.371.371 0 01.308.127z" fill="#581dc9"/><path data-name="Path 1568" d="M45.23 66.044a3.252 3.252 0 01-1.306-.263 3.384 3.384 0 01-1.781-1.784 3.354 3.354 0 010-2.613 3.443 3.443 0 01.718-1.062 3.508 3.508 0 011.063-.721 3.39 3.39 0 012.612 0 3.471 3.471 0 011.064.721 3.42 3.42 0 01.719 1.062 3.374 3.374 0 010 2.613 3.381 3.381 0 01-1.783 1.784 3.239 3.239 0 01-1.306.263m0-1.213a1.923 1.923 0 00.821-.172 2.091 2.091 0 00.656-.455 2.058 2.058 0 00.436-.679 2.312 2.312 0 000-1.668 2.036 2.036 0 00-.436-.677 2.113 2.113 0 00-.656-.457 2.018 2.018 0 00-1.639 0 2.092 2.092 0 00-.656.457 2.063 2.063 0 00-.435.677 2.285 2.285 0 000 1.668 2.047 2.047 0 001.091 1.135 1.919 1.919 0 00.819.172" fill="#581dc9"/><path data-name="Path 1569" d="M57.713 65.9a.392.392 0 01-.427-.428v-3.711a1.35 1.35 0 00-.072-.441 1.132 1.132 0 00-.215-.385 1.059 1.059 0 00-.36-.278 1.2 1.2 0 00-.538-.108 1.181 1.181 0 00-.534.108 1.053 1.053 0 00-.364.278 1.091 1.091 0 00-.208.385 1.522 1.522 0 00-.064.441v3.711a.392.392 0 01-.428.428h-.428a.421.421 0 01-.312-.113.427.427 0 01-.115-.315v-3.711a1.366 1.366 0 00-.072-.441 1.2 1.2 0 00-.214-.385 1.07 1.07 0 00-.366-.278 1.138 1.138 0 00-.519-.108 1.188 1.188 0 00-.527.108 1.042 1.042 0 00-.373.278 1.161 1.161 0 00-.215.385 1.394 1.394 0 00-.07.441v3.711a.432.432 0 01-.113.315.439.439 0 01-.317.113h-.428a.421.421 0 01-.312-.113.434.434 0 01-.115-.315v-3.711a2.627 2.627 0 01.178-.962 2.261 2.261 0 01.5-.769 2.334 2.334 0 01.78-.507 2.633 2.633 0 011.014-.187 2.2 2.2 0 01.96.2 3.141 3.141 0 01.708.444.175.175 0 00.269 0 2.285 2.285 0 01.695-.457 2.415 2.415 0 01.991-.187 2.629 2.629 0 011.012.187 2.319 2.319 0 01.781.507 2.235 2.235 0 01.5.769 2.552 2.552 0 01.178.962v3.711a.39.39 0 01-.425.428z" fill="#581dc9"/><path data-name="Path 1570" d="M67.986 65.9a.434.434 0 01-.316-.113.426.426 0 01-.114-.315v-3.711a1.352 1.352 0 00-.07-.443 1.216 1.216 0 00-.213-.385 1.081 1.081 0 00-.366-.278 1.176 1.176 0 00-.534-.108 1.192 1.192 0 00-.537.108 1.071 1.071 0 00-.57.662 1.472 1.472 0 00-.064.441v3.711a.441.441 0 01-.112.315.425.425 0 01-.313.113h-.431a.389.389 0 01-.424-.428v-3.711a1.336 1.336 0 00-.074-.441 1.164 1.164 0 00-.213-.385 1.085 1.085 0 00-.366-.278 1.142 1.142 0 00-.52-.108 1.2 1.2 0 00-.528.108 1.063 1.063 0 00-.371.278 1.168 1.168 0 00-.213.385 1.365 1.365 0 00-.072.441v3.711a.433.433 0 01-.114.315.42.42 0 01-.311.113h-.429a.426.426 0 01-.315-.113.433.433 0 01-.113-.315v-3.711a2.553 2.553 0 01.179-.962 2.149 2.149 0 01.5-.769 2.278 2.278 0 01.777-.507 2.628 2.628 0 011.013-.187 2.217 2.217 0 01.964.2 3.323 3.323 0 01.708.444.175.175 0 00.269 0 2.227 2.227 0 01.693-.457 2.4 2.4 0 01.99-.187 2.632 2.632 0 011.013.187 2.336 2.336 0 01.779.507 2.253 2.253 0 01.5.769 2.593 2.593 0 01.175.962v3.711a.389.389 0 01-.425.428z" fill="#581dc9"/><path data-name="Path 1571" d="M74.485 59.91a.435.435 0 01.114-.315.423.423 0 01.315-.111h.428a.394.394 0 01.428.427v3.566a2.681 2.681 0 01-.185.984 2.559 2.559 0 01-.523.822 2.44 2.44 0 01-.811.555 2.932 2.932 0 01-2.157 0 2.531 2.531 0 01-.821-.555 2.434 2.434 0 01-.529-.822 2.716 2.716 0 01-.185-.984v-3.566a.394.394 0 01.43-.427h.427a.392.392 0 01.428.427v3.566a1.5 1.5 0 00.318.948 1.21 1.21 0 001.011.408 1.181 1.181 0 001-.408 1.5 1.5 0 00.313-.948z" fill="#581dc9"/><path data-name="Path 1572" d="M81.901 65.9a.426.426 0 01-.315-.113.442.442 0 01-.115-.315v-3.567a1.458 1.458 0 00-.333-.949 1.49 1.49 0 00-2.043 0 1.46 1.46 0 00-.335.949v3.567a.392.392 0 01-.428.428h-.426a.423.423 0 01-.314-.113.428.428 0 01-.117-.315v-3.567a2.611 2.611 0 01.194-.985 2.489 2.489 0 01.538-.819 2.553 2.553 0 01.824-.557 2.958 2.958 0 012.17 0 2.5 2.5 0 011.366 1.376 2.637 2.637 0 01.19.985v3.567a.392.392 0 01-.428.428z" fill="#581dc9"/><path data-name="Path 1573" d="M85.039 58.48a.395.395 0 01-.427-.427v-.713a.4.4 0 01.427-.43h.43a.421.421 0 01.312.115.426.426 0 01.115.315v.713a.412.412 0 01-.115.312.4.4 0 01-.312.115zm0 7.419a.389.389 0 01-.427-.426v-5.565a.425.425 0 01.113-.315.431.431 0 01.313-.113h.43a.394.394 0 01.427.428v5.565a.43.43 0 01-.115.315.421.421 0 01-.312.111z" fill="#581dc9"/><path data-name="Path 1574" d="M92.102 64.632a.35.35 0 01.115.283.562.562 0 01-.131.3 2.545 2.545 0 01-.747.555 2.459 2.459 0 01-1.165.271 2.765 2.765 0 01-1.1-.206 2.328 2.328 0 01-.806-.555 2.3 2.3 0 01-.493-.822 2.965 2.965 0 01-.164-.985v-1.568a2.825 2.825 0 01.176-.985 2.416 2.416 0 01.516-.821 2.514 2.514 0 01.806-.555 2.6 2.6 0 011.068-.206 2.462 2.462 0 011.043.206 2.543 2.543 0 01.756.505.413.413 0 010 .6l-.27.271a.379.379 0 01-.586-.013 1.4 1.4 0 00-.405-.251 1.32 1.32 0 00-.537-.108 1.14 1.14 0 00-.984.407 1.568 1.568 0 00-.3.949v1.568a2.09 2.09 0 00.064.523 1.159 1.159 0 00.213.434 1.082 1.082 0 00.395.294 1.515 1.515 0 00.611.105 1.256 1.256 0 00.645-.158 2.465 2.465 0 00.426-.3.4.4 0 01.6 0z" fill="#581dc9"/><path data-name="Path 1575" d="M97.869 65.902a.405.405 0 01-.317-.127.432.432 0 01-.113-.289.1.1 0 00-.064-.108.108.108 0 00-.12.052 1.432 1.432 0 01-.595.443 2.337 2.337 0 01-.949.17 2.2 2.2 0 01-.912-.185 2.074 2.074 0 01-.715-.529 2.539 2.539 0 01-.468-.821 3.023 3.023 0 01-.174-1.048v-1.27a2.846 2.846 0 01.2-1.055 2.542 2.542 0 01.564-.864 2.732 2.732 0 011.962-.79h2.124a.437.437 0 01.317.111.431.431 0 01.111.315v5.566a.39.39 0 01-.428.428zm-.43-5.065a.129.129 0 00-.143-.145h-1.07a1.4 1.4 0 00-1.107.444 1.552 1.552 0 00-.39 1.055v1.414a1.229 1.229 0 00.322.885 1.159 1.159 0 00.89.34 1.489 1.489 0 00.663-.136 1.348 1.348 0 00.462-.363 1.6 1.6 0 00.28-.507 1.738 1.738 0 00.093-.576z" fill="#581dc9"/><path data-name="Path 1576" d="M103.014 65.898a1.975 1.975 0 01-1.573-.584 2.393 2.393 0 01-.508-1.629v-2.853a.127.127 0 00-.141-.143h-.43a.42.42 0 01-.316-.117.4.4 0 01-.111-.31v-.358a.424.424 0 01.111-.314.431.431 0 01.316-.111h.43a.129.129 0 00.141-.146v-1a.418.418 0 01.115-.315.424.424 0 01.314-.114h.428a.4.4 0 01.43.43v1c0 .095.043.146.138.146h1.071a.43.43 0 01.315.111.44.44 0 01.113.314v.358a.4.4 0 01-.428.426h-1.071c-.095 0-.138.048-.138.143v2.781a1.387 1.387 0 00.19.786.826.826 0 00.735.285h.285a.426.426 0 01.315.114.436.436 0 01.113.314v.357a.441.441 0 01-.113.315.431.431 0 01-.315.113z" fill="#581dc9"/><path data-name="Path 1577" d="M105.713 58.48a.411.411 0 01-.314-.115.406.406 0 01-.114-.312v-.713a.42.42 0 01.114-.315.428.428 0 01.314-.115h.43a.4.4 0 01.427.43v.713a.4.4 0 01-.427.427zm0 7.419a.391.391 0 01-.428-.426v-5.565a.419.419 0 01.114-.315.433.433 0 01.314-.113h.43a.431.431 0 01.312.113.426.426 0 01.115.315v5.565a.431.431 0 01-.115.315.425.425 0 01-.312.111z" fill="#581dc9"/><path data-name="Path 1578" d="M111.493 66.044a3.249 3.249 0 01-1.307-.263 3.384 3.384 0 01-1.062-.72 3.439 3.439 0 01-.72-1.064 3.367 3.367 0 010-2.613 3.405 3.405 0 011.782-1.783 3.391 3.391 0 012.613 0 3.408 3.408 0 011.783 1.783 3.373 3.373 0 010 2.613 3.4 3.4 0 01-1.783 1.784 3.246 3.246 0 01-1.306.263m0-1.213a1.934 1.934 0 00.821-.172 2.134 2.134 0 00.656-.455 2.085 2.085 0 00.435-.679 2.307 2.307 0 000-1.668 2.063 2.063 0 00-.435-.677 2.158 2.158 0 00-.656-.457 2.023 2.023 0 00-1.641 0 2.144 2.144 0 00-.654.457 1.987 1.987 0 00-.437.677 2.313 2.313 0 000 1.668 2.007 2.007 0 00.437.679 2.121 2.121 0 00.654.455 1.921 1.921 0 00.821.172" fill="#581dc9"/><path data-name="Path 1579" d="M120.696 65.9a.394.394 0 01-.428-.428v-3.567a1.46 1.46 0 00-.335-.949 1.49 1.49 0 00-2.042 0 1.455 1.455 0 00-.333.949v3.567a.434.434 0 01-.115.315.425.425 0 01-.313.113h-.428a.395.395 0 01-.428-.428v-3.567a2.638 2.638 0 01.19-.985 2.527 2.527 0 01.54-.819 2.576 2.576 0 01.824-.557 2.963 2.963 0 012.172 0 2.584 2.584 0 01.826.557 2.42 2.42 0 01.534.819 2.542 2.542 0 01.2.985v3.567a.434.434 0 01-.115.315.427.427 0 01-.312.113z" fill="#581dc9"/><path data-name="Path 1580" d="M123.322 64.472c.159-.188.354-.185.584.016a2.082 2.082 0 00.378.236 1.242 1.242 0 00.535.106 1.121 1.121 0 00.64-.172.524.524 0 00.258-.455.62.62 0 00-.221-.472 4.049 4.049 0 00-.821-.5 5.528 5.528 0 01-.686-.383 2.522 2.522 0 01-.5-.437 1.7 1.7 0 01-.322-.52 1.772 1.772 0 01-.113-.67 1.916 1.916 0 01.139-.727 1.854 1.854 0 01.407-.6 1.963 1.963 0 01.641-.407 2.506 2.506 0 011.862.064 2.133 2.133 0 01.643.43.533.533 0 01.122.3.384.384 0 01-.122.294l-.256.271a.61.61 0 01-.263.164.3.3 0 01-.28-.108 1.235 1.235 0 00-.854-.357.851.851 0 00-.606.183.645.645 0 00-.2.487.584.584 0 00.272.484 3.8 3.8 0 00.685.387 5.578 5.578 0 01.72.369 2.871 2.871 0 01.55.437 1.77 1.77 0 01.355.529 1.625 1.625 0 01.131.675 1.815 1.815 0 01-.186.835 1.862 1.862 0 01-.493.613 2.078 2.078 0 01-.7.372 2.618 2.618 0 01-.792.12 2.863 2.863 0 01-1.084-.177 1.826 1.826 0 01-.684-.479.466.466 0 01-.124-.3.4.4 0 01.124-.3z" fill="#581dc9"/><path data-name="Path 1581" d="M46.441 3.438H44.25a2.013 2.013 0 00-2.181 2.181v3.644a2.014 2.014 0 002.181 2.184h2.191a2.018 2.018 0 002.184-2.184V5.619a2.017 2.017 0 00-2.184-2.181" fill="#581dc9"/><path data-name="Path 1582" d="M46.441 16.545H44.25a2.012 2.012 0 00-2.181 2.182v28.488a2.009 2.009 0 002.181 2.184h2.191a2.013 2.013 0 002.184-2.184V18.727a2.015 2.015 0 00-2.184-2.182" fill="#581dc9"/><path data-name="Path 1583" d="M79.9 21.34a16.776 16.776 0 00-5.214-3.536 16.448 16.448 0 00-12.8 0 16.743 16.743 0 00-8.753 8.744 16.528 16.528 0 000 12.812 16.753 16.753 0 008.753 8.746 16.466 16.466 0 0012.8 0 16.73 16.73 0 008.747-8.746 16.485 16.485 0 000-12.812A16.74 16.74 0 0079.9 21.34m-2.24 15.7a9.939 9.939 0 01-2.138 3.322 10.24 10.24 0 01-3.214 2.24 10.044 10.044 0 01-8.05 0 10.353 10.353 0 01-3.22-2.24 9.953 9.953 0 01-2.13-3.322 11.246 11.246 0 010-8.183 10.054 10.054 0 012.13-3.329 10.579 10.579 0 013.215-2.232 10.039 10.039 0 018.05 0 10.461 10.461 0 013.214 2.236 10.039 10.039 0 012.138 3.329 11.225 11.225 0 010 8.183" fill="#581dc9"/><path data-name="Path 1584" d="M97.781 43.21h-.733a2.467 2.467 0 01-1.888-.692 2.581 2.581 0 01-.659-1.86V2.184A2.01 2.01 0 0092.315 0h-2.184a2.142 2.142 0 00-1.6.579 2.166 2.166 0 00-.58 1.606v37.746a10.652 10.652 0 002.069 6.922q2.078 2.55 6.739 2.549h1.021a2.015 2.015 0 002.182-2.184v-1.82a2.013 2.013 0 00-2.182-2.186" fill="#581dc9"/><path data-name="Path 1585" d="M126.448 17.111a2.129 2.129 0 00-1.577-.573H114.21a13.885 13.885 0 00-5.51 1.071 13.74 13.74 0 00-4.334 2.894 12.792 12.792 0 00-2.826 4.325 14.152 14.152 0 00-1 5.286v6.361a15.49 15.49 0 00.855 5.252 12.617 12.617 0 002.363 4.11 10.284 10.284 0 003.578 2.643 11.059 11.059 0 004.58.932 11.888 11.888 0 004.759-.86 7.085 7.085 0 002.967-2.215.545.545 0 01.611-.249c.317.1.322.962.322 1.245a2.088 2.088 0 00.571 1.432 1.994 1.994 0 001.573.643h2.147a1.988 1.988 0 002.156-2.148V18.682a2.131 2.131 0 00-.577-1.571m-5.868 18.29a8.925 8.925 0 01-.47 2.9 8.013 8.013 0 01-1.388 2.539 6.87 6.87 0 01-2.324 1.82 7.522 7.522 0 01-3.331.678 5.821 5.821 0 01-4.471-1.717 6.217 6.217 0 01-1.614-4.429v-7.076a7.71 7.71 0 011.969-5.286 7.016 7.016 0 015.545-2.214h5.372a.627.627 0 01.713.711z" fill="#581dc9"/><path data-name="Path 1586" d="M37.402 16.53h-3.023a2.327 2.327 0 00-2.479 1.76l-8.2 21.826c-.147.523-.389.792-.72.792s-.585-.268-.727-.792L9.153 6.545h9.167a2.411 2.411 0 002.607-2.608v-1.3a2.4 2.4 0 00-2.607-2.6H1.695c-1.4 0-2.032.7-1.515 2l18.1 45.4a2.764 2.764 0 00.975 1.559 2.978 2.978 0 001.63.4l4.11-.006a3 3 0 001.632-.4 2.818 2.818 0 00.976-1.559l11.291-28.885c.387-1.353-.089-2.018-1.492-2.018" fill="#581dc9"/></svg>