<svg xmlns="http://www.w3.org/2000/svg" width="118.983" height="25.949"><defs><style>.cls-1{fill:#fff}</style></defs><g id="Outdoor" transform="translate(13.475 -17.554)"><g id="Group_3803" data-name="Group 3803" transform="translate(-13.475 17.554)"><path id="Path_2567" data-name="Path 2567" class="cls-1" d="M5817.494 9541.584a9.076 9.076 0 01-.65 3.465 7.893 7.893 0 01-1.816 2.691 8.607 8.607 0 01-2.762 1.742 10.025 10.025 0 01-6.969 0 8.625 8.625 0 01-2.766-1.742 7.775 7.775 0 01-1.812-2.691 8.93 8.93 0 01-.648-3.465v-8.895a8.922 8.922 0 01.648-3.469 7.722 7.722 0 011.813-2.687 8.634 8.634 0 012.766-1.746 10.025 10.025 0 016.969 0 8.616 8.616 0 012.762 1.746 7.84 7.84 0 011.816 2.688 9.068 9.068 0 01.65 3.469zm-3.521-8.895a5.36 5.36 0 00-1.338-3.711 5.777 5.777 0 00-7.715 0 5.39 5.39 0 00-1.328 3.711v8.895a5.373 5.373 0 001.328 3.707 5.766 5.766 0 007.715 0 5.343 5.343 0 001.338-3.707z" transform="translate(-5800.07 -9524.162)"/><path id="Path_2568" data-name="Path 2568" class="cls-1" d="M5887.869 9556.838a1.044 1.044 0 011.117-1.121h1.109a1.044 1.044 0 01.813.3 1.1 1.1 0 01.3.816v9.258a7.057 7.057 0 01-.482 2.563 6.41 6.41 0 01-3.467 3.578 7.586 7.586 0 01-5.6 0 6.579 6.579 0 01-2.133-1.453 6.175 6.175 0 01-1.367-2.125 6.894 6.894 0 01-.48-2.562v-9.258a1.093 1.093 0 01.293-.816 1.053 1.053 0 01.816-.3h1.115a1.074 1.074 0 01.814.3 1.093 1.093 0 01.293.816v9.258a3.847 3.847 0 00.838 2.465 3.092 3.092 0 002.609 1.055 3.056 3.056 0 002.594-1.055 3.907 3.907 0 00.814-2.465z" transform="translate(-5855.809 -9546.822)"/><path id="Path_2569" data-name="Path 2569" class="cls-1" d="M5944.861 9562.018a5.119 5.119 0 01-4.1-1.52 6.216 6.216 0 01-1.318-4.227v-7.41a.332.332 0 00-.369-.375h-1.109a1.1 1.1 0 01-.822-.293 1.085 1.085 0 01-.293-.809v-.934a1.094 1.094 0 01.293-.812 1.108 1.108 0 01.822-.3h1.109a.326.326 0 00.369-.371v-2.594a1.022 1.022 0 011.117-1.109h1.107a1.09 1.09 0 01.814.3 1.1 1.1 0 01.293.813v2.594a.329.329 0 00.375.371h2.779a1.035 1.035 0 011.113 1.113v.934a1.023 1.023 0 01-1.113 1.1h-2.779a.335.335 0 00-.375.375v7.23a3.637 3.637 0 00.506 2.035 2.121 2.121 0 001.906.742h.742a1.078 1.078 0 01.814.3 1.09 1.09 0 01.3.816v.926a1.019 1.019 0 01-1.113 1.109z" transform="translate(-5898.307 -9536.445)"/><path id="Path_2570" data-name="Path 2570" class="cls-1" d="M5990.039 9550.682a6.905 6.905 0 01-2.648-.484 6.23 6.23 0 01-2.059-1.309 5.756 5.756 0 01-1.318-2.008 6.674 6.674 0 01-.461-2.5v-4.081a6.506 6.506 0 01.48-2.5 5.977 5.977 0 011.316-2 6.173 6.173 0 012-1.32 6.585 6.585 0 012.533-.488h3.672a.323.323 0 00.371-.367v-7.043a1.088 1.088 0 01.295-.812 1.138 1.138 0 01.822-.3h1.105a1.108 1.108 0 01.816.3 1.1 1.1 0 01.295.813v22.988a1.123 1.123 0 01-.295.816 1.106 1.106 0 01-.816.293zm3.891-13.16a.329.329 0 00-.371-.371h-3.52a3 3 0 00-3.152 3.148v4.078a2.991 2.991 0 00.928 2.285 3.137 3.137 0 002.225.871h3.52a.33.33 0 00.371-.375z" transform="translate(-5931.847 -9525.109)"/><path id="Path_2571" data-name="Path 2571" class="cls-1" d="M6054.086 9571.828a8.329 8.329 0 01-3.393-.687 8.781 8.781 0 01-4.633-4.633 8.358 8.358 0 01-.687-3.391 8.463 8.463 0 01.688-3.4 8.9 8.9 0 014.633-4.629 8.76 8.76 0 016.785 0 8.9 8.9 0 014.633 4.629 8.6 8.6 0 01.686 3.4 8.489 8.489 0 01-.686 3.391 8.781 8.781 0 01-4.633 4.633 8.369 8.369 0 01-3.393.687zm0-3.152a4.977 4.977 0 002.127-.449 5.5 5.5 0 001.711-1.176 5.374 5.374 0 001.123-1.762 5.772 5.772 0 00.408-2.172 5.712 5.712 0 00-.408-2.16 5.41 5.41 0 00-1.123-1.77 5.666 5.666 0 00-1.711-1.187 5.359 5.359 0 00-4.26 0 5.568 5.568 0 00-1.705 1.188 5.375 5.375 0 00-1.135 1.77 5.825 5.825 0 00-.4 2.16 5.887 5.887 0 00.4 2.172 5.34 5.34 0 001.135 1.762 5.4 5.4 0 001.705 1.176 4.978 4.978 0 002.133.448z" transform="translate(-5976.243 -9545.885)"/><path id="Path_2572" data-name="Path 2572" class="cls-1" d="M6126.422 9571.828a8.329 8.329 0 01-3.393-.687 8.787 8.787 0 01-4.631-4.633 8.325 8.325 0 01-.686-3.391 8.429 8.429 0 01.686-3.4 8.731 8.731 0 011.869-2.75 8.832 8.832 0 012.762-1.879 8.77 8.77 0 016.789 0 8.924 8.924 0 014.631 4.629 8.6 8.6 0 01.686 3.4 8.489 8.489 0 01-.686 3.391 8.8 8.8 0 01-4.631 4.633 8.4 8.4 0 01-3.396.687zm0-3.152a4.961 4.961 0 002.129-.449 5.254 5.254 0 002.836-2.937 5.81 5.81 0 00.406-2.172 5.749 5.749 0 00-.406-2.16 5.484 5.484 0 00-1.127-1.77 5.609 5.609 0 00-1.709-1.187 5.369 5.369 0 00-4.264 0 5.63 5.63 0 00-1.7 1.188 5.334 5.334 0 00-1.131 1.77 5.75 5.75 0 00-.408 2.16 5.811 5.811 0 00.408 2.172 5.3 5.3 0 001.131 1.762 5.463 5.463 0 001.7 1.176 5.006 5.006 0 002.135.447z" transform="translate(-6028.199 -9545.885)"/><path id="Path_2573" data-name="Path 2573" class="cls-1" d="M6193.789 9572.4a1.131 1.131 0 01-.82-.293 1.117 1.117 0 01-.295-.816v-9.457a6.264 6.264 0 011.563-4.41 5.566 5.566 0 014.336-1.707h1.334a1.078 1.078 0 01.816.3 1.1 1.1 0 01.295.816v.926a1.127 1.127 0 01-.295.816 1.148 1.148 0 01-.816.289h-1.113a2.516 2.516 0 00-2.1.879 3.571 3.571 0 00-.687 2.273v9.27a1.124 1.124 0 01-.293.816 1.106 1.106 0 01-.816.293z" transform="translate(-6082.035 -9546.822)"/></g></g></svg>