<svg xmlns="http://www.w3.org/2000/svg" width="220.22" height="24.35"><defs><style>.cls-1{fill:#fff}</style></defs><g id="PR" transform="translate(59.361 -8.289)"><g id="Group_3807" data-name="Group 3807" transform="translate(-59.362 8.289)"><path id="Path_2580" data-name="Path 2580" class="cls-1" d="M6952.443 9549.469a1.046 1.046 0 01-.774-.281 1.06 1.06 0 01-.281-.773v-21.885a.973.973 0 011.056-1.055h7.411a6.548 6.548 0 012.685.564 6.762 6.762 0 012.188 1.531 7.6 7.6 0 011.465 2.264 7.008 7.008 0 010 5.414 7.656 7.656 0 01-1.465 2.238 6.69 6.69 0 01-2.188 1.537 6.455 6.455 0 01-2.685.564h-4.763a.309.309 0 00-.35.354v8.473a1.04 1.04 0 01-.287.773 1.058 1.058 0 01-.777.281zm7.166-13.053a3.966 3.966 0 001.378-.25 3.478 3.478 0 001.2-.738 3.909 3.909 0 00.864-1.221 4.364 4.364 0 000-3.354 3.886 3.886 0 00-.864-1.211 3.43 3.43 0 00-1.2-.742 3.924 3.924 0 00-1.378-.252h-4.518a.311.311 0 00-.35.354v7.057a.312.312 0 00.35.357z" transform="translate(-6951.388 -9525.475)"/><path id="Path_2581" data-name="Path 2581" class="cls-1" d="M7028.18 9556.784a1.011 1.011 0 01.289-.774 1 1 0 01.774-.293h1.053a1.015 1.015 0 01.78.293 1.038 1.038 0 01.284.774v8.811a6.752 6.752 0 01-.458 2.442 6.069 6.069 0 01-3.3 3.405 7.191 7.191 0 01-5.328 0 6.348 6.348 0 01-2.03-1.381 5.866 5.866 0 01-1.3-2.024 6.574 6.574 0 01-.461-2.442v-8.811a1.026 1.026 0 01.281-.774 1 1 0 01.774-.293h1.064a.99.99 0 011.056 1.067v8.811a3.657 3.657 0 00.795 2.347 2.946 2.946 0 002.484 1.008 2.9 2.9 0 002.47-1.008 3.714 3.714 0 00.774-2.347z" transform="translate(-7000.481 -9547.604)"/><path id="Path_2582" data-name="Path 2582" class="cls-1" d="M7083.32 9549.469a1.079 1.079 0 01-.784-.281 1.063 1.063 0 01-.28-.773v-21.885a1.036 1.036 0 01.28-.773 1.055 1.055 0 01.784-.281h1.052a1.03 1.03 0 01.777.281 1.042 1.042 0 01.278.773v6.707a.312.312 0 00.358.35h3.492a6.3 6.3 0 012.419.463 5.688 5.688 0 013.16 3.154 6.288 6.288 0 01.457 2.385v3.879a6.341 6.341 0 01-.445 2.383 5.414 5.414 0 01-1.25 1.91 5.945 5.945 0 01-1.958 1.25 6.674 6.674 0 01-2.521.459zm8.816-9.881a2.859 2.859 0 00-3-3h-3.354a.318.318 0 00-.358.352v9.176a.314.314 0 00.358.352h3.354a3 3 0 002.113-.82 2.872 2.872 0 00.883-2.18z" transform="translate(-7047.149 -9525.475)"/><path id="Path_2583" data-name="Path 2583" class="cls-1" d="M7150.969 9549.469a3.975 3.975 0 01-3.265-1.23 5.189 5.189 0 01-1-3.355v-18.354a1.013 1.013 0 01.287-.773 1.028 1.028 0 01.774-.281h1.055a1.022 1.022 0 01.774.281 1.037 1.037 0 01.29.773v18.7a1.24 1.24 0 00.317.9 1.177 1.177 0 00.918.33h.35a1.014 1.014 0 01.774.291 1.035 1.035 0 01.281.773v.883a1.06 1.06 0 01-.281.773 1.046 1.046 0 01-.774.281z" transform="translate(-7094.302 -9525.475)"/><path id="Path_2584" data-name="Path 2584" class="cls-1" d="M7181.316 9535.934a1.038 1.038 0 01-.777-.279 1.057 1.057 0 01-.28-.773v-1.764a.968.968 0 011.058-1.059h1.062a1.065 1.065 0 01.774.277 1.045 1.045 0 01.281.781v1.764a.97.97 0 01-1.056 1.053zm0 18.354a1.062 1.062 0 01-.777-.279 1.084 1.084 0 01-.28-.779v-13.758a1.046 1.046 0 01.28-.775 1.014 1.014 0 01.777-.289h1.062a1.01 1.01 0 01.774.289 1.031 1.031 0 01.281.775v13.758a.971.971 0 01-1.056 1.059z" transform="translate(-7118.859 -9530.29)"/><path id="Path_2585" data-name="Path 2585" class="cls-1" d="M7218.97 9567.5a.883.883 0 01.281.707 1.341 1.341 0 01-.317.738 6.364 6.364 0 01-1.851 1.377 6.009 6.009 0 01-2.879.664 7.021 7.021 0 01-2.738-.5 5.84 5.84 0 01-1.985-1.381 5.617 5.617 0 01-1.223-2.027 7.344 7.344 0 01-.406-2.436v-3.881a6.865 6.865 0 01.442-2.437 6.013 6.013 0 011.271-2.029 6.182 6.182 0 012-1.379 6.561 6.561 0 012.643-.512 6.18 6.18 0 014.443 1.768 1.011 1.011 0 010 1.48l-.667.672a.934.934 0 01-1.444-.035 3.475 3.475 0 00-1.011-.615 3.245 3.245 0 00-1.321-.268 2.856 2.856 0 00-2.439 1.008 3.858 3.858 0 00-.735 2.348v3.881a4.921 4.921 0 00.161 1.285 2.708 2.708 0 00.529 1.078 2.559 2.559 0 00.969.727 3.848 3.848 0 001.516.254 3.072 3.072 0 001.588-.385 6.188 6.188 0 001.062-.736.979.979 0 011.477 0z" transform="translate(-7139.048 -9546.642)"/><path id="Path_2586" data-name="Path 2586" class="cls-1" d="M7312.94 9549.469a1.372 1.372 0 01-1.3-.957l-4.162-8.955a.765.765 0 00-.75-.5h-3.352a.315.315 0 00-.353.35v9.006a.973.973 0 01-1.056 1.055h-1.231a1.053 1.053 0 01-.777-.281 1.04 1.04 0 01-.287-.773v-21.885a1.013 1.013 0 01.287-.773 1.03 1.03 0 01.777-.281h7.229a6.93 6.93 0 012.649.508 6.487 6.487 0 012.132 1.418 6.344 6.344 0 011.414 2.131 6.95 6.95 0 01.511 2.652 6.7 6.7 0 01-3.387 5.92c-.38.211-.461.555-.249 1.025l4.236 9.07a.948.948 0 01.036.9.769.769 0 01-.744.373zm-5.185-13.584a3.726 3.726 0 001.357-.264 3.455 3.455 0 001.151-.766 3.688 3.688 0 00.786-1.174 3.736 3.736 0 00.3-1.5 3.411 3.411 0 00-.3-1.465 3.3 3.3 0 00-.786-1.113 3.36 3.36 0 00-1.151-.705 3.755 3.755 0 00-1.357-.252h-4.344a.315.315 0 00-.353.354v6.533a.312.312 0 00.353.35z" transform="translate(-7206.235 -9525.475)"/><path id="Path_2587" data-name="Path 2587" class="cls-1" d="M7380.029 9567.184a.893.893 0 01.3.705 1.174 1.174 0 01-.3.742 6.6 6.6 0 01-2.084 1.619 6.8 6.8 0 01-3.279.738 7.091 7.091 0 01-2.667-.473 5.914 5.914 0 01-2.024-1.324 5.743 5.743 0 01-1.3-1.979 6.162 6.162 0 01-.461-2.4v-4.16a7.186 7.186 0 01.406-2.42 5.516 5.516 0 011.2-1.99 5.607 5.607 0 011.938-1.342 6.529 6.529 0 012.628-.5 6.671 6.671 0 012.648.5 5.994 5.994 0 011.988 1.342 5.852 5.852 0 011.273 1.99 6.779 6.779 0 01.442 2.42v2.115a1.016 1.016 0 01-.286.777 1.047 1.047 0 01-.774.279h-7.94a.318.318 0 00-.354.355v.633a3.316 3.316 0 00.8 2.264 3.106 3.106 0 002.481.908 3.89 3.89 0 002.08-.465 6.147 6.147 0 001.137-.9 1.019 1.019 0 01.774-.371 1 1 0 01.7.336zm-2.47-6.529a3.6 3.6 0 00-.741-2.291 2.88 2.88 0 00-2.434-.957 2.626 2.626 0 00-2.326.957 3.838 3.838 0 00-.676 2.291v.182a.313.313 0 00.354.344h5.468a.31.31 0 00.355-.344z" transform="translate(-7256.386 -9546.642)"/><path id="Path_2588" data-name="Path 2588" class="cls-1" d="M7434.949 9549.469a3.983 3.983 0 01-3.268-1.23 5.19 5.19 0 01-1.008-3.355v-18.354a1.006 1.006 0 01.293-.773 1.028 1.028 0 01.774-.281h1.053a.982.982 0 011.064 1.055v18.7a1.256 1.256 0 00.316.9 1.184 1.184 0 00.915.33h.355a1.007 1.007 0 01.771.291 1.026 1.026 0 01.284.773v.883a1.05 1.05 0 01-.284.773 1.039 1.039 0 01-.771.281z" transform="translate(-7302.091 -9525.475)"/><path id="Path_2589" data-name="Path 2589" class="cls-1" d="M7473.84 9571.6a1.009 1.009 0 01-.78-.316 1.039 1.039 0 01-.284-.712.238.238 0 00-.162-.26.255.255 0 00-.3.126 3.485 3.485 0 01-1.465 1.088 5.8 5.8 0 01-2.338.428 5.374 5.374 0 01-2.263-.464 5.022 5.022 0 01-1.771-1.307 6.144 6.144 0 01-1.159-2.021 7.688 7.688 0 01-.422-2.595v-3.143a6.906 6.906 0 01.493-2.613 6.408 6.408 0 011.394-2.135 6.821 6.821 0 012.131-1.432 6.9 6.9 0 012.721-.529h5.259a1 1 0 01.771.293 1.007 1.007 0 01.287.774v13.762a.976.976 0 01-1.059 1.055zm-1.064-12.529a.312.312 0 00-.353-.353h-2.644a3.474 3.474 0 00-2.735 1.094 3.787 3.787 0 00-.975 2.613v3.5a3.069 3.069 0 00.795 2.183 2.873 2.873 0 002.2.846 3.714 3.714 0 001.646-.329 3.275 3.275 0 001.146-.9 3.8 3.8 0 00.682-1.253 4.318 4.318 0 00.233-1.429z" transform="translate(-7325.672 -9547.604)"/><path id="Path_2590" data-name="Path 2590" class="cls-1" d="M7530.381 9561.022a4.862 4.862 0 01-3.9-1.447 5.969 5.969 0 01-1.249-4.021v-7.054a.316.316 0 00-.351-.353h-1.064a.966.966 0 01-1.055-1.056v-.882a1.061 1.061 0 01.278-.777 1.032 1.032 0 01.776-.284h1.064a.312.312 0 00.351-.35v-2.473a.971.971 0 011.055-1.058h1.062a1.073 1.073 0 01.777.28 1.053 1.053 0 01.278.777v2.473a.311.311 0 00.355.35h2.648a1.027 1.027 0 01.774.284 1.061 1.061 0 01.278.777v.882a.966.966 0 01-1.053 1.056h-2.648a.314.314 0 00-.355.353v6.883a3.433 3.433 0 00.479 1.943 2.047 2.047 0 001.814.7h.711a1.029 1.029 0 01.774.287 1.049 1.049 0 01.278.774v.882a1.063 1.063 0 01-.278.774 1.048 1.048 0 01-.774.281z" transform="translate(-7369.477 -9537.027)"/><path id="Path_2591" data-name="Path 2591" class="cls-1" d="M7573.143 9535.934a1.039 1.039 0 01-.774-.279 1.053 1.053 0 01-.281-.773v-1.764a1.057 1.057 0 01.281-.781 1.07 1.07 0 01.774-.277h1.062a.968.968 0 011.058 1.059v1.764a1.057 1.057 0 01-.28.773 1.038 1.038 0 01-.777.279zm0 18.354a1.062 1.062 0 01-.774-.279 1.08 1.08 0 01-.281-.779v-13.758a1.042 1.042 0 01.281-.775 1.014 1.014 0 01.774-.289h1.062a1.014 1.014 0 01.777.289 1.046 1.046 0 01.28.775v13.758a1.084 1.084 0 01-.28.779 1.062 1.062 0 01-.777.279z" transform="translate(-7405.568 -9530.29)"/><path id="Path_2592" data-name="Path 2592" class="cls-1" d="M7606.659 9570.988a7.925 7.925 0 01-3.223-.65 8.35 8.35 0 01-2.634-1.779 8.592 8.592 0 01-1.782-2.631 8.078 8.078 0 01-.651-3.227 8.164 8.164 0 01.651-3.234 8.441 8.441 0 014.416-4.41 8.31 8.31 0 016.455 0 8.542 8.542 0 012.628 1.785 8.288 8.288 0 011.778 2.625 7.952 7.952 0 01.655 3.234 7.869 7.869 0 01-.655 3.227 8.378 8.378 0 01-4.406 4.41 7.918 7.918 0 01-3.232.65zm0-3a4.764 4.764 0 002.03-.42 5.18 5.18 0 001.627-1.125 5.032 5.032 0 001.076-1.678 5.667 5.667 0 000-4.125 5.2 5.2 0 00-1.076-1.684 5.306 5.306 0 00-1.627-1.123 5.037 5.037 0 00-4.054 0 5.334 5.334 0 00-1.62 1.123 5.193 5.193 0 00-1.08 1.684 5.667 5.667 0 000 4.125 5.026 5.026 0 001.08 1.678 5.206 5.206 0 001.62 1.125 4.786 4.786 0 002.024.418z" transform="translate(-7424.801 -9546.642)"/><path id="Path_2593" data-name="Path 2593" class="cls-1" d="M7684.3 9570.643a.987.987 0 01-1.062-1.057v-8.824a3.559 3.559 0 00-.825-2.348 3.662 3.662 0 00-5.046 0 3.567 3.567 0 00-.834 2.348v8.824a1.049 1.049 0 01-.281.771 1.018 1.018 0 01-.771.285h-1.056a1.073 1.073 0 01-.786-.285 1.061 1.061 0 01-.281-.771v-8.824a6.469 6.469 0 01.476-2.437 6.355 6.355 0 011.331-2.029 6.228 6.228 0 012.045-1.379 7.282 7.282 0 015.363 0 6.42 6.42 0 012.048 1.379 6.458 6.458 0 011.8 4.467v8.824a.991.991 0 01-1.064 1.057z" transform="translate(-7479.667 -9546.642)"/><path id="Path_2594" data-name="Path 2594" class="cls-1" d="M7735.785 9567.113c.4-.471.885-.459 1.443.033a4.933 4.933 0 00.942.586 3.044 3.044 0 001.318.254 2.758 2.758 0 001.587-.42 1.281 1.281 0 00.631-1.125 1.511 1.511 0 00-.544-1.166 10.206 10.206 0 00-2.023-1.232 14.378 14.378 0 01-1.7-.955 6.556 6.556 0 01-1.259-1.08 4.322 4.322 0 01-.786-1.285 4.258 4.258 0 01-.29-1.654 4.625 4.625 0 01.361-1.809 4.316 4.316 0 011-1.471 4.657 4.657 0 011.588-1.01 5.57 5.57 0 012.1-.375 5.721 5.721 0 012.508.529 5.66 5.66 0 011.588 1.057 1.334 1.334 0 01.3.766.946.946 0 01-.3.727l-.631.666a1.52 1.52 0 01-.658.412.724.724 0 01-.687-.271 3.051 3.051 0 00-2.119-.883 2.087 2.087 0 00-1.5.461 1.583 1.583 0 00-.476 1.2 1.455 1.455 0 00.67 1.2 9.428 9.428 0 001.7.953 13.63 13.63 0 011.784.918 7.229 7.229 0 011.357 1.072 4.437 4.437 0 01.882 1.307 4.157 4.157 0 01.317 1.678 4.521 4.521 0 01-.458 2.066 4.729 4.729 0 01-1.223 1.518 4.926 4.926 0 01-1.725.912 6.6 6.6 0 01-1.958.3 7.183 7.183 0 01-2.688-.436 4.43 4.43 0 01-1.688-1.178 1.141 1.141 0 01-.3-.744.955.955 0 01.3-.742z" transform="translate(-7524.667 -9546.642)"/></g></g></svg>