<svg xmlns="http://www.w3.org/2000/svg" width="131.674" height="24.356"><defs><style>.cls-1{fill:#fff}</style></defs><g id="Producers" transform="translate(23.323 -10.394)"><g id="Group_3794" data-name="Group 3794" transform="translate(-23.324 10.394)"><path id="Path_2527" data-name="Path 2527" class="cls-1" d="M2621.626 9549.475a.976.976 0 01-1.059-1.055v-21.887a.976.976 0 011.059-1.059h7.411a6.556 6.556 0 012.683.563 6.771 6.771 0 012.188 1.535 7.59 7.59 0 011.468 2.262 7.02 7.02 0 010 5.414 7.7 7.7 0 01-1.468 2.242 6.654 6.654 0 01-2.188 1.535 6.435 6.435 0 01-2.683.566h-4.764a.311.311 0 00-.354.352v8.477a.976.976 0 01-1.059 1.055zm7.163-13.059a3.908 3.908 0 001.38-.25 3.446 3.446 0 001.2-.742 3.857 3.857 0 00.865-1.215 4.009 4.009 0 00-.865-4.57 3.565 3.565 0 00-1.2-.742 3.993 3.993 0 00-1.38-.246h-4.516a.314.314 0 00-.354.352v7.059a.314.314 0 00.354.355z" transform="translate(-2620.567 -9525.475)"/><path id="Path_2528" data-name="Path 2528" class="cls-1" d="M2688.72 9571.6a.967.967 0 01-1.059-1.059v-9.008a5.985 5.985 0 011.482-4.2 5.32 5.32 0 014.129-1.625h1.271a.983.983 0 011.057 1.066v.879a1.044 1.044 0 01-.28.777 1.079 1.079 0 01-.776.281h-1.059a2.391 2.391 0 00-2 .832 3.386 3.386 0 00-.654 2.168v8.824a1.086 1.086 0 01-.279.781 1.074 1.074 0 01-.776.277z" transform="translate(-2669.659 -9547.601)"/><path id="Path_2529" data-name="Path 2529" class="cls-1" d="M2732.11 9570.994a7.887 7.887 0 01-3.228-.656 8.341 8.341 0 01-2.633-1.777 8.585 8.585 0 01-1.78-2.629 8.335 8.335 0 010-6.465 8.475 8.475 0 011.78-2.625 8.563 8.563 0 012.633-1.785 8.366 8.366 0 016.459 0 8.576 8.576 0 012.628 1.785 8.427 8.427 0 011.781 2.625 8.323 8.323 0 010 6.465 8.537 8.537 0 01-1.781 2.629 8.353 8.353 0 01-2.628 1.777 7.922 7.922 0 01-3.231.656zm0-3a4.748 4.748 0 002.028-.422 5.221 5.221 0 001.626-1.125 5.053 5.053 0 001.074-1.676 5.69 5.69 0 000-4.129 5.193 5.193 0 00-1.074-1.68 5.366 5.366 0 00-1.626-1.129 5.087 5.087 0 00-4.057 0 5.393 5.393 0 00-1.624 1.129 5.163 5.163 0 00-1.075 1.68 5.69 5.69 0 000 4.129 5.025 5.025 0 001.075 1.676 5.246 5.246 0 001.624 1.125 4.761 4.761 0 002.029.418z" transform="translate(-2696.113 -9546.645)"/><path id="Path_2530" data-name="Path 2530" class="cls-1" d="M2803.659 9549.475a6.674 6.674 0 01-2.523-.461 5.908 5.908 0 01-1.961-1.25 5.466 5.466 0 01-1.253-1.91 6.379 6.379 0 01-.441-2.387v-3.875a6.21 6.21 0 01.459-2.387 5.65 5.65 0 013.158-3.152 6.3 6.3 0 012.417-.465h3.5a.311.311 0 00.352-.352v-6.7a.973.973 0 011.06-1.059h1.059a.973.973 0 011.057 1.059v21.887a.972.972 0 01-1.057 1.055zm3.7-12.535a.314.314 0 00-.352-.352h-3.353a2.863 2.863 0 00-3 3v3.875a2.853 2.853 0 00.883 2.18 2.984 2.984 0 002.119.82h3.353a.308.308 0 00.352-.348z" transform="translate(-2750.013 -9525.475)"/><path id="Path_2531" data-name="Path 2531" class="cls-1" d="M2871.64 9556.781a.99.99 0 011.061-1.066h1.06a1.03 1.03 0 01.775.289 1.042 1.042 0 01.284.777v8.813a6.643 6.643 0 01-.46 2.441 6.049 6.049 0 01-1.289 2.027 6.17 6.17 0 01-2.011 1.383 7.2 7.2 0 01-5.332 0 6.4 6.4 0 01-2.028-1.383 5.936 5.936 0 01-1.3-2.027 6.582 6.582 0 01-.458-2.441v-8.812a.982.982 0 011.059-1.066h1.059a.981.981 0 011.055 1.066v8.813a3.668 3.668 0 00.8 2.352 2.972 2.972 0 002.489 1 2.924 2.924 0 002.47-1 3.729 3.729 0 00.774-2.352z" transform="translate(-2797.175 -9547.601)"/><path id="Path_2532" data-name="Path 2532" class="cls-1" d="M2935.521 9567.506a.847.847 0 01.279.7 1.4 1.4 0 01-.315.742 6.266 6.266 0 01-1.853 1.375 6.029 6.029 0 01-2.875.668 7 7 0 01-2.737-.5 5.9 5.9 0 01-1.993-1.383 5.532 5.532 0 01-1.216-2.027 7.308 7.308 0 01-.41-2.437v-3.879a6.757 6.757 0 01.443-2.434 5.907 5.907 0 011.269-2.035 6.286 6.286 0 012-1.379 6.536 6.536 0 012.647-.508 6.18 6.18 0 012.572.508 6.286 6.286 0 011.871 1.254 1.03 1.03 0 01.32.742 1 1 0 01-.32.738l-.668.68a.942.942 0 01-1.445-.035 3.46 3.46 0 00-1.012-.621 3.24 3.24 0 00-1.318-.266 2.824 2.824 0 00-2.435 1.008 3.819 3.819 0 00-.744 2.348v3.879a5.134 5.134 0 00.159 1.289 2.87 2.87 0 00.528 1.078 2.648 2.648 0 00.972.727 3.872 3.872 0 001.52.254 3.084 3.084 0 001.586-.387 6.205 6.205 0 001.06-.734.983.983 0 011.482 0z" transform="translate(-2842.878 -9546.645)"/><path id="Path_2533" data-name="Path 2533" class="cls-1" d="M2988.705 9567.186a.935.935 0 01.3.707 1.251 1.251 0 01-.3.742 6.662 6.662 0 01-2.083 1.617 6.8 6.8 0 01-3.281.742 7.1 7.1 0 01-2.664-.477 5.912 5.912 0 01-2.028-1.324 5.839 5.839 0 01-1.308-1.98 6.283 6.283 0 01-.46-2.395v-4.164a7.153 7.153 0 01.409-2.418 5.575 5.575 0 011.2-1.992 5.668 5.668 0 011.938-1.344 6.621 6.621 0 012.633-.492 6.741 6.741 0 012.646.492 6.036 6.036 0 011.992 1.344 5.767 5.767 0 011.271 1.992 6.684 6.684 0 01.442 2.418v2.117a1.036 1.036 0 01-.283.777 1.048 1.048 0 01-.777.277h-7.941a.316.316 0 00-.352.355v.637a3.339 3.339 0 00.794 2.262 3.116 3.116 0 002.488.91 3.931 3.931 0 002.083-.465 6.22 6.22 0 001.129-.9 1.026 1.026 0 01.776-.371 1.04 1.04 0 01.707.336zm-2.47-6.531a3.593 3.593 0 00-.741-2.289 2.872 2.872 0 00-2.434-.957 2.628 2.628 0 00-2.33.957 3.854 3.854 0 00-.672 2.289v.18a.312.312 0 00.352.348h5.472a.313.313 0 00.354-.348z" transform="translate(-2881.276 -9546.645)"/><path id="Path_2534" data-name="Path 2534" class="cls-1" d="M3039.106 9571.6a1.069 1.069 0 01-.777-.277 1.083 1.083 0 01-.281-.781v-9.008a5.99 5.99 0 011.482-4.2 5.322 5.322 0 014.13-1.625h1.271a1.03 1.03 0 01.775.289 1.04 1.04 0 01.281.777v.879a1.04 1.04 0 01-.281.777 1.072 1.072 0 01-.775.281h-1.059a2.4 2.4 0 00-2 .832 3.4 3.4 0 00-.652 2.168v8.824a.968.968 0 01-1.057 1.059z" transform="translate(-2926.031 -9547.601)"/><path id="Path_2535" data-name="Path 2535" class="cls-1" d="M3074.825 9567.115c.4-.469.884-.461 1.446.031a4.661 4.661 0 00.938.59 3.065 3.065 0 001.32.254 2.761 2.761 0 001.591-.422 1.285 1.285 0 00.631-1.125 1.52 1.52 0 00-.546-1.168 10.158 10.158 0 00-2.027-1.23 14.084 14.084 0 01-1.694-.957 6.37 6.37 0 01-1.253-1.078 4.3 4.3 0 01-.794-1.285 4.408 4.408 0 01-.284-1.652 4.614 4.614 0 01.356-1.809 4.347 4.347 0 011-1.477 4.605 4.605 0 011.588-1 5.45 5.45 0 012.1-.375 5.7 5.7 0 012.5.527 5.409 5.409 0 011.587 1.059 1.281 1.281 0 01.3.762.945.945 0 01-.3.727l-.634.664a1.414 1.414 0 01-.655.414.727.727 0 01-.685-.266 3.033 3.033 0 00-2.118-.887 2.109 2.109 0 00-1.5.457 1.6 1.6 0 00-.475 1.207 1.455 1.455 0 00.669 1.2 9.1 9.1 0 001.692.949 13.97 13.97 0 011.786.922 7.138 7.138 0 011.356 1.07 4.437 4.437 0 01.883 1.309 4.111 4.111 0 01.317 1.68 4.48 4.48 0 01-.46 2.063 4.686 4.686 0 01-1.217 1.52 5.041 5.041 0 01-1.727.914 6.544 6.544 0 01-1.962.3 7.056 7.056 0 01-2.682-.441 4.379 4.379 0 01-1.694-1.176 1.167 1.167 0 01-.3-.742.94.94 0 01.3-.742z" transform="translate(-2952.257 -9546.645)"/></g></g></svg>