<svg xmlns="http://www.w3.org/2000/svg" width="40" height="40"><path d="M20 40A20 20 0 015.859 5.858a20 20 0 1128.282 28.285A19.872 19.872 0 0120 40zm-3.953-17.463l4.636 2.563a3.2 3.2 0 00-.217 1.08 2.974 2.974 0 002.934 2.939 2.934 2.934 0 10-1.792-5.254l-4.694-2.593a3.251 3.251 0 00.154-.958 3.288 3.288 0 00-.154-.958l4.943-2.756a3.036 3.036 0 001.545.434 2.918 2.918 0 100-5.836 2.973 2.973 0 00-2.935 2.932 2.609 2.609 0 00.313 1.295l-4.73 2.656a2.822 2.822 0 00-1.915-.708 2.937 2.937 0 000 5.874 2.866 2.866 0 001.911-.715z" fill="#301464"/></svg>