<svg xmlns="http://www.w3.org/2000/svg" width="25" height="25"><path d="M12.5 0A12.5 12.5 0 1025 12.5 12.5 12.5 0 0012.5 0zm5.707 9.746q.008.185.008.371a8.108 8.108 0 01-8.163 8.163 8.121 8.121 0 01-4.4-1.289 5.835 5.835 0 00.684.04A5.757 5.757 0 009.9 15.8a2.872 2.872 0 01-2.68-1.993 2.86 2.86 0 001.3-.049 2.87 2.87 0 01-2.3-2.812v-.037a2.849 2.849 0 001.3.359 2.872 2.872 0 01-.888-3.83 8.146 8.146 0 005.914 3 2.871 2.871 0 014.889-2.617 5.755 5.755 0 001.822-.7 2.88 2.88 0 01-1.262 1.587 5.722 5.722 0 001.648-.452 5.831 5.831 0 01-1.436 1.49zm0 0" fill="#c3c3c3"/></svg>