<svg xmlns="http://www.w3.org/2000/svg" width="60" height="43.106"><g data-name="Group 3075"><text data-name="Made with" transform="translate(0 9)" fill="#c3c3c3" font-size="9" font-family="Roboto-Medium, Roboto" font-weight="500" letter-spacing="-.05em"><tspan x="0" y="0">MADE WITH</tspan></text><path data-name="Path 1690" d="M57.831 1.738a2.167 2.167 0 00-1.888 1.105 2.167 2.167 0 00-1.889-1.105 2.293 2.293 0 00-2.169 2.309c0 3.008 4.058 5.107 4.058 5.107s4.058-2.1 4.058-5.107a2.293 2.293 0 00-2.17-2.309zm0 0" fill="#ff6243"/></g><g data-name="Group 3074" fill="#c3c3c3"><path data-name="Path 1567" d="M19.056 42.322a.18.18 0 01.059.143.2.2 0 01-.059.131 2.034 2.034 0 01-.489.36 1.726 1.726 0 01-1.319.035 1.417 1.417 0 01-.474-.32 1.462 1.462 0 01-.312-.5 1.7 1.7 0 01-.114-.637v-1.435a1.691 1.691 0 01.114-.631 1.453 1.453 0 011.381-.937 1.626 1.626 0 01.709.151 1.229 1.229 0 01.252.147 1.6 1.6 0 01.18.154.171.171 0 010 .274l-.151.149a.194.194 0 01-.125.069.2.2 0 01-.136-.069 1.758 1.758 0 00-.258-.182.914.914 0 00-.472-.1.868.868 0 00-.37.075.816.816 0 00-.274.208.926.926 0 00-.174.314 1.211 1.211 0 00-.058.383v1.435a1.051 1.051 0 00.232.709.8.8 0 00.643.27 1 1 0 00.485-.107 1.656 1.656 0 00.323-.219.232.232 0 01.133-.058.17.17 0 01.141.058z"/><path data-name="Path 1568" d="M21.145 43.105a1.488 1.488 0 01-.6-.12 1.549 1.549 0 01-.815-.816 1.534 1.534 0 010-1.2 1.575 1.575 0 01.329-.486 1.6 1.6 0 01.486-.33 1.551 1.551 0 011.2 0 1.589 1.589 0 01.487.33 1.565 1.565 0 01.329.486 1.543 1.543 0 010 1.2 1.547 1.547 0 01-.816.816 1.482 1.482 0 01-.6.12m0-.555a.88.88 0 00.376-.079.957.957 0 00.3-.208.941.941 0 00.2-.311 1.058 1.058 0 000-.763.932.932 0 00-.2-.31.967.967 0 00-.3-.209.923.923 0 00-.75 0 .957.957 0 00-.3.209.944.944 0 00-.2.31 1.045 1.045 0 000 .763.937.937 0 00.5.519.879.879 0 00.375.079"/><path data-name="Path 1569" d="M26.856 43.04a.179.179 0 01-.2-.2v-1.7a.618.618 0 00-.033-.2.518.518 0 00-.1-.176.484.484 0 00-.165-.127.549.549 0 00-.246-.049.541.541 0 00-.244.049.481.481 0 00-.166.127.5.5 0 00-.1.176.7.7 0 00-.029.2v1.7a.179.179 0 01-.2.2h-.2a.193.193 0 01-.143-.052.2.2 0 01-.052-.144v-1.7a.626.626 0 00-.033-.2.548.548 0 00-.1-.176.489.489 0 00-.167-.127.521.521 0 00-.237-.049.544.544 0 00-.241.049.477.477 0 00-.171.127.531.531 0 00-.1.176.637.637 0 00-.032.2v1.7a.2.2 0 01-.052.144.2.2 0 01-.145.052h-.2a.193.193 0 01-.143-.052.2.2 0 01-.053-.144v-1.7a1.2 1.2 0 01.081-.44 1.034 1.034 0 01.228-.352 1.068 1.068 0 01.357-.232 1.205 1.205 0 01.464-.085 1.006 1.006 0 01.439.091 1.436 1.436 0 01.324.2.08.08 0 00.123 0 1.045 1.045 0 01.318-.209 1.106 1.106 0 01.453-.085 1.2 1.2 0 01.463.085 1.061 1.061 0 01.357.232 1.022 1.022 0 01.227.352 1.168 1.168 0 01.081.44v1.7a.178.178 0 01-.194.2z"/><path data-name="Path 1570" d="M31.558 43.04a.2.2 0 01-.145-.052.2.2 0 01-.052-.144v-1.7a.619.619 0 00-.032-.2.557.557 0 00-.1-.176.494.494 0 00-.167-.127.538.538 0 00-.244-.049.545.545 0 00-.246.049.49.49 0 00-.261.3.672.672 0 00-.029.2v1.7a.2.2 0 01-.051.144.194.194 0 01-.143.052h-.2a.178.178 0 01-.194-.2v-1.7a.611.611 0 00-.034-.2.532.532 0 00-.1-.176.5.5 0 00-.167-.127.522.522 0 00-.238-.049.55.55 0 00-.242.049.486.486 0 00-.17.127.535.535 0 00-.1.176.625.625 0 00-.033.2v1.7a.2.2 0 01-.052.144.192.192 0 01-.142.052h-.2a.2.2 0 01-.144-.052.2.2 0 01-.052-.144v-1.7a1.168 1.168 0 01.082-.44.983.983 0 01.228-.352 1.042 1.042 0 01.356-.232 1.2 1.2 0 01.463-.085 1.014 1.014 0 01.441.091 1.519 1.519 0 01.324.2.08.08 0 00.123 0 1.018 1.018 0 01.317-.209 1.1 1.1 0 01.453-.085 1.2 1.2 0 01.464.085 1.068 1.068 0 01.357.232 1.03 1.03 0 01.228.352 1.186 1.186 0 01.08.44v1.7a.178.178 0 01-.194.2z"/><path data-name="Path 1571" d="M34.527 40.298a.2.2 0 01.052-.144.194.194 0 01.144-.051h.2a.18.18 0 01.2.2v1.632a1.227 1.227 0 01-.084.45 1.171 1.171 0 01-.239.376 1.116 1.116 0 01-.371.254 1.342 1.342 0 01-.987 0 1.158 1.158 0 01-.375-.254 1.114 1.114 0 01-.242-.376 1.242 1.242 0 01-.085-.45v-1.632a.18.18 0 01.2-.2h.2a.179.179 0 01.2.2v1.632a.688.688 0 00.146.434.553.553 0 00.462.187.54.54 0 00.456-.187.686.686 0 00.143-.434z"/><path data-name="Path 1572" d="M37.922 43.04a.2.2 0 01-.144-.052.2.2 0 01-.052-.144v-1.632a.667.667 0 00-.152-.434.682.682 0 00-.935 0 .668.668 0 00-.153.434v1.632a.179.179 0 01-.2.2h-.2a.194.194 0 01-.144-.052.2.2 0 01-.053-.144v-1.632a1.2 1.2 0 01.089-.451 1.138 1.138 0 01.246-.375 1.168 1.168 0 01.377-.255 1.353 1.353 0 01.993 0 1.144 1.144 0 01.625.63 1.206 1.206 0 01.087.451v1.632a.179.179 0 01-.2.2z"/><path data-name="Path 1573" d="M39.358 39.644a.181.181 0 01-.2-.2v-.326a.181.181 0 01.2-.2h.2a.192.192 0 01.143.053.2.2 0 01.053.144v.326a.189.189 0 01-.053.143.185.185 0 01-.143.053zm0 3.395a.194.194 0 01-.143-.051.2.2 0 01-.052-.144v-2.546a.194.194 0 01.052-.144.2.2 0 01.143-.052h.2a.18.18 0 01.2.2v2.546a.2.2 0 01-.053.144.192.192 0 01-.143.051z"/><path data-name="Path 1574" d="M42.59 42.459a.16.16 0 01.052.13.257.257 0 01-.06.138 1.165 1.165 0 01-.342.254 1.125 1.125 0 01-.533.124 1.265 1.265 0 01-.505-.094 1.064 1.064 0 01-.369-.254 1.052 1.052 0 01-.225-.376 1.356 1.356 0 01-.075-.451v-.714a1.293 1.293 0 01.08-.451 1.107 1.107 0 01.236-.376 1.15 1.15 0 01.369-.254 1.19 1.19 0 01.489-.094 1.126 1.126 0 01.477.094 1.163 1.163 0 01.346.231.189.189 0 010 .275l-.124.124a.174.174 0 01-.268-.006.639.639 0 00-.185-.115.6.6 0 00-.246-.049.522.522 0 00-.45.186.717.717 0 00-.137.434v.718a.958.958 0 00.029.239.53.53 0 00.1.2.5.5 0 00.18.134.693.693 0 00.279.048.574.574 0 00.3-.072 1.129 1.129 0 00.2-.137.184.184 0 01.275 0z"/><path data-name="Path 1575" d="M45.228 43.04a.185.185 0 01-.145-.058.2.2 0 01-.052-.132.046.046 0 00-.03-.049.049.049 0 00-.055.024.655.655 0 01-.272.2 1.07 1.07 0 01-.434.078 1.007 1.007 0 01-.417-.084.949.949 0 01-.327-.242 1.162 1.162 0 01-.214-.375 1.383 1.383 0 01-.08-.479v-.581a1.3 1.3 0 01.092-.483 1.161 1.161 0 01.258-.4 1.25 1.25 0 01.9-.362h.972a.2.2 0 01.145.051.2.2 0 01.051.144v2.546a.2.2 0 01-.051.144.2.2 0 01-.145.052zm-.2-2.318a.059.059 0 00-.066-.066h-.489a.64.64 0 00-.507.2.71.71 0 00-.179.483v.647a.562.562 0 00.147.4.53.53 0 00.407.156.681.681 0 00.3-.062.616.616 0 00.211-.166.73.73 0 00.128-.232.8.8 0 00.043-.263z"/><path data-name="Path 1576" d="M47.582 43.039a.9.9 0 01-.72-.267 1.1 1.1 0 01-.232-.745v-1.305a.058.058 0 00-.065-.066h-.2a.192.192 0 01-.144-.053.185.185 0 01-.051-.142v-.164a.194.194 0 01.051-.144.2.2 0 01.144-.051h.2a.059.059 0 00.065-.067v-.457a.191.191 0 01.052-.144.194.194 0 01.144-.052h.2a.182.182 0 01.2.2v.457c0 .043.02.067.063.067h.49a.2.2 0 01.144.051.2.2 0 01.052.144v.164a.181.181 0 01-.2.2h-.49c-.043 0-.063.022-.063.066v1.272a.635.635 0 00.087.36.378.378 0 00.336.13h.13a.2.2 0 01.144.052.2.2 0 01.052.144v.163a.2.2 0 01-.052.144.2.2 0 01-.144.052z"/><path data-name="Path 1577" d="M48.817 39.644a.188.188 0 01-.144-.053.186.186 0 01-.052-.143v-.326a.192.192 0 01.052-.144.2.2 0 01.144-.053h.2a.182.182 0 01.2.2v.326a.182.182 0 01-.2.2zm0 3.395a.179.179 0 01-.2-.2v-2.546a.192.192 0 01.052-.144.2.2 0 01.144-.052h.2a.2.2 0 01.143.052.2.2 0 01.053.144v2.546a.2.2 0 01-.053.144.194.194 0 01-.143.051z"/><path data-name="Path 1578" d="M51.461 43.105a1.487 1.487 0 01-.6-.12 1.549 1.549 0 01-.486-.329 1.574 1.574 0 01-.329-.487 1.54 1.54 0 010-1.2 1.558 1.558 0 01.815-.816 1.552 1.552 0 011.2 0 1.559 1.559 0 01.816.816 1.544 1.544 0 010 1.2 1.555 1.555 0 01-.816.816 1.486 1.486 0 01-.6.12m0-.555a.886.886 0 00.375-.079.976.976 0 00.3-.208.953.953 0 00.2-.311 1.055 1.055 0 000-.763.944.944 0 00-.2-.31.987.987 0 00-.3-.209.925.925 0 00-.751 0 .982.982 0 00-.3.209.91.91 0 00-.2.31 1.059 1.059 0 000 .763.919.919 0 00.2.311.971.971 0 00.3.208.88.88 0 00.376.079"/><path data-name="Path 1579" d="M55.672 43.04a.18.18 0 01-.2-.2v-1.632a.668.668 0 00-.153-.434.682.682 0 00-.934 0 .666.666 0 00-.153.434v1.632a.2.2 0 01-.053.144.2.2 0 01-.143.052h-.2a.18.18 0 01-.2-.2v-1.632a1.207 1.207 0 01.087-.451 1.156 1.156 0 01.247-.375 1.179 1.179 0 01.377-.255 1.355 1.355 0 01.994 0 1.183 1.183 0 01.378.255 1.108 1.108 0 01.244.375 1.162 1.162 0 01.09.451v1.632a.2.2 0 01-.053.144.2.2 0 01-.143.052z"/><path data-name="Path 1580" d="M56.874 42.386c.073-.086.162-.085.267.008a.954.954 0 00.173.108.568.568 0 00.245.049.513.513 0 00.293-.079.24.24 0 00.118-.208.284.284 0 00-.1-.216 1.852 1.852 0 00-.375-.23 2.526 2.526 0 01-.314-.175 1.152 1.152 0 01-.231-.2.779.779 0 01-.147-.238.811.811 0 01-.052-.307.877.877 0 01.064-.333.85.85 0 01.186-.275.9.9 0 01.293-.186 1.146 1.146 0 01.852.029.975.975 0 01.294.2.244.244 0 01.056.139.176.176 0 01-.056.134l-.117.124a.279.279 0 01-.12.075.136.136 0 01-.128-.049.565.565 0 00-.391-.163.389.389 0 00-.277.084.3.3 0 00-.09.223.267.267 0 00.125.221 1.745 1.745 0 00.313.177 2.543 2.543 0 01.329.169 1.309 1.309 0 01.252.2.808.808 0 01.162.242.743.743 0 01.06.309.83.83 0 01-.085.382.851.851 0 01-.226.28.951.951 0 01-.32.17 1.2 1.2 0 01-.362.055 1.31 1.31 0 01-.5-.081.836.836 0 01-.313-.219.213.213 0 01-.057-.137.184.184 0 01.057-.138z"/><path data-name="Path 1581" d="M21.698 14.461h-1a.921.921 0 00-1 1v1.667a.921.921 0 001 1h1a.923.923 0 001-1v-1.667a.923.923 0 00-1-1"/><path data-name="Path 1582" d="M21.698 20.458h-1a.92.92 0 00-1 1v13.034a.919.919 0 001 1h1a.921.921 0 001-1V21.456a.922.922 0 00-1-1"/><path data-name="Path 1583" d="M37.007 22.652a7.676 7.676 0 00-2.386-1.618 7.526 7.526 0 00-5.858 0 7.66 7.66 0 00-4 4 7.562 7.562 0 000 5.862 7.665 7.665 0 004 4 7.534 7.534 0 005.858 0 7.654 7.654 0 004-4 7.542 7.542 0 000-5.862 7.659 7.659 0 00-1.616-2.383m-1.025 7.185a4.547 4.547 0 01-.978 1.52 4.684 4.684 0 01-1.471 1.025 4.6 4.6 0 01-3.683 0 4.736 4.736 0 01-1.473-1.025 4.555 4.555 0 01-.975-1.52 5.145 5.145 0 010-3.744 4.6 4.6 0 01.975-1.523 4.841 4.841 0 011.473-1.023 4.593 4.593 0 013.683 0 4.787 4.787 0 011.471 1.023 4.594 4.594 0 01.978 1.523 5.136 5.136 0 010 3.744"/><path data-name="Path 1584" d="M45.187 32.661h-.335a1.129 1.129 0 01-.864-.316 1.181 1.181 0 01-.3-.851v-17.6a.92.92 0 00-1-1h-1a.98.98 0 00-.731.265.991.991 0 00-.266.735v17.267a4.874 4.874 0 00.947 3.167 3.752 3.752 0 003.083 1.166h.467a.922.922 0 001-1v-.833a.921.921 0 00-1-1"/><path data-name="Path 1585" d="M58.304 20.716a.974.974 0 00-.721-.262h-4.878a6.353 6.353 0 00-2.521.49 6.287 6.287 0 00-1.983 1.324 5.853 5.853 0 00-1.293 1.979 6.475 6.475 0 00-.456 2.418v2.912a7.087 7.087 0 00.391 2.4 5.773 5.773 0 001.081 1.881 4.705 4.705 0 001.637 1.209 5.06 5.06 0 002.1.426 5.44 5.44 0 002.177-.393 3.242 3.242 0 001.358-1.013.249.249 0 01.28-.114c.145.045.147.44.147.57a.955.955 0 00.261.655.912.912 0 00.72.294h.982a.91.91 0 00.985-.981V21.435a.975.975 0 00-.264-.719m-2.685 8.368a4.082 4.082 0 01-.215 1.325 3.666 3.666 0 01-.635 1.162 3.143 3.143 0 01-1.064.834 3.442 3.442 0 01-1.524.31 2.664 2.664 0 01-2.046-.786 2.844 2.844 0 01-.738-2.027v-3.237a3.527 3.527 0 01.9-2.418 3.21 3.21 0 012.537-1.013h2.458a.287.287 0 01.326.325z"/><path data-name="Path 1586" d="M17.563 20.451H16.18a1.064 1.064 0 00-1.134.805l-3.75 9.986c-.067.239-.178.362-.33.362s-.268-.123-.333-.362L4.64 15.882h4.194a1.1 1.1 0 001.193-1.193v-.6a1.1 1.1 0 00-1.193-1.191H1.226c-.642 0-.93.32-.693.917l8.282 20.772a1.264 1.264 0 00.446.713 1.363 1.363 0 00.746.185h1.881a1.37 1.37 0 00.747-.183 1.289 1.289 0 00.447-.713l5.165-13.215c.177-.619-.041-.923-.683-.923"/></g></svg>