<svg xmlns="http://www.w3.org/2000/svg" width="18" height="18" viewBox="0 0 18 18">
  <path id="phone-rounded-svgrepo-com" d="M6.058,3.44A3.671,3.671,0,0,1,11.906,4l.668,1.2a3.682,3.682,0,0,1-.7,4.349.648.648,0,0,0-.107.346c-.013.264.081.873,1.025,1.818s1.554,1.038,1.818,1.025a.648.648,0,0,0,.346-.107,3.682,3.682,0,0,1,4.349-.7l1.2.668a3.671,3.671,0,0,1,.559,5.848,5.529,5.529,0,0,1-3.6,1.8,12.26,12.26,0,0,1-9.215-3.992A12.26,12.26,0,0,1,4.257,7.038,5.529,5.529,0,0,1,6.058,3.44Zm4.5,1.311a2.133,2.133,0,0,0-3.41-.22A4.018,4.018,0,0,0,5.8,7.1,10.727,10.727,0,0,0,9.34,15.162,10.727,10.727,0,0,0,17.405,18.7a4.017,4.017,0,0,0,2.565-1.35,2.132,2.132,0,0,0-.22-3.409l-1.2-.668a2.144,2.144,0,0,0-2.523.46h0a2.077,2.077,0,0,1-1.345.54A4.056,4.056,0,0,1,11.7,12.8a4.055,4.055,0,0,1-1.476-2.985,2.077,2.077,0,0,1,.54-1.344h0a2.144,2.144,0,0,0,.46-2.523Z" transform="translate(-4.25 -2.251)" fill="#fff" fill-rule="evenodd"/>
</svg>
