<?xml version="1.0" encoding="UTF-8"?>
<svg id="Layer_2" xmlns="http://www.w3.org/2000/svg" viewBox="0 0 124.94 64.52">
  <defs>
    <style>
      .cls-1 {
        fill: #c2d500;
      }
    </style>
  </defs>
  <g id="Layer_2-2" data-name="Layer_2">
    <g id="Group_3816">
      <g id="Group_3814">
        <g id="Group_3813">
          <path id="Path_2612" class="cls-1" d="M45.61,3.38h-2.15c-1.09-.1-2.05.7-2.14,1.79-.01.12-.01.24,0,.36v3.57c-.09,1.09.71,2.05,1.81,2.15.11,0,.23,0,.34,0h2.15c1.09.09,2.05-.71,2.14-1.8.01-.12,0-.23,0-.35v-3.57c.1-1.08-.69-2.05-1.78-2.15-.12-.01-.24-.01-.36,0"/>
          <path id="Path_2613" class="cls-1" d="M45.61,16.26h-2.15c-1.08-.1-2.04.7-2.14,1.78-.01.12-.01.24,0,.36v27.99c-.09,1.09.72,2.05,1.81,2.15.11,0,.22,0,.33,0h2.15c1.09.09,2.05-.72,2.14-1.81,0-.11,0-.23,0-.34v-27.99c.1-1.08-.7-2.04-1.78-2.14-.12-.01-.24-.01-.36,0"/>
          <path id="Path_2614" class="cls-1" d="M76.28,36.39c-.47,1.22-1.19,2.33-2.1,3.26-.9.93-1.97,1.68-3.16,2.2-2.52,1.1-5.39,1.1-7.91,0-1.18-.53-2.26-1.27-3.16-2.2-.91-.94-1.62-2.05-2.1-3.26-1-2.59-1-5.45,0-8.04.48-1.22,1.19-2.33,2.1-3.27.91-.92,1.98-1.67,3.16-2.2,2.52-1.1,5.39-1.1,7.91,0,1.18.53,2.25,1.28,3.16,2.2.91.94,1.62,2.05,2.1,3.27,1.01,2.58,1.01,5.45,0,8.04M78.48,20.97c-1.47-1.47-3.21-2.65-5.12-3.47-4.02-1.7-8.56-1.7-12.58,0-3.86,1.66-6.94,4.73-8.6,8.59-1.7,4.02-1.7,8.56,0,12.58,1.67,3.86,4.74,6.93,8.6,8.59,4.02,1.7,8.56,1.7,12.58,0,3.85-1.67,6.93-4.74,8.59-8.59,1.69-4.02,1.69-8.56,0-12.58-.83-1.91-2.01-3.65-3.48-5.12"/>
          <path id="Path_2615" class="cls-1" d="M96.04,42.45h-.71c-.69.05-1.36-.2-1.86-.67-.45-.5-.68-1.16-.65-1.83V2.16c.1-1.09-.7-2.05-1.79-2.15-.12-.01-.24-.01-.35,0h-2.15c-.58-.03-1.15.17-1.57.57-.4.42-.61,1-.58,1.58v37.07c-.13,2.43.59,4.84,2.04,6.8,1.36,1.67,3.57,2.51,6.61,2.51h1c1.09.09,2.05-.72,2.15-1.81,0-.11,0-.23,0-.34v-1.79c.03-.58-.17-1.15-.57-1.58-.42-.4-.99-.61-1.58-.58"/>
          <path id="Path_2616" class="cls-1" d="M118.43,34.78c0,.97-.15,1.93-.45,2.85-.3.91-.77,1.75-1.37,2.49-.62.75-1.4,1.36-2.29,1.79-1.03.47-2.15.7-3.27.66-1.64.09-3.24-.52-4.39-1.68-1.08-1.19-1.65-2.75-1.59-4.35v-6.96c-.03-1.91.66-3.77,1.94-5.19,1.4-1.5,3.4-2.3,5.45-2.18h5.27c.34-.05.65.18.7.52,0,.06,0,.12,0,.18v11.86ZM124.2,16.82c-.42-.39-.98-.6-1.55-.56h-10.47c-1.86-.02-3.7.34-5.42,1.05-1.59.67-3.03,1.64-4.25,2.85-1.21,1.21-2.15,2.66-2.78,4.25-.65,1.65-.99,3.41-.98,5.19v6.25c-.02,1.75.26,3.5.84,5.16.51,1.48,1.3,2.85,2.33,4.04.97,1.11,2.17,2,3.51,2.59,1.42.62,2.95.93,4.5.92,1.6.04,3.19-.25,4.67-.84,1.15-.46,2.15-1.21,2.92-2.18.12-.21.37-.31.6-.24.31.09.32.94.32,1.22,0,.53.2,1.03.56,1.41.39.43.96.66,1.54.63h2.11c.57.03,1.13-.17,1.55-.56.39-.42.59-.98.56-1.55v-28.07c.03-.57-.17-1.13-.56-1.54"/>
          <path id="Path_2617" class="cls-1" d="M36.74,16.24h-2.97c-1.13-.11-2.16.63-2.43,1.73l-8.05,21.44c-.14.52-.38.78-.71.78s-.58-.26-.72-.78L8.99,6.44h9c1.3.11,2.45-.85,2.56-2.15.01-.14.01-.27,0-.41v-1.28c.11-1.3-.85-2.45-2.16-2.56-.14-.01-.27-.01-.41,0H1.66C.29.04-.33.73.17,2l17.78,44.6c.14.6.47,1.14.95,1.53.49.28,1.04.42,1.61.39h4.03c.56.02,1.12-.12,1.61-.4.48-.39.81-.93.95-1.53l11.09-28.37c.38-1.33-.09-1.99-1.47-1.99"/>
        </g>
      </g>
      <g id="Group_3815">
        <path id="Path_2618" class="cls-1" d="M90.5,64.38c-.21.02-.4-.14-.42-.35,0-.02,0-.05,0-.07v-8.67c0-.11.03-.22.11-.31.08-.08.19-.12.31-.11h4.61c.21-.02.4.14.42.35,0,.02,0,.04,0,.07v.42c0,.11-.03.22-.11.31-.08.08-.19.12-.31.11h-3.56c-.07,0-.13.04-.14.11,0,.01,0,.02,0,.03v2.52c0,.07.04.13.1.14.01,0,.02,0,.04,0h3.28c.11,0,.23.03.31.11.08.08.12.19.11.31v.42c.02.21-.14.4-.36.42-.02,0-.04,0-.06,0h-3.28c-.07,0-.13.04-.14.1,0,.01,0,.02,0,.04v2.65c0,.07.04.13.11.14.01,0,.02,0,.03,0h3.84c.11,0,.23.03.31.11.08.08.12.19.11.31v.42c.02.21-.13.4-.34.42-.02,0-.05,0-.07,0h-4.89Z"/>
        <path id="Path_2619" class="cls-1" d="M99.23,64.38c-.11,0-.22-.02-.31-.07-.1-.08-.17-.18-.19-.31l-1.92-5.52c-.05-.09-.04-.2.02-.29.07-.08.18-.12.28-.11h.52c.22-.02.42.12.48.33l1.33,4.15c.03.1.08.15.14.15s.11-.05.14-.15l1.33-4.15c.05-.21.26-.36.48-.33h.52c.1,0,.21.03.28.11.06.09.06.2.01.29l-1.92,5.52c-.02.12-.09.23-.19.31-.1.05-.2.08-.31.07h-.67Z"/>
        <path id="Path_2620" class="cls-1" d="M108,63.01c.08.07.12.17.12.28,0,.11-.05.21-.12.29-.23.27-.51.49-.82.64-.4.21-.85.31-1.3.29-.36,0-.72-.06-1.06-.19-.3-.12-.57-.3-.8-.52-.22-.22-.4-.49-.52-.78-.12-.3-.18-.62-.18-.95v-1.65c0-.33.05-.65.16-.96.1-.29.26-.56.48-.79.22-.23.48-.41.77-.53.33-.14.68-.21,1.04-.2.36,0,.72.06,1.05.2.3.12.56.3.79.53.22.23.39.49.5.79.12.31.18.63.17.96v.84c0,.11-.03.22-.11.31-.08.08-.19.12-.31.11h-3.14c-.07,0-.13.04-.14.11,0,.01,0,.02,0,.03v.25c-.01.33.1.65.31.9.26.26.62.39.98.36.29.02.57-.05.82-.19.16-.1.31-.22.45-.36.13-.17.36-.2.53-.07.02.02.04.04.06.06l.27.23ZM107.03,60.43c0-.33-.09-.65-.29-.91-.24-.27-.6-.41-.96-.38-.35-.04-.7.1-.92.38-.18.27-.28.58-.27.91v.07c0,.07.04.13.11.14.01,0,.02,0,.03,0h2.17c.07,0,.13-.04.14-.1,0-.01,0-.02,0-.03v-.07Z"/>
        <path id="Path_2621" class="cls-1" d="M114.15,64.38c-.21.02-.4-.14-.42-.35,0-.02,0-.04,0-.06v-3.49c0-.34-.11-.67-.33-.93-.56-.53-1.44-.53-2,0-.22.26-.33.59-.33.93v3.49c.02.21-.14.4-.35.42-.02,0-.04,0-.07,0h-.42c-.21.02-.4-.14-.42-.35,0-.02,0-.05,0-.07v-3.49c0-.33.06-.66.19-.96.24-.61.73-1.1,1.33-1.35.68-.27,1.44-.27,2.12,0,.3.13.58.31.81.55.23.23.4.5.52.8.13.31.19.63.19.96v3.49c.02.21-.14.4-.36.42-.02,0-.04,0-.06,0h-.42Z"/>
        <path id="Path_2622" class="cls-1" d="M119.2,64.38c-.57.05-1.14-.16-1.54-.57-.36-.45-.53-1.02-.5-1.59v-2.79c0-.07-.04-.13-.11-.14-.01,0-.02,0-.03,0h-.42c-.21.02-.4-.13-.42-.35,0-.02,0-.05,0-.07v-.35c0-.11.03-.22.11-.31.08-.08.19-.12.31-.11h.42c.07,0,.13-.04.14-.1,0-.01,0-.02,0-.04v-.98c0-.11.03-.22.11-.31.08-.08.2-.12.31-.11h.42c.11,0,.22.03.31.11.08.08.12.19.11.31v.98c0,.07.04.13.11.14.01,0,.02,0,.04,0h1.05c.11,0,.23.03.31.11.08.08.12.19.11.31v.35c.02.21-.14.4-.35.42-.02,0-.05,0-.07,0h-1.05c-.07,0-.13.04-.14.11,0,.01,0,.02,0,.03v2.73c-.01.27.05.54.19.77.18.21.45.31.72.28h.28c.11,0,.23.03.31.11.08.08.12.19.11.31v.35c.02.21-.14.4-.35.42-.02,0-.05,0-.07,0h-.41Z"/>
        <path id="Path_2623" class="cls-1" d="M121.33,62.99c.16-.19.35-.18.57.01.11.09.24.17.37.23.16.07.34.11.52.1.22,0,.44-.05.63-.17.16-.09.25-.26.25-.45,0-.18-.08-.35-.22-.46-.25-.19-.51-.36-.8-.49-.23-.11-.46-.24-.67-.38-.18-.12-.35-.26-.5-.43-.13-.15-.24-.32-.31-.51-.08-.21-.12-.43-.11-.66,0-.25.05-.49.14-.71.09-.22.23-.42.4-.58.18-.17.39-.31.63-.4.27-.1.55-.15.83-.15.34,0,.68.07.99.21.23.1.44.24.63.42.07.08.11.19.12.3,0,.11-.04.21-.12.29l-.25.26c-.07.08-.16.13-.26.16-.1.02-.21-.02-.27-.11-.22-.22-.52-.35-.84-.35-.21-.02-.43.05-.6.18-.13.12-.2.3-.19.48,0,.19.1.37.27.47.21.15.43.28.67.38.24.1.48.22.71.36.2.12.38.26.54.42.15.15.26.33.35.52.09.21.13.44.12.67,0,.28-.06.56-.18.82-.12.23-.28.44-.48.6-.2.16-.43.29-.68.36-.25.08-.51.12-.78.12-.36.01-.72-.05-1.06-.17-.26-.1-.49-.26-.67-.47-.07-.08-.11-.18-.12-.29,0-.11.04-.22.12-.29l.25-.3Z"/>
      </g>
    </g>
  </g>
</svg>