<?xml version="1.0" encoding="UTF-8"?>
<svg id="Layer_2" xmlns="http://www.w3.org/2000/svg" viewBox="0 0 124.78 64.52">
  <defs>
    <style>
      .cls-1 {
        fill: #00c4b3;
      }
    </style>
  </defs>
  <g id="Layer_2-2" data-name="Layer_2">
    <g id="Group_3812">
      <g id="Group_3810">
        <g id="Group_3809">
          <path id="Path_2595" class="cls-1" d="M45.62,3.38h-2.15c-1.09-.1-2.05.71-2.14,1.79-.01.12-.01.24,0,.36v3.57c-.09,1.09.71,2.05,1.81,2.15.11,0,.22,0,.34,0h2.15c1.09.09,2.05-.71,2.14-1.8.01-.12.01-.23,0-.35v-3.57c.1-1.08-.69-2.04-1.77-2.15-.12-.01-.25-.01-.37,0"/>
          <path id="Path_2596" class="cls-1" d="M45.62,16.26h-2.15c-1.08-.1-2.04.7-2.14,1.78-.01.12-.01.24,0,.35v27.99c-.09,1.09.72,2.05,1.81,2.15.11,0,.22,0,.33,0h2.15c1.09.09,2.05-.71,2.14-1.8,0-.11,0-.23,0-.34v-27.99c.1-1.08-.7-2.04-1.78-2.14-.12-.01-.24-.01-.37,0"/>
          <path id="Path_2597" class="cls-1" d="M76.28,36.39c-.47,1.22-1.19,2.33-2.1,3.26-.9.93-1.97,1.68-3.16,2.2-2.52,1.1-5.39,1.1-7.91,0-1.18-.53-2.26-1.27-3.16-2.2-.91-.94-1.62-2.05-2.1-3.26-1-2.59-1-5.45,0-8.04.48-1.22,1.19-2.33,2.1-3.27.91-.92,1.98-1.67,3.16-2.2,2.52-1.1,5.39-1.1,7.91,0,1.18.53,2.25,1.28,3.16,2.2.91.94,1.62,2.05,2.1,3.27,1.01,2.58,1.01,5.45,0,8.04M78.48,20.97c-1.47-1.47-3.21-2.65-5.12-3.47-4.02-1.7-8.56-1.7-12.58,0-3.86,1.66-6.94,4.73-8.6,8.59-1.7,4.02-1.7,8.56,0,12.58,1.67,3.86,4.74,6.93,8.6,8.59,4.02,1.7,8.55,1.7,12.58,0,3.85-1.67,6.93-4.74,8.59-8.59,1.69-4.02,1.69-8.56,0-12.58-.83-1.91-2-3.65-3.48-5.12"/>
          <path id="Path_2598" class="cls-1" d="M96.04,42.45h-.71c-.69.05-1.36-.2-1.86-.67-.45-.5-.69-1.16-.65-1.83V2.16c.04-.58-.17-1.15-.57-1.58-.42-.39-.99-.6-1.57-.57h-2.15c-1.09-.09-2.05.71-2.15,1.81,0,.11,0,.23,0,.34v37.07c-.13,2.43.59,4.84,2.04,6.8,1.36,1.67,3.56,2.5,6.61,2.51h1c1.09.09,2.05-.71,2.15-1.81,0-.11,0-.23,0-.34v-1.79c.03-.58-.17-1.15-.57-1.58-.42-.4-.99-.61-1.58-.58"/>
          <path id="Path_2599" class="cls-1" d="M118.44,34.78c0,.97-.15,1.93-.45,2.85-.3.91-.77,1.75-1.37,2.49-.62.75-1.4,1.36-2.29,1.79-1.03.47-2.14.69-3.27.66-1.64.09-3.24-.52-4.39-1.68-1.08-1.19-1.65-2.75-1.59-4.35v-6.96c-.03-1.91.66-3.77,1.94-5.19,1.4-1.5,3.4-2.3,5.45-2.18h5.28c.34-.05.65.18.7.52,0,.06,0,.12,0,.18v11.86ZM124.2,16.82c-.42-.39-.98-.6-1.55-.56h-10.47c-1.86-.02-3.7.34-5.42,1.05-1.59.67-3.03,1.64-4.25,2.85-1.21,1.21-2.15,2.66-2.78,4.25-.65,1.65-.99,3.41-.97,5.19v6.25c-.02,1.75.26,3.5.83,5.16.51,1.48,1.3,2.85,2.33,4.04.97,1.11,2.17,1.99,3.51,2.59,1.42.62,2.95.93,4.5.92,1.6.04,3.19-.25,4.67-.84,1.15-.46,2.16-1.21,2.92-2.18.12-.21.37-.31.6-.24.31.09.32.94.32,1.22,0,.53.2,1.03.56,1.41.39.43.96.66,1.54.63h2.11c.57.03,1.13-.17,1.55-.56.39-.42.59-.98.56-1.55v-28.07c.03-.57-.17-1.13-.56-1.54"/>
          <path id="Path_2600" class="cls-1" d="M36.74,16.24h-2.97c-1.13-.11-2.16.63-2.44,1.73l-8.05,21.44c-.14.52-.38.78-.71.78s-.58-.26-.72-.78L8.99,6.44h9c1.3.11,2.45-.85,2.56-2.15.01-.14.01-.27,0-.41v-1.28c.11-1.3-.85-2.45-2.16-2.56-.14-.01-.27-.01-.41,0H1.66C.29.04-.33.73.17,2l17.78,44.6c.14.6.47,1.14.95,1.53.49.28,1.04.42,1.61.39h4.03c.56.02,1.12-.12,1.61-.4.48-.39.81-.93.95-1.53l11.1-28.37c.38-1.33-.09-1.99-1.47-1.99"/>
        </g>
      </g>
      <g id="Group_3811">
        <path id="Path_2601" class="cls-1" d="M68.93,64.38c-.11,0-.22-.03-.31-.11-.08-.08-.12-.19-.11-.31v-8.67c-.02-.21.14-.4.35-.42.02,0,.05,0,.07,0h.49c.11,0,.22.03.31.11.08.08.12.19.11.31v8.67c0,.11-.03.22-.11.31-.08.08-.19.12-.31.11h-.49Z"/>
        <path id="Path_2602" class="cls-1" d="M75.98,64.38c-.11,0-.22-.03-.31-.11-.08-.08-.12-.19-.11-.31v-3.49c0-.34-.11-.67-.33-.93-.56-.53-1.44-.53-2,0-.22.26-.33.59-.33.93v3.49c0,.11-.03.22-.11.31-.08.08-.19.12-.31.11h-.42c-.11,0-.22-.03-.31-.11-.08-.08-.12-.19-.11-.31v-3.49c0-.33.06-.66.19-.96.24-.61.72-1.1,1.33-1.35.68-.27,1.44-.27,2.12,0,.61.25,1.09.74,1.34,1.35.12.31.19.63.19.96v3.49c0,.11-.03.22-.11.31-.08.08-.19.12-.31.11h-.42Z"/>
        <path id="Path_2603" class="cls-1" d="M81.03,64.38c-.57.05-1.14-.16-1.54-.57-.36-.45-.53-1.02-.5-1.59v-2.79c0-.07-.04-.13-.11-.14-.01,0-.02,0-.03,0h-.42c-.11,0-.23-.03-.31-.11-.08-.08-.12-.19-.11-.31v-.35c-.02-.21.14-.4.36-.42.02,0,.04,0,.06,0h.42c.07,0,.13-.04.14-.1,0-.01,0-.02,0-.04v-.98c0-.11.03-.22.11-.31.08-.08.2-.12.31-.11h.42c.21-.02.4.14.42.35,0,.02,0,.04,0,.06v.98c0,.07.04.13.11.14.01,0,.02,0,.04,0h1.04c.22-.02.4.14.42.36,0,.02,0,.04,0,.06v.35c0,.11-.03.23-.11.31-.08.08-.19.12-.31.11h-1.04c-.07,0-.13.04-.14.11,0,.01,0,.02,0,.03v2.73c-.01.27.05.54.19.77.18.21.45.31.72.28h.28c.22-.02.41.15.42.36,0,.02,0,.04,0,.06v.35c.02.21-.14.4-.36.42-.02,0-.04,0-.06,0h-.4Z"/>
        <path id="Path_2604" class="cls-1" d="M87.65,63.01c.08.07.12.17.12.28,0,.11-.05.21-.12.29-.23.27-.51.48-.83.64-.4.21-.85.31-1.3.29-.36,0-.72-.06-1.05-.19-.3-.12-.57-.3-.8-.52-.22-.22-.4-.49-.52-.78-.12-.3-.18-.62-.18-.95v-1.65c0-.33.05-.65.16-.96.1-.29.26-.56.47-.79.22-.23.48-.41.77-.53.33-.14.69-.21,1.04-.2.36,0,.71.06,1.05.2.3.12.56.3.79.53.22.23.39.49.5.79.12.31.17.63.17.96v.84c.02.21-.14.4-.35.42-.02,0-.05,0-.07,0h-3.15c-.07,0-.13.04-.14.11,0,.01,0,.02,0,.04v.25c-.01.33.1.65.31.9.26.26.62.39.99.36.29.02.57-.05.83-.19.16-.1.31-.22.45-.36.08-.09.19-.15.31-.15.11,0,.21.05.28.13l.27.23ZM86.67,60.43c0-.33-.09-.65-.29-.91-.24-.27-.6-.41-.96-.38-.35-.04-.7.1-.92.38-.18.27-.27.58-.26.91v.07c0,.07.04.13.11.14.01,0,.02,0,.03,0h2.17c.07,0,.13-.04.14-.11,0-.01,0-.02,0-.03v-.07Z"/>
        <path id="Path_2605" class="cls-1" d="M89.89,64.38c-.11,0-.23-.03-.31-.11-.08-.08-.12-.19-.11-.31v-3.57c-.02-.61.19-1.21.59-1.66.42-.44,1.02-.68,1.63-.64h.5c.21-.02.4.14.42.36,0,.02,0,.04,0,.07v.35c0,.11-.03.22-.11.31-.08.08-.19.12-.31.11h-.42c-.3-.02-.59.1-.79.33-.18.25-.27.55-.26.86v3.49c0,.11-.03.22-.11.31-.08.08-.19.12-.31.11h-.41Z"/>
        <path id="Path_2606" class="cls-1" d="M97.92,64.38c-.12,0-.23-.04-.31-.12-.07-.08-.11-.18-.11-.28,0-.04-.02-.08-.06-.1-.05-.02-.1,0-.12.05-.15.19-.35.34-.58.43-.29.12-.61.18-.93.17-.31,0-.61-.06-.89-.18-.27-.12-.51-.29-.7-.52-.2-.23-.36-.51-.46-.8-.11-.33-.17-.68-.17-1.03v-1.24c0-.35.06-.71.19-1.04.12-.32.31-.6.55-.84s.53-.43.85-.57c.34-.14.71-.21,1.07-.21h2.08c.11,0,.23.03.31.11.08.08.12.19.11.31v5.45c0,.11-.03.22-.11.31-.08.08-.19.12-.31.11h-.42ZM97.5,59.42c0-.07-.04-.13-.11-.14-.01,0-.02,0-.03,0h-1.05c-.41-.02-.8.13-1.08.43-.25.28-.39.65-.38,1.04v1.38c-.01.32.1.63.32.86.23.23.55.35.87.33.22,0,.45-.04.65-.13.18-.08.33-.21.46-.36.12-.15.21-.32.27-.5.06-.18.09-.37.09-.57v-2.36Z"/>
        <path id="Path_2607" class="cls-1" d="M104.69,63.14c.08.07.12.17.11.28-.01.11-.05.21-.12.29-.21.23-.46.41-.73.55-.35.18-.74.27-1.14.26-.37,0-.74-.06-1.08-.2-.3-.12-.57-.31-.79-.55-.22-.23-.38-.5-.48-.8-.11-.31-.16-.64-.16-.97v-1.54c0-.33.06-.66.17-.96.11-.3.28-.57.5-.8.23-.23.49-.42.79-.55.33-.14.69-.21,1.05-.2.35,0,.7.06,1.02.2.28.12.53.29.74.5.16.16.17.41.01.57h-.01s-.26.28-.26.28c-.14.16-.37.17-.53.04-.02-.01-.03-.03-.05-.05-.12-.1-.25-.19-.4-.25-.17-.07-.34-.1-.52-.1-.37-.03-.73.12-.96.4-.2.27-.3.6-.3.93v1.54c0,.17.02.34.06.51.04.16.11.3.21.43.1.12.24.22.38.29.19.07.4.11.6.1.22,0,.44-.05.63-.15.15-.08.29-.18.42-.29.14-.16.39-.18.55-.03.01.01.02.02.03.03l.26.24Z"/>
        <path id="Path_2608" class="cls-1" d="M108.54,64.38c-.57.05-1.14-.16-1.54-.57-.36-.45-.53-1.02-.5-1.59v-2.79c0-.07-.04-.13-.11-.14-.01,0-.02,0-.03,0h-.42c-.11,0-.23-.03-.31-.11-.08-.08-.12-.19-.11-.31v-.35c-.02-.21.14-.4.35-.42.02,0,.05,0,.07,0h.42c.07,0,.13-.04.14-.1,0-.01,0-.02,0-.04v-.98c0-.11.03-.22.11-.31.08-.08.2-.12.31-.11h.42c.21-.02.4.14.42.35,0,.02,0,.05,0,.07v.98c0,.07.04.13.11.14.01,0,.02,0,.04,0h1.05c.21-.02.4.14.42.36,0,.02,0,.04,0,.06v.35c0,.11-.03.23-.11.31-.08.08-.19.12-.31.11h-1.05c-.07,0-.13.04-.14.11,0,.01,0,.02,0,.03v2.73c-.01.27.05.54.19.77.18.21.45.31.72.28h.28c.22-.02.4.14.42.36,0,.02,0,.04,0,.06v.35c0,.11-.03.22-.11.31-.08.08-.19.12-.31.11h-.4Z"/>
        <path id="Path_2609" class="cls-1" d="M111.18,57.12c-.11,0-.22-.03-.31-.11-.08-.08-.12-.19-.11-.31v-.7c-.02-.21.13-.4.34-.42.02,0,.05,0,.07,0h.42c.21-.02.4.14.42.35,0,.02,0,.05,0,.07v.7c0,.11-.03.22-.11.31-.08.08-.19.12-.31.11h-.42ZM111.18,64.38c-.11,0-.22-.03-.31-.11-.08-.08-.12-.19-.11-.31v-5.45c0-.11.03-.22.11-.31.08-.08.19-.12.31-.11h.42c.11,0,.22.03.31.11.08.08.12.19.11.31v5.45c0,.11-.04.22-.11.31-.08.08-.19.12-.31.11h-.42Z"/>
        <path id="Path_2610" class="cls-1" d="M115.72,64.38c-.11,0-.22-.02-.32-.07-.1-.07-.17-.18-.19-.31l-1.92-5.52c-.05-.09-.04-.2.01-.29.07-.08.18-.11.28-.11h.51c.22-.02.42.12.48.33l1.33,4.15c.03.1.08.15.14.15s.11-.05.14-.15l1.33-4.15c.05-.21.25-.36.47-.33h.52c.1,0,.21.03.28.11.06.09.06.2.01.29l-1.92,5.52c-.02.12-.09.23-.19.31-.1.05-.2.08-.31.07h-.67Z"/>
        <path id="Path_2611" class="cls-1" d="M124.5,63.01c.08.07.12.17.12.28,0,.11-.05.21-.12.29-.23.27-.51.49-.83.64-.4.21-.85.31-1.3.29-.36,0-.72-.06-1.05-.19-.3-.12-.57-.3-.8-.52-.23-.22-.4-.49-.52-.78-.12-.3-.18-.62-.18-.95v-1.65c0-.33.05-.65.16-.96.1-.29.26-.56.48-.79.22-.23.48-.41.77-.53.33-.14.68-.21,1.04-.2.36,0,.72.06,1.05.2.29.12.56.3.79.53.22.23.39.49.5.79.12.31.18.63.18.96v.84c0,.11-.03.23-.11.31-.08.08-.19.12-.31.11h-3.14c-.07,0-.13.04-.14.11,0,.01,0,.02,0,.04v.25c-.01.33.1.65.32.9.26.26.62.39.98.36.29.02.57-.05.82-.19.16-.1.31-.22.45-.36.08-.09.19-.15.31-.15.11,0,.21.05.28.13l.27.23ZM123.52,60.43c0-.33-.09-.65-.29-.91-.24-.27-.6-.41-.96-.38-.35-.04-.7.1-.92.38-.18.27-.28.58-.27.91v.07c0,.07.04.13.11.14.01,0,.02,0,.03,0h2.17c.07,0,.13-.04.14-.11,0-.01,0-.02,0-.03v-.07Z"/>
      </g>
    </g>
  </g>
</svg>