<?xml version="1.0" encoding="UTF-8"?>
<svg id="Layer_2" xmlns="http://www.w3.org/2000/svg" viewBox="0 0 125.33 64.52">
  <defs>
    <style>
      .cls-1 {
        fill: #61a60e;
      }
    </style>
  </defs>
  <g id="Layer_2-2" data-name="Layer_2">
    <g id="Group_3804">
      <g id="Group_3802">
        <g id="Group_3801">
          <path id="Path_2561" class="cls-1" d="M45.62,3.38h-2.15c-1.09-.1-2.05.7-2.14,1.79-.01.12-.01.24,0,.36v3.57c-.09,1.09.71,2.05,1.81,2.15.11,0,.23,0,.34,0h2.15c1.09.09,2.05-.71,2.14-1.8,0-.12,0-.23,0-.35v-3.57c.1-1.08-.69-2.05-1.78-2.15-.12-.01-.24-.01-.36,0"/>
          <path id="Path_2562" class="cls-1" d="M45.62,16.26h-2.15c-1.08-.1-2.04.7-2.14,1.78-.01.12-.01.24,0,.36v27.99c-.09,1.09.72,2.05,1.81,2.15.11,0,.22,0,.33,0h2.15c1.09.09,2.05-.72,2.14-1.81,0-.11,0-.23,0-.34v-27.99c.1-1.08-.7-2.04-1.78-2.14-.12-.01-.24-.01-.36,0"/>
          <path id="Path_2563" class="cls-1" d="M76.28,36.39c-.47,1.22-1.19,2.33-2.1,3.26-.9.93-1.97,1.68-3.16,2.2-2.52,1.1-5.39,1.1-7.91,0-1.18-.53-2.26-1.27-3.16-2.2-.91-.94-1.62-2.05-2.1-3.26-1-2.59-1-5.45,0-8.04.48-1.22,1.19-2.33,2.1-3.27.91-.92,1.98-1.67,3.16-2.2,2.52-1.1,5.39-1.1,7.91,0,1.18.53,2.25,1.28,3.16,2.2.91.94,1.62,2.05,2.1,3.27,1.01,2.58,1.01,5.45,0,8.04M78.49,20.97c-1.47-1.47-3.21-2.65-5.12-3.47-4.02-1.7-8.56-1.7-12.58,0-3.86,1.66-6.94,4.73-8.6,8.59-1.7,4.02-1.7,8.56,0,12.58,1.67,3.86,4.74,6.93,8.6,8.59,4.02,1.7,8.56,1.7,12.58,0,3.85-1.67,6.93-4.74,8.59-8.59,1.69-4.02,1.69-8.56,0-12.58-.83-1.91-2.01-3.65-3.48-5.12"/>
          <path id="Path_2564" class="cls-1" d="M96.04,42.45h-.71c-.69.05-1.36-.2-1.86-.67-.45-.5-.69-1.16-.65-1.83V2.16c.1-1.09-.7-2.05-1.79-2.15-.12-.01-.24-.01-.35,0h-2.15c-1.09-.09-2.05.71-2.15,1.8-.01.11,0,.23,0,.34v37.07c-.13,2.43.59,4.84,2.04,6.8,1.36,1.67,3.57,2.51,6.61,2.51h1c1.09.09,2.05-.71,2.15-1.81,0-.11,0-.23,0-.34v-1.79c.03-.58-.17-1.15-.57-1.58-.42-.4-.99-.61-1.58-.58"/>
          <path id="Path_2565" class="cls-1" d="M118.44,34.78c0,.97-.15,1.93-.45,2.85-.3.91-.77,1.75-1.37,2.49-.62.75-1.4,1.36-2.29,1.79-1.03.47-2.15.69-3.27.66-1.64.09-3.24-.52-4.39-1.68-1.08-1.19-1.65-2.75-1.59-4.35v-6.96c-.03-1.91.66-3.77,1.94-5.19,1.4-1.5,3.4-2.3,5.45-2.18h5.27c.34-.05.65.18.7.52,0,.06,0,.12,0,.18v11.86ZM124.21,16.82c-.42-.39-.98-.6-1.55-.56h-10.47c-1.86-.02-3.7.34-5.42,1.05-1.58.67-3.03,1.64-4.25,2.85-1.21,1.21-2.15,2.66-2.78,4.25-.65,1.65-.99,3.41-.98,5.19v6.25c-.02,1.75.26,3.5.83,5.16.51,1.48,1.3,2.85,2.33,4.04.97,1.11,2.17,2,3.51,2.59,1.42.62,2.95.93,4.5.92,1.6.04,3.19-.25,4.67-.84,1.15-.46,2.15-1.21,2.92-2.18.12-.21.37-.31.6-.24.31.09.32.94.32,1.22,0,.53.2,1.03.56,1.41.39.43.96.66,1.54.63h2.11c.57.03,1.13-.17,1.55-.56.39-.42.59-.98.56-1.55v-28.07c.03-.57-.17-1.13-.56-1.54"/>
          <path id="Path_2566" class="cls-1" d="M36.74,16.24h-2.97c-1.13-.11-2.16.63-2.43,1.73l-8.05,21.44c-.14.52-.38.78-.71.78s-.58-.26-.72-.78L8.99,6.44h9c1.3.11,2.45-.85,2.56-2.15.01-.14.01-.27,0-.41v-1.28c.11-1.3-.85-2.45-2.16-2.56-.14-.01-.27-.01-.41,0H1.66C.29.04-.33.73.17,2l17.78,44.6c.14.6.47,1.14.95,1.53.49.28,1.04.42,1.61.39h4.03c.56.02,1.12-.12,1.61-.4.48-.39.81-.93.95-1.53l11.1-28.37c.38-1.33-.09-1.99-1.47-1.99"/>
        </g>
      </g>
      <g id="Group_3803">
        <path id="Path_2567" class="cls-1" d="M87.05,61.31c0,.45-.08.89-.25,1.31-.15.38-.39.73-.69,1.01-.3.28-.66.51-1.04.66-.85.32-1.78.32-2.63,0-.39-.15-.74-.37-1.04-.66-.3-.29-.53-.63-.68-1.01-.17-.41-.25-.86-.25-1.31v-3.35c0-.45.08-.89.25-1.31.15-.38.39-.73.68-1.01.3-.28.66-.51,1.04-.66.85-.32,1.78-.32,2.63,0,.39.15.74.37,1.04.66.3.29.53.63.69,1.01.17.42.25.86.25,1.31v3.35ZM85.72,57.96c.02-.51-.16-1.01-.5-1.4-.83-.75-2.08-.75-2.91,0-.34.39-.52.89-.5,1.4v3.35c-.02.51.16,1.01.5,1.4.83.75,2.08.75,2.91,0,.34-.39.52-.89.5-1.4v-3.35Z"/>
        <path id="Path_2568" class="cls-1" d="M92.57,58.52c-.02-.22.14-.4.36-.42.02,0,.04,0,.06,0h.42c.11,0,.23.03.31.11.08.08.12.19.11.31v3.49c0,.33-.06.66-.18.97-.12.3-.29.57-.51.8-.23.24-.5.42-.8.55-.68.27-1.43.27-2.11,0-.3-.13-.57-.31-.8-.55-.22-.23-.4-.5-.52-.8-.12-.31-.18-.64-.18-.97v-3.49c0-.11.03-.22.11-.31.08-.08.19-.12.31-.11h.42c.21-.02.4.14.42.36,0,.02,0,.04,0,.06v3.49c0,.34.1.67.31.93.24.28.61.43.98.4.37.03.74-.12.98-.4.21-.27.31-.59.31-.93v-3.49Z"/>
        <path id="Path_2569" class="cls-1" d="M98.03,64.38c-.57.05-1.14-.16-1.54-.57-.36-.45-.53-1.02-.5-1.59v-2.79c0-.07-.04-.13-.11-.14-.01,0-.02,0-.03,0h-.42c-.11,0-.23-.03-.31-.11-.08-.08-.12-.19-.11-.31v-.35c-.02-.21.14-.4.35-.42.02,0,.05,0,.07,0h.42c.07,0,.13-.04.14-.1,0-.01,0-.02,0-.04v-.98c0-.11.03-.22.11-.31.08-.08.2-.12.31-.11h.42c.21-.02.4.14.42.35,0,.02,0,.05,0,.07v.98c0,.07.04.13.11.14.01,0,.02,0,.04,0h1.05c.22-.02.4.14.42.36,0,.02,0,.04,0,.06v.35c0,.11-.03.23-.11.31-.08.08-.19.12-.31.11h-1.05c-.07,0-.13.04-.14.11,0,.01,0,.02,0,.03v2.73c-.01.27.05.54.19.77.18.21.45.31.72.28h.28c.22-.02.4.14.42.36,0,.02,0,.04,0,.06v.35c.02.21-.14.4-.36.42-.02,0-.04,0-.07,0h-.4Z"/>
        <path id="Path_2570" class="cls-1" d="M102.42,64.38c-.34,0-.68-.06-1-.18-.29-.11-.55-.28-.78-.49-.22-.21-.39-.47-.5-.76-.12-.3-.18-.62-.17-.94v-1.54c0-.32.06-.64.18-.94.11-.28.28-.54.5-.75.22-.21.47-.38.76-.5.3-.12.63-.19.96-.18h1.38c.07.01.13-.04.14-.1,0-.01,0-.03,0-.04v-2.66c0-.11.03-.22.11-.31.08-.08.2-.12.31-.11h.42c.21-.02.4.14.42.35,0,.02,0,.05,0,.07v8.67c0,.11-.03.22-.11.31-.08.08-.19.12-.31.11h-2.3ZM103.89,59.42c0-.07-.04-.13-.11-.14-.01,0-.02,0-.03,0h-1.33c-.62-.03-1.16.45-1.19,1.08,0,.04,0,.08,0,.11v1.54c-.01.32.11.64.35.86.23.21.53.33.84.33h1.33c.07.01.13-.04.14-.1,0-.01,0-.03,0-.04v-3.63Z"/>
        <path id="Path_2571" class="cls-1" d="M109.83,64.52c-.44,0-.88-.08-1.28-.26-.78-.34-1.41-.96-1.75-1.75-.34-.82-.34-1.74,0-2.56.17-.39.41-.74.71-1.04.3-.3.65-.54,1.04-.71.82-.34,1.74-.34,2.56,0,.39.17.74.41,1.04.71.3.3.54.65.71,1.04.35.82.35,1.74,0,2.56-.34.78-.96,1.41-1.75,1.75-.4.17-.84.26-1.28.26ZM109.83,63.34c.28,0,.55-.05.8-.17.24-.11.46-.26.65-.45.18-.19.33-.42.42-.66.2-.53.2-1.11,0-1.63-.1-.25-.24-.47-.42-.67-.19-.19-.4-.34-.65-.45-.51-.22-1.09-.22-1.61,0-.24.11-.46.26-.64.45-.18.19-.33.42-.43.67-.21.53-.21,1.11,0,1.63.1.25.24.47.43.66.18.19.4.34.64.45.25.11.53.17.81.17Z"/>
        <path id="Path_2572" class="cls-1" d="M117.51,64.52c-.44,0-.88-.08-1.28-.26-.78-.34-1.41-.96-1.75-1.75-.35-.82-.35-1.74,0-2.56.17-.39.4-.74.7-1.04.3-.3.65-.54,1.04-.71.82-.34,1.74-.34,2.56,0,.78.34,1.41.96,1.75,1.75.35.82.35,1.74,0,2.56-.17.39-.41.74-.71,1.04-.3.3-.65.54-1.04.71-.4.17-.84.26-1.28.26ZM117.51,63.34c.28,0,.55-.05.8-.17.24-.11.46-.26.65-.45.18-.19.33-.42.42-.66.21-.53.21-1.11,0-1.63-.1-.25-.24-.47-.42-.67-.19-.19-.4-.34-.65-.45-.51-.22-1.09-.22-1.61,0-.24.11-.46.26-.64.45-.18.19-.33.42-.43.67-.21.53-.21,1.11,0,1.63.1.25.24.47.43.66.18.19.4.34.64.45.25.11.53.17.81.17Z"/>
        <path id="Path_2573" class="cls-1" d="M122.61,64.38c-.21.02-.4-.13-.42-.34,0-.02,0-.05,0-.07v-3.57c-.02-.61.19-1.21.59-1.66.43-.44,1.02-.68,1.63-.64h.5c.21-.02.4.14.42.36,0,.02,0,.04,0,.06v.35c0,.11-.03.22-.11.31-.08.08-.19.12-.31.11h-.42c-.3-.02-.59.1-.79.33-.18.25-.27.55-.26.86v3.49c0,.11-.03.22-.11.31-.08.08-.19.12-.31.11h-.41Z"/>
      </g>
    </g>
  </g>
</svg>