<?xml version="1.0" encoding="UTF-8"?>
<svg id="Layer_2" xmlns="http://www.w3.org/2000/svg" viewBox="0 0 34.14 18.11">
  <defs>
    <style>
      .cls-1 {
        fill: #8c9091;
      }

      .cls-2 {
        fill: #003a5d;
      }
    </style>
  </defs>
  <g id="Layer_2-2" data-name="Layer_2">
    <g id="Layer_1-2">
      <g>
        <g>
          <path class="cls-2" d="M12.48.92h-.59c-.18,0-.33.05-.43.16-.11.11-.16.25-.16.43v.98c0,.18.05.33.16.43.1.11.25.16.43.16h.59c.18,0,.33-.05.43-.16s.16-.25.16-.43v-.98c0-.18-.05-.33-.16-.43s-.25-.16-.43-.16"/>
          <path class="cls-2" d="M12.48,4.45h-.59c-.18,0-.33.05-.43.15-.11.11-.16.25-.16.43v7.66c0,.18.05.33.16.43.1.1.25.16.43.16h.59c.18,0,.33-.05.43-.16.1-.1.16-.25.16-.43v-7.66c0-.18-.05-.33-.16-.43s-.25-.15-.43-.15"/>
          <path class="cls-2" d="M20.87,9.96c-.14.35-.33.64-.57.89s-.53.45-.86.6c-.33.15-.69.23-1.08.23s-.75-.08-1.08-.23-.62-.35-.87-.6-.43-.55-.57-.89c-.14-.34-.21-.71-.21-1.1s.07-.76.21-1.1c.14-.34.33-.64.57-.89s.53-.45.87-.6c.33-.15.69-.23,1.08-.23s.75.08,1.08.23.62.35.86.6.44.55.57.89c.14.34.21.71.21,1.1s-.07.75-.21,1.1M21.48,5.74c-.4-.4-.87-.72-1.4-.95-.53-.23-1.11-.35-1.72-.35s-1.19.12-1.72.35c-.53.23-1,.55-1.4.95-.4.4-.72.87-.95,1.4s-.35,1.11-.35,1.72.12,1.19.35,1.72c.23.53.55,1,.95,1.4s.87.72,1.4.95c.53.23,1.11.35,1.72.35s1.19-.12,1.72-.35c.53-.23,1-.55,1.4-.95s.72-.87.95-1.4c.23-.53.35-1.11.35-1.72s-.12-1.19-.35-1.72c-.23-.53-.55-1-.95-1.4"/>
          <path class="cls-2" d="M26.28,11.61h-.2c-.22,0-.39-.06-.51-.18s-.18-.29-.18-.5V.59c0-.18-.05-.33-.16-.43-.1-.1-.25-.16-.43-.16h-.59c-.18,0-.33.05-.43.16-.11.1-.16.25-.16.43v10.15c0,.78.19,1.4.56,1.86.37.46.98.69,1.81.69h.27c.18,0,.33-.05.43-.16.1-.1.16-.25.16-.43v-.49c0-.18-.05-.33-.16-.43-.1-.11-.25-.16-.43-.16"/>
          <path class="cls-2" d="M32.41,9.52c0,.27-.04.53-.12.78-.08.25-.21.48-.37.68-.17.2-.38.37-.63.49s-.55.18-.9.18c-.51,0-.91-.15-1.2-.46s-.43-.7-.43-1.19v-1.9c0-.55.18-1.02.53-1.42s.85-.6,1.49-.6h1.44c.13,0,.19.06.19.19v3.25ZM33.99,4.6c-.1-.1-.24-.15-.42-.15h-2.87c-.54,0-1.03.1-1.48.29-.45.19-.83.45-1.16.78s-.58.71-.76,1.16-.27.92-.27,1.42v1.71c0,.51.08.98.23,1.41s.37.8.64,1.11c.27.31.59.54.96.71.37.17.78.25,1.23.25.5,0,.93-.08,1.28-.23s.62-.35.8-.6c.05-.06.11-.09.16-.07.09.03.09.26.09.33,0,.14.05.27.15.39.1.11.24.17.42.17h.58c.18,0,.32-.05.42-.15.1-.1.15-.24.15-.42v-7.68c0-.18-.05-.32-.15-.42"/>
          <path class="cls-2" d="M10.05,4.44h-.81c-.35,0-.58.16-.67.47l-2.2,5.87c-.04.14-.1.21-.19.21s-.16-.07-.2-.21L2.46,1.76h2.46c.22,0,.39-.06.51-.19.13-.13.19-.3.19-.51v-.35c0-.22-.06-.39-.19-.51-.12-.13-.3-.19-.51-.19H.45C.08,0-.09.2.05.55l4.87,12.2c.06.21.15.35.26.42s.26.11.44.11h1.1c.18,0,.33-.04.44-.11s.2-.21.26-.42l3.04-7.76c.1-.36-.03-.54-.4-.54"/>
        </g>
        <g>
          <path class="cls-1" d="M7.85,17.35s-.05,0-.07-.02-.02-.04-.02-.07v-1.94s0-.05.02-.07c.02-.02.04-.02.07-.02h.66c.08,0,.16.02.24.05s.14.08.19.14c.05.06.1.12.13.2s.05.16.05.24-.02.17-.05.24c-.03.07-.08.14-.13.2-.05.06-.12.1-.19.14-.07.03-.15.05-.24.05h-.42s-.03.01-.03.03v.75s0,.05-.02.07-.04.02-.07.02h-.12ZM8.48,16.2s.08,0,.12-.02c.04-.01.07-.04.11-.07.03-.03.06-.07.08-.11.02-.04.03-.09.03-.15s-.01-.11-.03-.15c-.02-.04-.05-.08-.08-.11s-.07-.05-.11-.07c-.04-.01-.08-.02-.12-.02h-.4s-.03.01-.03.03v.62s.01.03.03.03h.4v.02Z"/>
          <path class="cls-1" d="M9.76,17.35c-.13,0-.23-.04-.29-.11s-.09-.17-.09-.3v-1.62s0-.05.02-.07c.02-.02.04-.02.07-.02h.09s.05,0,.07.02.02.04.02.07v1.66s0,.06.03.08c.02.02.05.03.08.03h.03s.05,0,.07.02c.02.02.02.04.02.07v.08s0,.05-.02.07-.04.02-.07.02h-.04.01Z"/>
          <path class="cls-1" d="M11.11,17.35s-.05,0-.07-.03c-.02-.02-.02-.04-.02-.06,0-.01,0-.02-.01-.02s-.02,0-.03.01c-.03.04-.07.07-.13.1-.06.02-.13.04-.21.04-.07,0-.14-.01-.2-.04-.06-.03-.11-.07-.16-.12-.04-.05-.08-.11-.1-.18s-.04-.15-.04-.23v-.28c0-.08.01-.16.04-.23s.07-.14.12-.19.12-.09.19-.13c.07-.03.15-.05.24-.05h.47s.05,0,.07.02c.02.02.02.04.02.07v1.22s0,.05-.02.07-.04.02-.07.02h-.09,0ZM11.02,16.24s-.01-.03-.03-.03h-.23c-.1,0-.19.03-.24.1-.06.06-.09.14-.09.23v.31c0,.08.02.14.07.19.05.05.11.07.2.07.06,0,.1-.01.14-.03s.07-.05.1-.08c.03-.03.05-.07.06-.11s.02-.08.02-.13v-.53h0Z"/>
          <path class="cls-1" d="M12.64,17.35s-.05,0-.07-.02-.02-.04-.02-.07v-.78c0-.08-.02-.15-.07-.21-.05-.06-.12-.09-.22-.09s-.17.03-.22.09-.07.13-.07.21v.78s0,.05-.02.07-.04.02-.07.02h-.09s-.05,0-.07-.02-.02-.04-.02-.07v-.78c0-.08.01-.15.04-.22s.07-.13.12-.18c.05-.05.11-.09.18-.12.07-.03.15-.05.24-.05s.17.02.24.05.13.07.18.12.09.11.12.18.04.14.04.22v.78s0,.05-.02.07-.04.02-.07.02h-.13Z"/>
          <path class="cls-1" d="M14.17,17.35s-.05,0-.07-.02-.02-.04-.02-.07v-.78c0-.08-.02-.15-.07-.21-.05-.06-.12-.09-.22-.09s-.17.03-.22.09-.07.13-.07.21v.78s0,.05-.02.07-.04.02-.07.02h-.09s-.05,0-.07-.02-.02-.04-.02-.07v-.78c0-.08.01-.15.04-.22s.07-.13.12-.18c.05-.05.11-.09.18-.12.07-.03.15-.05.24-.05s.17.02.24.05.13.07.18.12.09.11.12.18.04.14.04.22v.78s0,.05-.02.07-.04.02-.07.02h-.13Z"/>
          <path class="cls-1" d="M14.86,15.73s-.05,0-.07-.02-.02-.04-.02-.07v-.16s0-.05.02-.07.04-.02.07-.02h.09s.05,0,.07.02.02.04.02.07v.16s0,.05-.02.07-.04.02-.07.02h-.09ZM14.86,17.35s-.05,0-.07-.02c-.02-.02-.02-.04-.02-.07v-1.22s0-.05.02-.07c.02-.02.04-.02.07-.02h.09s.05,0,.07.02c.02.02.02.04.02.07v1.22s0,.05-.02.07-.04.02-.07.02h-.09Z"/>
          <path class="cls-1" d="M16.42,17.35s-.05,0-.07-.02-.02-.04-.02-.07v-.78c0-.08-.02-.15-.07-.21s-.12-.09-.22-.09-.17.03-.22.09-.07.13-.07.21v.78s0,.05-.02.07-.04.02-.07.02h-.09s-.05,0-.07-.02c-.02-.02-.02-.04-.02-.07v-.78c0-.08.01-.15.04-.22s.07-.13.12-.18.11-.09.18-.12c.07-.03.15-.05.24-.05s.17.02.24.05.13.07.18.12.09.11.12.18.04.14.04.22v.78s0,.05-.02.07-.04.02-.07.02h-.13Z"/>
          <path class="cls-1" d="M17.67,17.88s-.03-.09.02-.13c.03-.02.05-.04.07-.07.02-.03.03-.07.03-.11,0-.07-.02-.12-.08-.16-.05-.04-.12-.06-.2-.06h-.54s-.05,0-.07-.02-.02-.04-.02-.07v-.08s.02-.09.05-.14l.15-.2s.01-.03.01-.05,0-.03-.02-.04c-.03-.04-.06-.09-.07-.14-.02-.05-.03-.11-.03-.16,0-.07.01-.14.05-.21s.07-.12.12-.17c.05-.05.11-.09.17-.11.07-.03.14-.04.21-.04h.06s.05,0,.08.02h.06s.02-.02.03-.03l.1-.13s.04-.04.06-.04.05,0,.07.02l.06.04s.04.04.04.06,0,.05-.02.07l-.1.13s-.01.03,0,.05.01.04.02.05c.05.09.08.18.08.28,0,.07-.02.14-.05.21-.03.06-.07.12-.12.17-.05.05-.11.08-.17.11-.07.03-.13.04-.21.04h-.08s-.05,0-.07-.01h-.05s-.03.01-.04.03l-.05.07s0,.04.03.04h.24c.08,0,.15.01.21.03s.13.06.18.1c.05.04.09.09.12.15s.04.13.04.2c0,.11-.02.19-.07.26-.05.06-.09.11-.15.15-.02.01-.05.02-.07.01-.02,0-.04-.02-.06-.04l-.06-.07h.04ZM17.53,16.71s.07,0,.1-.02c.03-.01.06-.03.08-.06.02-.02.04-.05.06-.08.01-.03.02-.07.02-.1s0-.07-.02-.11c-.01-.03-.03-.06-.06-.08s-.05-.04-.08-.06c-.03-.01-.07-.02-.1-.02s-.07,0-.1.02c-.03.01-.06.03-.08.06-.02.02-.04.05-.06.08-.01.03-.02.07-.02.11s0,.07.02.1c.01.03.03.06.06.08.02.02.05.04.08.06.03.01.07.02.1.02Z"/>
          <path class="cls-1" d="M20.54,17.01s.03.04.03.07c0,.02-.01.05-.03.06-.07.07-.14.12-.23.17s-.2.07-.35.07c-.1,0-.2-.02-.28-.05-.09-.04-.16-.09-.23-.15s-.11-.14-.15-.24c-.04-.09-.05-.19-.05-.3v-.69c0-.11.02-.21.05-.3.04-.09.09-.17.15-.24s.14-.12.23-.15c.09-.04.18-.06.28-.06.07,0,.13,0,.19.02.06.01.11.03.15.05s.09.04.12.07.06.05.09.07c.04.04.04.09,0,.13l-.07.07s-.04.03-.06.03-.04-.01-.07-.03c-.03-.02-.07-.05-.12-.09-.06-.03-.13-.05-.23-.05-.07,0-.13.01-.18.04-.05.02-.09.06-.13.1s-.06.09-.08.15c-.02.06-.03.12-.03.18v.69c0,.14.04.25.11.34s.18.13.31.13c.09,0,.17-.02.23-.05.06-.04.12-.07.15-.11.02-.02.04-.03.06-.03s.05,0,.07.03l.06.06h.01Z"/>
          <path class="cls-1" d="M21.54,17.38c-.1,0-.2-.02-.29-.06-.09-.04-.17-.09-.23-.16-.07-.07-.12-.14-.16-.23-.04-.09-.06-.18-.06-.29s.02-.2.06-.29c.04-.09.09-.17.16-.23s.14-.12.23-.16.18-.06.29-.06.2.02.29.06.17.09.23.16c.07.07.12.14.16.23.04.09.06.18.06.29s-.02.2-.06.29c-.04.09-.09.17-.16.23-.07.07-.14.12-.23.16-.09.04-.18.06-.29.06ZM21.54,17.12c.06,0,.12-.01.18-.04s.1-.06.14-.1c.04-.04.07-.09.09-.15s.03-.12.03-.18-.01-.13-.03-.18c-.02-.06-.05-.11-.09-.15-.04-.04-.09-.07-.14-.1-.06-.03-.12-.04-.18-.04s-.12.01-.18.04c-.05.02-.1.06-.14.1-.04.04-.07.09-.1.15-.02.06-.03.12-.03.18s.01.13.03.18c.02.06.06.11.1.15.04.04.09.08.14.1.06.02.12.04.18.04Z"/>
          <path class="cls-1" d="M23.55,17.35s-.05,0-.07-.02-.02-.04-.02-.07v-.78c0-.08-.02-.15-.07-.21s-.12-.09-.22-.09-.17.03-.22.09-.07.13-.07.21v.78s0,.05-.02.07-.04.02-.07.02h-.09s-.05,0-.07-.02-.02-.04-.02-.07v-.78c0-.08.01-.15.04-.22s.07-.13.12-.18.11-.09.18-.12.15-.05.24-.05.17.02.24.05.13.07.18.12.09.11.12.18.04.14.04.22v.78s0,.05-.02.07-.04.02-.07.02h-.13Z"/>
          <path class="cls-1" d="M24.13,17.04s.08-.04.13,0c.02.02.05.04.08.05.03.02.07.02.12.02.06,0,.1-.01.14-.04.04-.02.06-.06.06-.1s-.02-.07-.05-.1c-.03-.03-.09-.07-.18-.11-.06-.03-.11-.06-.15-.08-.04-.03-.08-.06-.11-.1-.03-.03-.05-.07-.07-.11s-.02-.09-.02-.15.01-.11.03-.16.05-.09.09-.13c.04-.04.09-.07.14-.09s.12-.03.19-.03c.08,0,.16.02.22.05s.11.06.14.09c.02.02.03.04.03.07s0,.05-.03.06l-.06.06s-.04.03-.06.04c-.02,0-.04,0-.06-.02-.06-.05-.12-.08-.19-.08-.06,0-.1.01-.13.04-.03.03-.04.06-.04.11s.02.08.06.11c.04.03.09.06.15.08s.11.05.16.08.09.06.12.1c.03.03.06.07.08.12.02.04.03.09.03.15,0,.07-.01.13-.04.18s-.06.1-.11.13c-.04.04-.1.06-.15.08-.06.02-.12.03-.17.03-.1,0-.18-.01-.24-.04s-.11-.06-.15-.11c-.02-.02-.03-.04-.03-.07,0-.02,0-.05.03-.07l.06-.07h-.02Z"/>
          <path class="cls-1" d="M26.1,16.04s0-.05.02-.07.04-.02.07-.02h.09s.05,0,.07.02.02.04.02.07v.78c0,.08-.01.15-.04.22s-.07.13-.11.18c-.05.05-.11.09-.18.12s-.15.05-.24.05-.17-.01-.24-.05c-.07-.03-.13-.07-.18-.12s-.09-.11-.12-.18-.04-.14-.04-.22v-.78s0-.05.02-.07.04-.02.07-.02h.09s.05,0,.07.02.02.04.02.07v.78c0,.08.02.15.07.21s.12.09.22.09.17-.03.22-.09.07-.13.07-.21v-.78h.03Z"/>
          <path class="cls-1" d="M27.16,17.35c-.13,0-.23-.04-.29-.11-.06-.07-.09-.17-.09-.3v-1.62s0-.05.02-.07c.02-.02.04-.02.07-.02h.09s.05,0,.07.02.02.04.02.07v1.66s0,.06.03.08c.02.02.05.03.08.03h.03s.05,0,.07.02.02.04.02.07v.08s0,.05-.02.07-.04.02-.07.02h-.04.01Z"/>
          <path class="cls-1" d="M28.12,17.35c-.16,0-.27-.04-.34-.13-.07-.08-.11-.2-.11-.36v-.62s-.01-.03-.03-.03h-.09s-.05,0-.07-.03-.02-.04-.02-.07v-.08s0-.05.02-.07c.02-.02.04-.02.07-.02h.09s.03-.01.03-.03v-.22s0-.05.02-.07.04-.02.07-.02h.09s.05,0,.07.02.02.04.02.07v.22s.01.03.03.03h.23s.05,0,.07.02.02.04.02.07v.08s0,.05-.02.07-.04.03-.07.03h-.23s-.03.01-.03.03v.61c0,.07.01.13.04.17s.08.06.16.06h.06s.05,0,.07.02.02.04.02.07v.08s0,.05-.02.07-.04.02-.07.02h-.09.01Z"/>
          <path class="cls-1" d="M29.55,17.35s-.05,0-.07-.03c-.02-.02-.02-.04-.02-.06,0-.01,0-.02-.01-.02s-.02,0-.03.01c-.03.04-.07.07-.13.1-.06.02-.13.04-.21.04-.07,0-.14-.01-.2-.04-.06-.03-.11-.07-.16-.12-.04-.05-.08-.11-.1-.18s-.04-.15-.04-.23v-.28c0-.08.01-.16.04-.23s.07-.14.12-.19.12-.09.19-.13c.07-.03.15-.05.24-.05h.47s.05,0,.07.02.02.04.02.07v1.22s0,.05-.02.07-.04.02-.07.02h-.09ZM29.46,16.24s-.01-.03-.03-.03h-.23c-.1,0-.19.03-.24.1-.06.06-.09.14-.09.23v.31c0,.08.02.14.07.19.05.05.11.07.2.07.06,0,.1-.01.14-.03.04-.02.07-.05.1-.08s.05-.07.06-.11.02-.08.02-.13v-.53h0Z"/>
          <path class="cls-1" d="M31.08,17.35s-.05,0-.07-.02-.02-.04-.02-.07v-.78c0-.08-.02-.15-.07-.21s-.12-.09-.22-.09-.17.03-.22.09-.07.13-.07.21v.78s0,.05-.02.07-.04.02-.07.02h-.09s-.05,0-.07-.02-.02-.04-.02-.07v-.78c0-.08.01-.15.04-.22s.07-.13.12-.18.11-.09.18-.12.15-.05.24-.05.17.02.24.05.13.07.18.12c.05.05.09.11.12.18s.04.14.04.22v.78s0,.05-.02.07-.04.02-.07.02h-.13Z"/>
          <path class="cls-1" d="M32.59,17.07s.03.04.02.06c0,.02,0,.05-.03.07-.04.04-.09.08-.16.12s-.16.06-.25.06-.17-.01-.24-.05-.13-.07-.18-.12-.08-.11-.11-.18c-.02-.07-.04-.14-.04-.22v-.34c0-.08.01-.15.04-.22s.06-.13.11-.18.11-.09.18-.12c.07-.03.15-.05.23-.05s.16.02.23.05.12.07.17.11c.02.02.03.04.03.07s0,.05-.03.07l-.06.06s-.08.04-.13,0c-.02-.02-.05-.04-.09-.05-.04-.02-.08-.02-.12-.02-.1,0-.17.03-.22.09s-.07.13-.07.21v.34s0,.08.01.11.02.07.05.09c.02.03.05.05.09.06.04.02.08.02.13.02s.1-.01.14-.03.07-.05.09-.07c.05-.04.09-.04.13,0l.06.06h.02Z"/>
          <path class="cls-1" d="M33.73,17.38s0-.03-.03-.03h-.29c-.08,0-.15-.01-.21-.04-.06-.03-.12-.06-.17-.11s-.08-.1-.11-.16c-.02-.06-.04-.13-.04-.21v-.79s0-.05.02-.07.04-.02.07-.02h.09s.05,0,.07.02.02.04.02.07v.79c0,.08.02.14.07.19s.11.07.19.07h.28s.03-.01.03-.03v-1.02s0-.05.02-.07.04-.02.07-.02h.09s.05,0,.07.02.02.04.02.07v1.48c0,.08,0,.15-.04.22s-.07.13-.12.19c-.05.05-.11.09-.18.13s-.15.05-.24.05c-.11,0-.19-.01-.27-.03-.07-.02-.13-.05-.19-.09-.02-.01-.04-.03-.05-.06v-.07l.04-.07s.07-.06.12-.04c.04.02.09.05.14.06.05.02.12.02.19.02.11,0,.18-.03.23-.09s.07-.13.07-.23v-.13h.04Z"/>
        </g>
      </g>
    </g>
  </g>
</svg>