<?xml version="1.0" encoding="UTF-8"?>
<svg id="Layer_2" xmlns="http://www.w3.org/2000/svg" viewBox="0 0 124.95 64.52">
  <defs>
    <style>
      .cls-1 {
        fill: #00a7e1;
      }
    </style>
  </defs>
  <g id="Layer_2-2" data-name="Layer_2">
    <g id="Group_3808">
      <g id="Group_3806">
        <g id="Group_3805">
          <path id="Path_2574" class="cls-1" d="M45.61,3.38h-2.15c-1.09-.1-2.05.7-2.14,1.79-.01.12-.01.24,0,.36v3.57c-.09,1.09.71,2.05,1.81,2.15.11,0,.23,0,.34,0h2.15c1.09.09,2.05-.71,2.14-1.8,0-.12,0-.23,0-.35v-3.57c.1-1.08-.69-2.05-1.78-2.15-.12-.01-.24-.01-.36,0"/>
          <path id="Path_2575" class="cls-1" d="M45.61,16.26h-2.15c-1.08-.1-2.04.7-2.14,1.78-.01.12-.01.24,0,.36v27.99c-.09,1.09.72,2.05,1.81,2.15.11,0,.22,0,.33,0h2.15c1.09.09,2.05-.72,2.14-1.81,0-.11,0-.23,0-.34v-27.99c.1-1.08-.7-2.04-1.78-2.14-.12-.01-.24-.01-.36,0"/>
          <path id="Path_2576" class="cls-1" d="M76.28,36.39c-.47,1.22-1.19,2.33-2.1,3.26-.9.93-1.97,1.68-3.16,2.2-2.52,1.1-5.39,1.1-7.91,0-1.18-.53-2.26-1.27-3.16-2.2-.91-.94-1.62-2.05-2.1-3.26-1-2.59-1-5.45,0-8.04.48-1.22,1.19-2.33,2.1-3.27.91-.92,1.98-1.67,3.16-2.2,2.52-1.1,5.39-1.1,7.91,0,1.18.53,2.25,1.28,3.16,2.2.91.94,1.62,2.05,2.1,3.27,1.01,2.58,1.01,5.45,0,8.04M78.48,20.97c-1.47-1.47-3.21-2.65-5.12-3.47-4.02-1.7-8.56-1.7-12.58,0-3.86,1.66-6.94,4.73-8.6,8.59-1.7,4.02-1.7,8.56,0,12.58,1.67,3.86,4.74,6.93,8.6,8.59,4.02,1.7,8.56,1.7,12.58,0,3.85-1.67,6.93-4.74,8.59-8.59,1.69-4.02,1.69-8.56,0-12.58-.83-1.91-2.01-3.65-3.48-5.12"/>
          <path id="Path_2577" class="cls-1" d="M96.04,42.45h-.71c-.69.05-1.36-.2-1.86-.67-.45-.5-.68-1.16-.65-1.83V2.16c.1-1.09-.7-2.05-1.78-2.15-.12-.01-.24-.01-.36,0h-2.15c-1.09-.09-2.05.71-2.15,1.8-.01.11,0,.23,0,.34v37.07c-.13,2.43.59,4.84,2.04,6.8,1.36,1.67,3.56,2.5,6.61,2.51h1c1.09.09,2.05-.72,2.15-1.81,0-.11,0-.23,0-.34v-1.79c.03-.58-.17-1.15-.57-1.58-.42-.4-.99-.61-1.57-.58"/>
          <path id="Path_2578" class="cls-1" d="M118.44,34.78c0,.97-.15,1.93-.45,2.85-.3.91-.77,1.75-1.37,2.49-.62.75-1.4,1.36-2.29,1.79-1.03.47-2.14.69-3.27.66-1.64.09-3.24-.52-4.39-1.68-1.08-1.18-1.65-2.75-1.59-4.35v-6.96c-.03-1.91.66-3.77,1.94-5.19,1.4-1.5,3.4-2.3,5.45-2.18h5.28c.34-.05.65.18.7.52,0,.06,0,.12,0,.18v11.86ZM124.21,16.82c-.42-.39-.98-.6-1.55-.56h-10.47c-1.86-.02-3.7.34-5.42,1.05-1.59.67-3.03,1.64-4.25,2.85-1.21,1.21-2.15,2.66-2.78,4.25-.65,1.65-.98,3.41-.98,5.19v6.25c-.02,1.75.26,3.5.83,5.16.51,1.48,1.3,2.85,2.33,4.04.97,1.11,2.17,2,3.51,2.59,1.42.62,2.95.93,4.5.92,1.6.04,3.19-.25,4.67-.84,1.15-.46,2.15-1.21,2.92-2.18.12-.21.37-.31.6-.24.31.09.32.94.32,1.22,0,.53.2,1.03.56,1.41.39.43.96.66,1.54.63h2.11c.57.03,1.13-.17,1.55-.56.39-.42.59-.98.56-1.55v-28.07c.03-.57-.17-1.13-.56-1.54"/>
          <path id="Path_2579" class="cls-1" d="M36.74,16.24h-2.97c-1.13-.11-2.16.63-2.43,1.73l-8.05,21.44c-.14.52-.38.78-.71.78s-.58-.26-.72-.78L8.99,6.44h9c1.3.11,2.45-.85,2.56-2.15.01-.14.01-.27,0-.41v-1.28c.11-1.3-.85-2.45-2.16-2.56-.14-.01-.27-.01-.41,0H1.66C.29.04-.33.73.17,2l17.78,44.6c.14.6.47,1.14.95,1.53.49.28,1.04.42,1.61.39h4.03c.56.02,1.12-.12,1.61-.4.48-.39.81-.93.95-1.53l11.1-28.37c.38-1.33-.09-1.99-1.47-1.99"/>
        </g>
      </g>
      <g id="Group_3807">
        <path id="Path_2580" class="cls-1" d="M38.16,64.38c-.11,0-.22-.03-.31-.11-.08-.08-.12-.19-.11-.31v-8.67c-.02-.21.14-.4.35-.42.02,0,.05,0,.07,0h2.93c.37,0,.73.08,1.06.22.33.14.62.35.87.61.25.26.44.57.58.9.29.69.29,1.46,0,2.14-.14.33-.34.63-.58.89-.25.26-.54.47-.87.61-.33.15-.7.23-1.06.22h-1.88c-.07,0-.13.04-.14.1,0,.01,0,.02,0,.04v3.35c.02.21-.14.4-.36.42-.02,0-.04,0-.07,0h-.49ZM41,59.22c.19,0,.37-.03.54-.1.18-.06.34-.16.48-.29.14-.14.26-.3.34-.48.18-.42.18-.9,0-1.33-.08-.18-.2-.34-.34-.48-.14-.13-.3-.23-.48-.29-.17-.07-.36-.1-.54-.1h-1.79c-.07,0-.13.04-.14.1,0,.01,0,.02,0,.03v2.79c-.01.07.04.13.1.14.01,0,.02,0,.04,0h1.79Z"/>
        <path id="Path_2581" class="cls-1" d="M48.71,58.52c-.02-.22.15-.41.36-.42.02,0,.04,0,.06,0h.42c.11,0,.23.03.31.11.08.08.12.19.11.31v3.49c0,.33-.06.66-.18.97-.12.3-.29.57-.51.8-.23.24-.5.42-.8.55-.68.27-1.43.27-2.11,0-.3-.13-.57-.31-.8-.55-.22-.23-.4-.5-.51-.8-.12-.31-.18-.63-.18-.97v-3.49c0-.11.03-.22.11-.31.08-.08.19-.12.31-.11h.42c.21-.02.4.14.42.36,0,.02,0,.04,0,.06v3.49c0,.34.1.67.31.93.25.28.61.43.98.4.37.03.74-.12.98-.4.21-.27.31-.59.31-.93v-3.49Z"/>
        <path id="Path_2582" class="cls-1" d="M52.06,64.38c-.21.02-.4-.13-.42-.35,0-.02,0-.05,0-.07v-8.67c0-.11.03-.22.11-.31.08-.08.2-.12.31-.11h.42c.21-.02.4.14.42.35,0,.02,0,.05,0,.07v2.66c0,.07.04.13.11.14.01,0,.02,0,.04,0h1.38c.33,0,.65.06.96.18.57.23,1.02.68,1.25,1.25.12.3.18.62.18.94v1.54c0,.32-.06.64-.18.94-.11.28-.28.54-.5.76-.22.21-.49.38-.78.49-.32.12-.66.19-1,.18h-2.3ZM55.56,60.47c.03-.62-.45-1.16-1.07-1.19-.04,0-.08,0-.12,0h-1.33c-.07,0-.13.04-.14.11,0,.01,0,.02,0,.03v3.63c0,.07.04.13.11.14.01,0,.02,0,.04,0h1.33c.31,0,.61-.11.83-.33.24-.22.36-.54.35-.86v-1.54Z"/>
        <path id="Path_2583" class="cls-1" d="M60.18,64.38c-.48.04-.96-.13-1.29-.49-.28-.38-.42-.85-.4-1.33v-7.27c0-.11.03-.23.11-.31.08-.08.19-.12.31-.11h.42c.21-.02.4.14.42.35,0,.02,0,.04,0,.06v7.41c0,.13.04.26.12.36.1.09.23.14.36.13h.14c.11,0,.23.03.31.11.08.08.12.19.11.31v.35c0,.11-.03.22-.11.31-.08.08-.19.12-.31.11h-.19Z"/>
        <path id="Path_2584" class="cls-1" d="M62.47,57.12c-.11,0-.23-.03-.31-.11-.08-.08-.12-.19-.11-.31v-.7c-.02-.21.13-.4.34-.42.02,0,.05,0,.07,0h.42c.21-.02.4.14.42.35,0,.02,0,.05,0,.07v.7c0,.11-.03.22-.11.31-.08.08-.19.12-.31.11h-.42ZM62.47,64.38c-.11,0-.23-.03-.31-.11-.08-.08-.12-.19-.11-.31v-5.45c0-.11.03-.22.11-.31.08-.08.19-.12.31-.11h.42c.11,0,.23.03.31.11.08.08.12.19.11.31v5.45c0,.11-.03.22-.11.31-.08.08-.19.12-.31.11h-.42Z"/>
        <path id="Path_2585" class="cls-1" d="M69.39,63.14c.08.07.12.17.11.28-.01.11-.06.21-.12.29-.21.22-.46.41-.73.55-.35.18-.74.27-1.14.26-.37,0-.74-.06-1.08-.2-.3-.12-.57-.31-.79-.55-.22-.23-.38-.5-.48-.8-.11-.31-.16-.64-.16-.97v-1.54c0-.33.06-.66.18-.96.11-.3.28-.57.5-.8.23-.23.49-.42.79-.55.33-.14.69-.21,1.05-.2.66-.01,1.29.24,1.76.7.16.15.17.4.02.57,0,0-.01.01-.02.02l-.27.27c-.13.15-.37.17-.52.04-.02-.02-.03-.03-.05-.05-.12-.1-.25-.19-.4-.25-.17-.07-.34-.1-.52-.1-.37-.03-.73.12-.96.4-.2.27-.3.6-.29.93v1.54c0,.17.02.34.06.51.04.16.11.3.21.43.1.12.23.22.38.29.19.07.4.11.6.1.22,0,.44-.05.63-.15.15-.08.29-.18.42-.29.14-.16.39-.18.55-.04.01.01.02.02.04.04l.26.24Z"/>
        <path id="Path_2586" class="cls-1" d="M79.99,64.38c-.24,0-.44-.15-.51-.38l-1.65-3.55c-.04-.13-.17-.21-.3-.2h-1.33c-.07,0-.13.04-.14.11,0,.01,0,.02,0,.03v3.57c0,.11-.03.22-.11.31-.08.08-.19.12-.31.11h-.49c-.11,0-.22-.03-.31-.11-.08-.08-.12-.19-.11-.31v-8.67c0-.11.03-.23.11-.31.08-.08.19-.12.31-.11h2.86c.36,0,.72.07,1.05.2.64.26,1.14.76,1.4,1.4.13.33.2.69.2,1.05.01.97-.5,1.87-1.34,2.34-.15.08-.18.22-.1.41l1.68,3.59c.06.11.07.24.01.36-.06.1-.18.16-.29.15h-.63ZM77.94,59.01c.18,0,.37-.04.54-.11.17-.07.33-.17.46-.3.28-.28.43-.66.43-1.06,0-.2-.04-.4-.12-.58-.07-.17-.18-.32-.31-.44-.13-.12-.29-.22-.46-.28-.17-.07-.35-.1-.54-.1h-1.72c-.07,0-.13.04-.14.11,0,.01,0,.02,0,.03v2.59c0,.07.04.13.11.14.01,0,.02,0,.03,0h1.72Z"/>
        <path id="Path_2587" class="cls-1" d="M86.7,63.01c.08.07.12.17.12.28,0,.11-.05.21-.12.29-.23.27-.51.49-.82.64-.4.21-.85.31-1.3.29-.36,0-.72-.06-1.06-.19-.3-.12-.57-.3-.8-.52-.23-.22-.4-.49-.52-.78-.12-.3-.19-.62-.18-.95v-1.65c0-.33.05-.65.16-.96.1-.29.26-.56.48-.79.22-.23.48-.41.77-.53.33-.14.68-.21,1.04-.2.36,0,.72.06,1.05.2.3.12.56.3.79.53.22.23.39.49.5.79.12.31.18.63.18.96v.84c0,.11-.03.23-.11.31-.08.08-.19.12-.31.11h-3.15c-.07,0-.13.04-.14.11,0,.01,0,.02,0,.03v.25c-.01.33.1.65.32.9.26.26.62.39.98.36.29.02.57-.05.82-.19.16-.1.31-.22.45-.36.08-.09.19-.15.31-.15.11,0,.21.05.28.13l.27.23ZM85.72,60.43c0-.33-.09-.65-.29-.91-.24-.27-.6-.41-.96-.38-.35-.04-.7.1-.92.38-.18.27-.28.58-.27.91v.07c0,.07.04.13.11.14.01,0,.02,0,.03,0h2.17c.07,0,.13-.04.14-.1,0-.01,0-.02,0-.04v-.07Z"/>
        <path id="Path_2588" class="cls-1" d="M90.35,64.38c-.48.04-.96-.13-1.29-.49-.28-.38-.42-.85-.4-1.33v-7.27c0-.11.03-.23.11-.31.08-.08.19-.12.31-.11h.42c.21-.02.4.14.42.35,0,.02,0,.04,0,.06v7.41c0,.13.04.26.12.36.1.09.23.14.36.13h.14c.11,0,.23.03.31.11.08.08.12.19.11.31v.35c0,.11-.03.22-.11.31-.08.08-.19.12-.31.11h-.19Z"/>
        <path id="Path_2589" class="cls-1" d="M96.41,64.38c-.12,0-.23-.04-.31-.12-.07-.08-.11-.18-.11-.28,0-.04-.02-.09-.06-.1-.05-.01-.1,0-.12.05-.15.19-.35.34-.58.43-.29.12-.61.18-.93.17-.31,0-.62-.06-.9-.18-.27-.12-.51-.29-.7-.52-.2-.24-.36-.51-.46-.8-.11-.33-.17-.68-.17-1.03v-1.24c0-.35.07-.71.2-1.04.12-.32.31-.6.55-.84.24-.24.53-.43.84-.57.34-.14.71-.21,1.08-.21h2.08c.22-.02.4.15.42.36,0,.02,0,.04,0,.06v5.45c.02.21-.14.4-.35.42-.02,0-.04,0-.07,0h-.42ZM95.99,59.42c0-.07-.04-.13-.11-.14-.01,0-.02,0-.03,0h-1.05c-.41-.02-.8.13-1.08.43-.26.28-.39.65-.39,1.04v1.38c-.01.32.1.63.32.86.23.23.55.35.87.33.22,0,.45-.04.65-.13.18-.08.33-.21.45-.36.12-.15.21-.32.27-.5.06-.18.09-.37.09-.57v-2.36Z"/>
        <path id="Path_2590" class="cls-1" d="M101.46,64.38c-.57.05-1.14-.16-1.54-.57-.35-.45-.53-1.02-.49-1.59v-2.79c0-.07-.04-.13-.11-.14-.01,0-.02,0-.03,0h-.42c-.21.02-.4-.13-.42-.34,0-.02,0-.05,0-.07v-.35c0-.11.03-.22.11-.31.08-.08.19-.12.31-.11h.42c.07,0,.13-.04.14-.11,0-.01,0-.02,0-.03v-.98c-.02-.21.14-.4.35-.42.02,0,.05,0,.07,0h.42c.11,0,.22.03.31.11.08.08.12.19.11.31v.98c0,.07.04.13.1.14.01,0,.02,0,.04,0h1.05c.11,0,.23.03.31.11.08.08.12.19.11.31v.35c.02.21-.13.4-.35.42-.02,0-.05,0-.07,0h-1.05c-.07,0-.13.04-.14.11,0,.01,0,.02,0,.03v2.73c-.01.27.05.54.19.77.18.21.45.31.72.28h.28c.11,0,.23.03.31.11.08.08.12.19.11.31v.35c0,.11-.03.22-.11.31-.08.08-.19.12-.31.11h-.41Z"/>
        <path id="Path_2591" class="cls-1" d="M104.09,57.12c-.11,0-.22-.03-.31-.11-.08-.08-.12-.19-.11-.31v-.7c-.02-.21.14-.4.35-.42.02,0,.05,0,.07,0h.42c.21-.02.4.14.42.35,0,.02,0,.05,0,.07v.7c0,.11-.03.22-.11.31-.08.08-.19.12-.31.11h-.42ZM104.09,64.38c-.11,0-.22-.03-.31-.11-.08-.08-.12-.19-.11-.31v-5.45c0-.11.03-.22.11-.31.08-.08.19-.12.31-.11h.42c.11,0,.23.03.31.11.08.08.12.19.11.31v5.45c0,.11-.03.22-.11.31-.08.08-.19.12-.31.11h-.42Z"/>
        <path id="Path_2592" class="cls-1" d="M109.75,64.52c-.44,0-.87-.08-1.28-.26-.39-.17-.74-.41-1.04-.71-.3-.3-.54-.65-.71-1.04-.35-.82-.35-1.74,0-2.56.17-.39.41-.74.71-1.04.3-.3.65-.54,1.04-.71.82-.34,1.74-.34,2.56,0,.39.17.74.41,1.04.71.3.3.54.65.71,1.04.35.82.35,1.74,0,2.56-.17.39-.41.74-.71,1.04-.3.3-.65.54-1.04.71-.4.17-.84.26-1.28.26ZM109.75,63.33c.28,0,.55-.05.8-.17.24-.11.46-.26.64-.45.19-.19.33-.42.43-.66.21-.53.21-1.11,0-1.63-.1-.25-.24-.47-.43-.67-.18-.19-.4-.34-.64-.45-.51-.22-1.09-.22-1.61,0-.24.11-.46.26-.64.45-.18.19-.33.42-.43.67-.2.53-.2,1.11,0,1.63.1.25.24.47.43.66.18.19.4.34.64.45.25.11.53.17.81.17Z"/>
        <path id="Path_2593" class="cls-1" d="M118.77,64.38c-.11,0-.22-.03-.31-.11-.08-.08-.12-.19-.11-.31v-3.49c0-.34-.11-.67-.33-.93-.56-.53-1.44-.53-2,0-.22.26-.33.59-.33.93v3.49c0,.11-.03.22-.11.31-.08.08-.19.12-.31.11h-.42c-.11,0-.23-.03-.31-.11-.08-.08-.12-.19-.11-.31v-3.49c0-.33.06-.66.19-.96.12-.3.3-.57.53-.8.23-.23.51-.42.81-.55.68-.27,1.44-.27,2.12,0,.3.13.58.31.81.55.23.23.4.5.52.8.13.31.19.63.19.96v3.49c0,.11-.03.22-.11.31-.08.08-.19.12-.31.11h-.42Z"/>
        <path id="Path_2594" class="cls-1" d="M121.34,62.99c.16-.19.35-.18.57.01.11.09.24.17.37.23.16.07.34.11.52.1.22,0,.44-.05.63-.17.16-.09.25-.26.25-.45,0-.18-.08-.35-.22-.46-.25-.19-.51-.36-.8-.49-.23-.11-.46-.24-.67-.38-.18-.12-.35-.26-.5-.43-.29-.32-.44-.74-.43-1.16,0-.25.05-.49.14-.71.09-.22.23-.42.4-.58.18-.17.39-.31.63-.4.26-.1.55-.15.83-.15.34,0,.68.07.99.21.23.1.44.24.63.42.07.08.11.19.12.3,0,.11-.04.21-.12.29l-.25.26c-.07.08-.16.13-.26.16-.1.02-.21-.02-.27-.11-.22-.22-.52-.35-.84-.35-.21-.02-.43.05-.59.18-.13.12-.2.3-.19.48,0,.19.1.37.26.47.21.15.44.28.67.38.25.1.48.22.71.36.2.12.38.26.54.42.15.15.26.33.35.52.09.21.13.44.12.67,0,.28-.06.56-.18.82-.12.23-.28.44-.48.6-.2.16-.43.29-.68.36-.25.08-.51.12-.78.12-.36.01-.72-.05-1.06-.17-.26-.1-.49-.26-.67-.47-.07-.08-.11-.18-.12-.29,0-.11.04-.22.12-.29l.25-.3Z"/>
      </g>
    </g>
  </g>
</svg>