<?xml version="1.0" encoding="UTF-8"?>
<svg id="Layer_2" xmlns="http://www.w3.org/2000/svg" viewBox="0 0 124.94 64.52">
  <defs>
    <style>
      .cls-1 {
        fill: #ff6c0e;
      }
    </style>
  </defs>
  <g id="Layer_2-2" data-name="Layer_2">
    <g id="Group_3795">
      <g id="Group_3793">
        <g id="Group_3792">
          <path id="Path_2521" class="cls-1" d="M45.61,3.38h-2.15c-1.09-.1-2.05.7-2.14,1.79-.01.12-.01.24,0,.36v3.57c-.09,1.09.71,2.05,1.81,2.15.11,0,.23,0,.34,0h2.15c1.09.09,2.05-.71,2.14-1.8.01-.12,0-.23,0-.35v-3.57c.1-1.08-.69-2.04-1.78-2.15-.12-.01-.24-.01-.37,0"/>
          <path id="Path_2522" class="cls-1" d="M45.61,16.26h-2.15c-1.08-.1-2.04.7-2.14,1.78-.01.12-.01.24,0,.36v27.99c-.09,1.09.72,2.05,1.81,2.15.11,0,.22,0,.33,0h2.15c1.09.09,2.05-.72,2.14-1.81,0-.11,0-.23,0-.34v-27.99c.1-1.08-.7-2.04-1.78-2.14-.12-.01-.24-.01-.36,0"/>
          <path id="Path_2523" class="cls-1" d="M76.28,36.39c-.47,1.22-1.19,2.33-2.1,3.26-.9.93-1.97,1.68-3.16,2.2-2.52,1.1-5.39,1.1-7.91,0-1.18-.53-2.26-1.27-3.16-2.2-.91-.94-1.62-2.05-2.1-3.26-1-2.59-1-5.45,0-8.04.48-1.22,1.19-2.33,2.1-3.27.91-.92,1.98-1.67,3.16-2.2,2.52-1.1,5.39-1.1,7.91,0,1.18.53,2.25,1.28,3.16,2.2.91.94,1.62,2.05,2.1,3.27,1.01,2.58,1.01,5.45,0,8.04M78.48,20.97c-1.47-1.47-3.21-2.65-5.12-3.47-4.02-1.7-8.56-1.7-12.58,0-3.86,1.66-6.94,4.73-8.6,8.59-1.7,4.02-1.7,8.56,0,12.58,1.67,3.86,4.74,6.93,8.6,8.59,4.02,1.7,8.56,1.7,12.58,0,3.85-1.67,6.93-4.74,8.59-8.59,1.69-4.02,1.69-8.56,0-12.58-.83-1.91-2.01-3.65-3.48-5.12"/>
          <path id="Path_2524" class="cls-1" d="M96.04,42.45h-.71c-.69.05-1.36-.2-1.86-.67-.45-.5-.68-1.16-.65-1.83V2.16c.1-1.09-.7-2.05-1.78-2.15-.12-.01-.24-.01-.36,0h-2.15c-1.09-.09-2.05.71-2.15,1.8,0,.11,0,.23,0,.34v37.07c-.13,2.43.59,4.84,2.04,6.8,1.36,1.67,3.56,2.5,6.61,2.51h1c1.09.09,2.05-.72,2.15-1.81,0-.11,0-.23,0-.34v-1.79c.03-.58-.17-1.15-.57-1.58-.42-.4-.99-.61-1.57-.58"/>
          <path id="Path_2525" class="cls-1" d="M118.43,34.78c0,.97-.15,1.93-.45,2.85-.3.91-.77,1.75-1.37,2.49-.62.75-1.4,1.36-2.28,1.79-1.03.47-2.15.69-3.27.66-1.64.09-3.24-.52-4.39-1.68-1.08-1.19-1.65-2.75-1.59-4.35v-6.96c-.03-1.91.66-3.77,1.94-5.19,1.4-1.5,3.4-2.3,5.45-2.18h5.27c.34-.05.65.18.7.52,0,.06,0,.12,0,.18v11.86ZM124.2,16.82c-.42-.39-.98-.6-1.55-.56h-10.47c-1.86-.02-3.7.34-5.42,1.05-1.59.67-3.03,1.64-4.25,2.85-1.21,1.21-2.15,2.66-2.78,4.25-.65,1.65-.99,3.41-.98,5.19v6.25c-.02,1.75.26,3.5.84,5.16.51,1.48,1.3,2.85,2.33,4.04.97,1.11,2.17,2,3.51,2.59,1.42.62,2.95.93,4.5.92,1.6.04,3.19-.25,4.67-.84,1.15-.46,2.15-1.21,2.92-2.18.12-.21.37-.31.6-.24.31.09.32.94.32,1.22,0,.53.2,1.03.56,1.41.39.43.96.66,1.54.63h2.11c.57.03,1.13-.17,1.55-.56.39-.42.59-.98.56-1.55v-28.07c.03-.57-.17-1.13-.56-1.54"/>
          <path id="Path_2526" class="cls-1" d="M36.74,16.24h-2.97c-1.13-.11-2.16.63-2.43,1.73l-8.05,21.44c-.14.52-.38.78-.71.78s-.58-.26-.72-.78L8.99,6.44h9c1.3.11,2.45-.85,2.56-2.15.01-.14.01-.27,0-.41v-1.28c.11-1.3-.85-2.45-2.16-2.56-.14-.01-.27-.01-.41,0H1.66C.29.04-.33.73.17,2.01l17.78,44.6c.14.6.47,1.14.95,1.53.49.28,1.04.42,1.61.39h4.03c.56.02,1.12-.12,1.61-.4.48-.39.81-.93.95-1.53l11.09-28.37c.38-1.33-.09-1.99-1.47-1.99"/>
        </g>
      </g>
      <g id="Group_3794">
        <path id="Path_2527" class="cls-1" d="M73.23,64.38c-.21.02-.4-.14-.42-.35,0-.02,0-.05,0-.07v-8.67c0-.11.03-.22.11-.31.08-.08.19-.12.31-.11h2.93c.37,0,.73.08,1.06.22.33.14.62.35.87.61.25.26.44.57.58.9.29.69.29,1.46,0,2.14-.14.33-.34.63-.58.89-.24.26-.54.47-.87.61-.33.15-.7.23-1.06.22h-1.89c-.07,0-.13.04-.14.1,0,.01,0,.02,0,.04v3.35c.02.21-.14.4-.35.42-.02,0-.05,0-.07,0h-.49ZM76.06,59.22c.19,0,.37-.03.55-.1.18-.06.34-.16.48-.29.14-.14.26-.3.34-.48.28-.61.15-1.34-.34-1.81-.14-.13-.3-.23-.48-.29-.17-.07-.36-.1-.55-.1h-1.79c-.07,0-.13.04-.14.11,0,.01,0,.02,0,.03v2.79c0,.07.04.13.11.14.01,0,.02,0,.03,0h1.79Z"/>
        <path id="Path_2528" class="cls-1" d="M80.35,64.38c-.21.02-.4-.13-.42-.35,0-.02,0-.05,0-.07v-3.57c-.03-.61.18-1.21.59-1.66.43-.44,1.02-.68,1.64-.64h.5c.11,0,.22.04.31.11.08.08.12.19.11.31v.35c0,.11-.03.22-.11.31-.08.08-.19.12-.31.11h-.42c-.3-.02-.59.1-.79.33-.18.25-.27.55-.26.86v3.49c.02.21-.13.4-.34.42-.02,0-.05,0-.07,0h-.42Z"/>
        <path id="Path_2529" class="cls-1" d="M87.06,64.52c-.44,0-.88-.08-1.28-.26-.39-.17-.74-.41-1.04-.71-.3-.3-.53-.65-.7-1.04-.35-.82-.35-1.74,0-2.56.34-.78.96-1.41,1.75-1.75.82-.34,1.74-.34,2.56,0,.39.17.74.41,1.04.71.3.3.54.65.71,1.04.35.82.35,1.74,0,2.56-.34.78-.96,1.41-1.75,1.75-.41.17-.84.26-1.28.26ZM87.06,63.34c.28,0,.55-.05.8-.17.24-.11.46-.26.64-.45.18-.19.33-.42.43-.66.2-.53.2-1.11,0-1.63-.1-.25-.24-.47-.43-.67-.19-.19-.4-.34-.64-.45-.51-.22-1.09-.22-1.61,0-.24.11-.46.26-.64.45-.18.19-.33.42-.43.67-.2.53-.2,1.11,0,1.63.1.25.24.47.43.66.18.19.4.34.64.45.25.11.53.17.81.17Z"/>
        <path id="Path_2530" class="cls-1" d="M94.05,64.38c-.34,0-.68-.06-1-.18-.29-.11-.55-.28-.78-.49-.22-.21-.39-.47-.5-.76-.12-.3-.18-.62-.18-.94v-1.54c0-.32.06-.64.18-.94.11-.28.28-.54.5-.75.22-.21.47-.38.75-.5.3-.12.63-.19.96-.18h1.39c.07,0,.13-.04.14-.1,0-.01,0-.02,0-.04v-2.66c0-.11.03-.22.11-.31.08-.08.19-.12.31-.11h.42c.11,0,.22.03.31.11.08.08.12.19.11.31v8.67c.02.21-.13.4-.34.42-.02,0-.05,0-.07,0h-2.3ZM95.51,59.42c0-.07-.04-.13-.11-.14-.01,0-.02,0-.03,0h-1.33c-.62-.03-1.16.45-1.19,1.07,0,.04,0,.08,0,.12v1.54c-.01.32.11.64.35.86.23.21.53.33.84.33h1.33c.07,0,.13-.04.14-.1,0-.01,0-.02,0-.04v-3.63Z"/>
        <path id="Path_2531" class="cls-1" d="M102.29,58.52c0-.11.03-.23.11-.31.08-.08.19-.12.31-.11h.42c.11,0,.22.04.31.11.08.08.12.19.11.31v3.49c0,.33-.06.66-.18.97-.23.61-.71,1.1-1.31,1.35-.68.27-1.43.27-2.11,0-.3-.13-.57-.31-.8-.55-.22-.23-.4-.5-.52-.8-.12-.31-.18-.63-.18-.97v-3.49c-.02-.21.14-.4.35-.42.02,0,.04,0,.07,0h.42c.11,0,.22.04.31.11.08.08.12.19.11.31v3.49c0,.34.11.67.32.93.25.28.61.43.99.4.37.03.74-.12.98-.4.21-.27.31-.59.31-.93v-3.49Z"/>
        <path id="Path_2532" class="cls-1" d="M109.48,63.14c.08.07.12.17.11.28-.01.11-.05.21-.12.29-.21.23-.46.41-.73.55-.35.18-.74.27-1.14.26-.37,0-.74-.06-1.08-.2-.3-.12-.57-.31-.79-.55-.22-.23-.38-.5-.48-.8-.11-.31-.16-.64-.16-.97v-1.54c0-.33.06-.66.18-.96.11-.3.28-.57.5-.8.23-.23.49-.42.79-.55.33-.14.69-.21,1.05-.2.66-.01,1.29.24,1.76.7.16.15.17.4.02.57,0,0-.01.01-.02.02l-.26.27c-.14.16-.37.17-.52.04-.02-.02-.03-.03-.05-.05-.12-.1-.25-.19-.4-.25-.17-.07-.34-.1-.52-.1-.37-.03-.73.12-.96.4-.2.27-.3.6-.29.93v1.54c0,.17.02.34.06.51.04.16.11.3.21.43.1.12.24.22.38.29.19.07.4.11.6.1.22,0,.44-.05.63-.15.15-.08.29-.18.42-.29.14-.16.39-.18.55-.04.01.01.02.02.04.04l.25.24Z"/>
        <path id="Path_2533" class="cls-1" d="M115.34,63.01c.08.07.12.17.12.28,0,.11-.05.21-.12.29-.23.27-.51.49-.82.64-.4.21-.85.31-1.3.29-.36,0-.72-.06-1.05-.19-.3-.12-.57-.3-.8-.52-.22-.22-.4-.49-.52-.78-.12-.3-.18-.62-.18-.95v-1.65c0-.33.05-.65.16-.96.1-.29.26-.56.48-.79.22-.23.48-.41.77-.53.33-.14.68-.21,1.04-.2.36,0,.72.06,1.05.2.3.12.56.3.79.53.22.23.39.49.5.79.12.31.18.63.18.96v.84c0,.11-.03.22-.11.31-.08.08-.19.12-.31.11h-3.14c-.07,0-.13.04-.14.11,0,.01,0,.02,0,.03v.25c-.01.33.1.65.31.9.26.26.62.39.99.36.29.02.57-.05.82-.19.16-.1.31-.22.45-.36.13-.17.36-.2.53-.07.02.02.04.04.06.06l.26.23ZM114.36,60.43c0-.33-.09-.65-.29-.91-.24-.27-.6-.41-.96-.38-.35-.04-.7.1-.92.38-.18.27-.28.58-.27.91v.07c0,.07.04.13.11.14.01,0,.02,0,.03,0h2.17c.07,0,.13-.04.14-.11,0,0,0-.02,0-.03v-.07Z"/>
        <path id="Path_2534" class="cls-1" d="M117.58,64.38c-.21.02-.4-.13-.42-.35,0-.02,0-.05,0-.07v-3.57c-.03-.61.18-1.21.59-1.66.43-.44,1.02-.68,1.64-.64h.5c.11,0,.22.04.31.11.08.08.12.19.11.31v.35c0,.11-.03.22-.11.31-.08.08-.19.12-.31.11h-.42c-.3-.02-.6.1-.79.33-.18.25-.27.55-.26.86v3.49c.02.21-.14.4-.35.42-.02,0-.05,0-.07,0h-.42Z"/>
        <path id="Path_2535" class="cls-1" d="M121.33,62.99c.16-.19.35-.18.57.01.11.09.24.17.37.23.16.07.34.11.52.1.22,0,.44-.05.63-.17.16-.09.25-.26.25-.45,0-.18-.08-.35-.22-.46-.25-.19-.51-.36-.8-.49-.23-.11-.46-.24-.67-.38-.18-.12-.35-.26-.5-.43-.13-.15-.24-.32-.31-.51-.08-.21-.12-.43-.11-.66,0-.25.05-.49.14-.71.09-.22.23-.42.4-.58.18-.17.39-.31.63-.4.27-.1.55-.15.83-.15.34,0,.68.07.99.21.23.1.44.24.63.42.07.08.11.19.12.3,0,.11-.04.21-.12.29l-.25.26c-.07.08-.16.13-.26.16-.1.02-.21-.02-.27-.11-.22-.22-.52-.35-.84-.35-.21-.02-.43.05-.59.18-.13.12-.19.3-.19.48,0,.19.1.37.26.47.21.15.43.28.67.38.24.1.48.22.71.36.2.12.38.26.54.42.15.15.27.33.35.52.09.21.13.44.12.67,0,.28-.06.56-.18.82-.12.23-.28.44-.48.6-.2.16-.43.29-.68.36-.25.08-.51.12-.78.12-.36.01-.72-.05-1.06-.17-.26-.1-.49-.26-.67-.47-.07-.08-.11-.18-.12-.29,0-.11.04-.22.12-.29l.25-.3Z"/>
      </g>
    </g>
  </g>
</svg>