<svg data-name="001-facebook" xmlns="http://www.w3.org/2000/svg" width="43.714" height="43.714"><path data-name="Path 1673" d="M25.378 43.43q-.273.044-.548.082.279-.037.548-.082zm0 0" fill="#581dc9"/><path data-name="Path 1674" d="M25.818 43.355l-.261.046zm0 0" fill="#581dc9"/><path data-name="Path 1675" d="M24.345 43.573q-.32.036-.643.063.323-.027.643-.063zm0 0" fill="#581dc9"/><path data-name="Path 1676" d="M24.764 43.521l-.308.038zm0 0" fill="#581dc9"/><path data-name="Path 1677" d="M26.414 43.237l-.231.048zm0 0" fill="#581dc9"/><path data-name="Path 1678" d="M27.89 42.87l-.186.052zm0 0" fill="#581dc9"/><path data-name="Path 1679" d="M27.443 42.992l-.2.053zm0 0" fill="#581dc9"/><path data-name="Path 1680" d="M26.86 43.138l-.215.048zm0 0" fill="#581dc9"/><path data-name="Path 1681" d="M23.695 43.637q-.173.015-.346.026.174-.016.346-.026zm0 0" fill="#581dc9"/><path data-name="Path 1682" d="M43.714 21.857a21.857 21.857 0 10-21.857 21.857c.128 0 .256 0 .384-.005V26.694h-4.7v-5.472h4.7v-4.027c0-4.671 2.851-7.213 7.017-7.213a38.655 38.655 0 014.21.215v4.881H30.6c-2.267 0-2.705 1.077-2.705 2.658v3.486h5.42l-.715 5.472h-4.71V42.87a21.869 21.869 0 0015.824-21.013zm0 0" fill="#581dc9"/><path data-name="Path 1683" d="M23.302 43.666q-.341.022-.685.034.343-.012.685-.034zm0 0" fill="#581dc9"/><path data-name="Path 1684" d="M22.605 43.7q-.181.006-.363.009.181-.003.363-.009zm0 0" fill="#581dc9"/></svg>