<svg data-name="011-instagram" xmlns="http://www.w3.org/2000/svg" width="43.714" height="43.714"><path data-name="Path 1685" d="M26.041 21.858a4.184 4.184 0 11-4.183-4.184 4.184 4.184 0 014.183 4.184zm0 0" fill="#581dc9"/><path data-name="Path 1686" d="M31.641 14.456a4.156 4.156 0 00-2.382-2.382 6.943 6.943 0 00-2.33-.432c-1.324-.06-1.721-.073-5.072-.073s-3.748.013-5.072.073a6.948 6.948 0 00-2.33.432 4.158 4.158 0 00-2.382 2.382 6.946 6.946 0 00-.432 2.331c-.06 1.323-.073 1.72-.073 5.072s.013 3.748.073 5.072a6.945 6.945 0 00.432 2.33 4.156 4.156 0 002.382 2.382 6.934 6.934 0 002.331.432c1.323.06 1.72.073 5.071.073s3.749-.013 5.072-.073a6.934 6.934 0 002.331-.432 4.156 4.156 0 002.382-2.382 6.952 6.952 0 00.432-2.33c.06-1.324.073-1.721.073-5.072s-.013-3.748-.073-5.072a6.934 6.934 0 00-.433-2.331zm-9.784 13.847a6.445 6.445 0 116.445-6.445 6.445 6.445 0 01-6.445 6.444zm6.7-11.638a1.506 1.506 0 111.506-1.506 1.506 1.506 0 01-1.506 1.505zm0 0" fill="#581dc9"/><path data-name="Path 1687" d="M21.857 0a21.857 21.857 0 1021.857 21.857A21.86 21.86 0 0021.857 0zm12.475 27.032a9.208 9.208 0 01-.583 3.047 6.417 6.417 0 01-3.671 3.671 9.215 9.215 0 01-3.046.583c-1.338.061-1.766.076-5.174.076s-3.836-.015-5.175-.076a9.215 9.215 0 01-3.046-.583 6.418 6.418 0 01-3.671-3.671 9.206 9.206 0 01-.583-3.046c-.062-1.339-.076-1.766-.076-5.175s.014-3.836.076-5.174a9.209 9.209 0 01.583-3.047 6.422 6.422 0 013.671-3.671 9.217 9.217 0 013.047-.583c1.338-.061 1.766-.076 5.174-.076s3.836.015 5.174.076a9.219 9.219 0 013.047.583 6.419 6.419 0 013.671 3.671 9.207 9.207 0 01.584 3.047c.061 1.338.075 1.766.075 5.174s-.015 3.835-.077 5.174zm0 0" fill="#581dc9"/></svg>