<svg xmlns="http://www.w3.org/2000/svg" width="50" height="54.559"><g data-name="Group 3853"><g data-name="Group 3830"><path data-name="Path 2635" d="M25 54.559a25.015 25.015 0 01-9.852-48 .743.743 0 01.586 1.366 23.515 23.515 0 1018.544.005.743.743 0 01.586-1.366 25.015 25.015 0 01-9.864 48z" fill="#16092c"/></g><g data-name="Group 3852"><g data-name="Group 3831"><path data-name="Path 2636" d="M23.359 54.007a.741.741 0 01-.715-.935c1.2-4.5 1.443-15.587-.005-21.622-1.514-6.314-4.332-18.067-4.332-24.555 0-2.523.638-4.411 1.9-5.611A4.639 4.639 0 0123.399.001l.119.016c6.846 1.5 8.235 9.789 8.291 10.142l.014.09-.417 4.881c1.278.614 4.5 2.428 4.5 5.172-.2 12.352 1.2 25.568 4.785 27.279a.742.742 0 01-.636 1.341c-5.612-2.678-8.613-21.727-8.514-27.767 0-1.942-.055-4.418-1.187-4.872l-.51-.2.493-5.768c-.157-.828-1.6-7.577-7.06-8.825a3.149 3.149 0 00-2.068.9c-.94.911-1.417 2.43-1.417 4.514 0 6.312 2.9 18.4 4.291 24.207 1.52 6.341 1.268 17.593 0 22.355a.741.741 0 01-.724.541z" fill="#16092c"/></g><g data-name="Group 3832"><path data-name="Path 2637" d="M38.59 47.113a.739.739 0 01-.638-.363c-5.892-9.947-7.981-29.593-8.067-30.424a.74.74 0 011.472-.152c.021.2 2.143 20.156 7.868 29.822a.74.74 0 01-.635 1.117z" fill="#16092c"/></g><g data-name="Group 3833"><path data-name="Path 2638" d="M19.144 6.411a.363.363 0 01-.176-.045.369.369 0 01-.148-.5 5.655 5.655 0 017.966-2.025.37.37 0 11-.351.651c-4.6-2.477-6.871 1.554-6.965 1.727a.372.372 0 01-.326.192z" fill="#16092c"/></g><g data-name="Group 3834"><path data-name="Path 2639" d="M19.145 8.999a.365.365 0 01-.207-.064.371.371 0 01-.1-.513c.03-.045 3.049-4.4 7.711-2.312a.37.37 0 11-.3.675c-4.1-1.833-6.688 1.893-6.8 2.052a.369.369 0 01-.304.162z" fill="#16092c"/></g><g data-name="Group 3835"><path data-name="Path 2640" d="M19.27 11.677a.37.37 0 01-.292-.6c.033-.042 3.337-4.2 7.651-2.494a.37.37 0 11-.272.687c-3.8-1.5-6.675 2.107-6.795 2.262a.37.37 0 01-.292.145z" fill="#16092c"/></g><g data-name="Group 3836"><path data-name="Path 2641" d="M19.602 14.273a.37.37 0 01-.282-.61c.133-.157 3.322-3.855 7.25-2.646a.37.37 0 11-.217.707c-3.455-1.062-6.44 2.384-6.47 2.419a.368.368 0 01-.281.13z" fill="#16092c"/></g><g data-name="Group 3837"><path data-name="Path 2642" d="M19.918 16.29a.371.371 0 01-.253-.641c.138-.128 3.389-3.132 7.034-2.138a.37.37 0 01-.195.714c-3.229-.883-6.3 1.936-6.333 1.965a.372.372 0 01-.253.1z" fill="#16092c"/></g><g data-name="Group 3838"><path data-name="Path 2643" d="M20.509 18.583a.369.369 0 01-.238-.652c.135-.115 3.359-2.791 6.775-1.859a.37.37 0 11-.2.714c-3.037-.832-6.073 1.684-6.1 1.71a.371.371 0 01-.237.087z" fill="#16092c"/></g><g data-name="Group 3839"><path data-name="Path 2644" d="M20.783 21.018a.37.37 0 01-.218-.669c.147-.107 3.639-2.6 6.9-1.686a.371.371 0 01.256.456.367.367 0 01-.456.257c-2.913-.815-6.228 1.548-6.262 1.572a.366.366 0 01-.22.07z" fill="#16092c"/></g><g data-name="Group 3840"><path data-name="Path 2645" d="M21.254 23.331a.37.37 0 01-.183-.691c.926-.528 4.158-2.188 6.851-1.378a.37.37 0 11-.212.708c-2.476-.738-5.661.964-6.273 1.313a.371.371 0 01-.183.048z" fill="#16092c"/></g><g data-name="Group 3841"><path data-name="Path 2646" d="M21.786 25.655a.37.37 0 01-.156-.705c1.225-.57 4.324-1.819 6.673-1.112a.37.37 0 11-.214.708c-2.1-.635-5 .541-6.147 1.074a.368.368 0 01-.156.035z" fill="#16092c"/></g><g data-name="Group 3842"><path data-name="Path 2647" d="M22.323 28.016a.37.37 0 01-.132-.715c1.62-.62 4.641-1.553 6.668-.826a.371.371 0 11-.249.7c-1.874-.668-4.929.351-6.156.821a.377.377 0 01-.131.02z" fill="#16092c"/></g><g data-name="Group 3843"><path data-name="Path 2648" d="M22.882 30.399a.37.37 0 01-.11-.723c1.642-.517 4.667-1.284 6.46-.629a.37.37 0 11-.255.695c-1.642-.6-4.733.246-5.985.639a.334.334 0 01-.11.018z" fill="#16092c"/></g><g data-name="Group 3844"><path data-name="Path 2649" d="M23.454 32.809a.37.37 0 01-.092-.728c2.208-.564 5.132-1.076 6.521-.331a.37.37 0 11-.35.652c-.906-.487-3.089-.343-5.988.4a.353.353 0 01-.091.007z" fill="#16092c"/></g><g data-name="Group 3845"><path data-name="Path 2650" d="M31.398 35.271a.367.367 0 01-.141-.027c-1.607-.661-4.064-.654-7.3.02a.37.37 0 01-.15-.724c3.381-.705 5.982-.7 7.73.02a.37.37 0 01-.141.712z" fill="#16092c"/></g><g data-name="Group 3846"><path data-name="Path 2651" d="M33.193 38.01a.367.367 0 01-.1-.016 19.946 19.946 0 00-8.872-.229.37.37 0 11-.123-.729 20.657 20.657 0 019.2.249.37.37 0 01-.1.725z" fill="#16092c"/></g><g data-name="Group 3847"><path data-name="Path 2652" d="M33.496 40.591a.364.364 0 01-.121-.021 17.98 17.98 0 00-8.474-.371l-.538.075a.378.378 0 01-.415-.319.37.37 0 01.318-.415l.53-.078a18.619 18.619 0 018.82.4.37.37 0 01-.121.72z" fill="#16092c"/></g><g data-name="Group 3848"><path data-name="Path 2653" d="M33.496 43.138a.366.366 0 01-.115-.018c-2.856-.939-7.295-.5-8.966-.337a.379.379 0 01-.4-.332.371.371 0 01.333-.4c1.876-.184 6.267-.616 9.268.371a.37.37 0 01-.115.721z" fill="#16092c"/></g><g data-name="Group 3849"><path data-name="Path 2654" d="M24.358 45.309a.37.37 0 01-.109-.723c2.011-.621 4.705-.492 9.285-.015a.37.37 0 11-.077.735c-4.481-.467-7.1-.6-8.99-.014a.374.374 0 01-.109.017z" fill="#16092c"/></g><g data-name="Group 3850"><path data-name="Path 2655" d="M24.254 47.772a.37.37 0 01-.013-.74c.086 0 8.709-.248 9.127-.024a.37.37 0 01-.291.678c-.585-.09-6.949.024-8.812.086z" fill="#16092c"/></g><g data-name="Group 3851"><path data-name="Path 2656" d="M33.496 50.21h-9.44a.37.37 0 110-.74h9.44a.37.37 0 010 .74z" fill="#16092c"/></g></g></g></svg>