<svg xmlns="http://www.w3.org/2000/svg" width="25" height="25"><path data-name="Path 1685" d="M14.892 12.5a2.393 2.393 0 11-2.392-2.393 2.393 2.393 0 012.392 2.393zm0 0" fill="#fff"/><path data-name="Path 1686" d="M18.095 8.266a2.377 2.377 0 00-1.362-1.362 3.972 3.972 0 00-1.333-.247c-.757-.035-.984-.042-2.9-.042s-2.144.007-2.9.042a3.974 3.974 0 00-1.333.247 2.378 2.378 0 00-1.362 1.362 3.972 3.972 0 00-.247 1.333c-.035.757-.042.984-.042 2.9s.007 2.143.042 2.9a3.97 3.97 0 00.247 1.333 2.377 2.377 0 001.362 1.362 3.966 3.966 0 001.333.247c.757.035.984.042 2.9.042s2.144-.007 2.9-.042a3.967 3.967 0 001.333-.247 2.377 2.377 0 001.362-1.362 3.975 3.975 0 00.247-1.333c.035-.757.042-.984.042-2.9s-.007-2.144-.042-2.9a3.966 3.966 0 00-.247-1.333zm-5.6 7.919a3.686 3.686 0 113.686-3.686 3.686 3.686 0 01-3.681 3.686zm3.836-6.658a.861.861 0 11.861-.861.861.861 0 01-.861.861zm0 0" fill="#fff"/><path data-name="Path 1687" d="M12.5 0A12.5 12.5 0 1025 12.5 12.5 12.5 0 0012.5 0zm7.134 15.459A5.266 5.266 0 0119.3 17.2a3.67 3.67 0 01-2.1 2.1 5.27 5.27 0 01-1.742.334c-.765.035-1.01.043-2.959.043s-2.194-.008-2.959-.043A5.27 5.27 0 017.8 19.3a3.67 3.67 0 01-2.1-2.1 5.265 5.265 0 01-.334-1.742c-.035-.766-.043-1.01-.043-2.959s.008-2.194.043-2.959A5.267 5.267 0 015.7 7.8a3.673 3.673 0 012.1-2.1 5.271 5.271 0 011.742-.334c.765-.035 1.01-.043 2.959-.043s2.194.008 2.959.043a5.272 5.272 0 011.74.334 3.671 3.671 0 012.1 2.1 5.266 5.266 0 01.334 1.742c.035.765.043 1.01.043 2.959s-.007 2.193-.043 2.958zm0 0" fill="#fff"/></svg>