<svg xmlns="http://www.w3.org/2000/svg" width="142.374" height="24.394"><defs><style>.cls-1{fill:#fff}</style></defs><g id="interactive" transform="translate(25.864 -17.3)"><g id="Group_3811" data-name="Group 3811" transform="translate(-25.865 17.3)"><path id="Path_2601" data-name="Path 2601" class="cls-1" d="M8795.723 9549.506a.967.967 0 01-1.051-1.051v-21.926a.968.968 0 011.051-1.055h1.242a1.047 1.047 0 01.777.277 1.02 1.02 0 01.285.777v21.926a1.029 1.029 0 01-.285.773 1.047 1.047 0 01-.777.277z" transform="translate(-8794.672 -9525.475)"/><path id="Path_2602" data-name="Path 2602" class="cls-1" d="M8835.223 9570.674a.968.968 0 01-1.051-1.059v-8.844a3.581 3.581 0 00-.836-2.352 3.7 3.7 0 00-5.059 0 3.577 3.577 0 00-.832 2.352v8.844a1.052 1.052 0 01-.277.773 1.086 1.086 0 01-.777.285h-1.062a.979.979 0 01-1.059-1.059v-8.844a6.407 6.407 0 01.477-2.437 6.21 6.21 0 011.32-2.031 6.4 6.4 0 012.055-1.387 7.313 7.313 0 015.375 0 6.246 6.246 0 013.379 3.418 6.4 6.4 0 01.473 2.438v8.844a.974.974 0 01-1.055 1.059z" transform="translate(-8816.31 -9546.63)"/><path id="Path_2603" data-name="Path 2603" class="cls-1" d="M8891.748 9561.063a4.853 4.853 0 01-3.9-1.457 5.939 5.939 0 01-1.254-4.031v-7.066a.317.317 0 00-.359-.355h-1.059a1.071 1.071 0 01-.777-.277 1.032 1.032 0 01-.285-.773v-.887a.99.99 0 011.063-1.066h1.059a.313.313 0 00.359-.355v-2.477a1.028 1.028 0 01.277-.77 1.063 1.063 0 01.781-.285h1.059a1.035 1.035 0 01.777.285 1.047 1.047 0 01.285.77v2.477a.31.31 0 00.352.355h2.645a.991.991 0 011.07 1.066v.887a1.017 1.017 0 01-.285.773 1.053 1.053 0 01-.785.277h-2.645a.315.315 0 00-.352.355v6.9a3.455 3.455 0 00.48 1.941 2.017 2.017 0 001.813.7h.7a1.031 1.031 0 01.785.293 1 1 0 01.285.77v.887a1.044 1.044 0 01-.285.777 1.057 1.057 0 01-.785.285z" transform="translate(-8860.074 -9537.019)"/><path id="Path_2604" data-name="Path 2604" class="cls-1" d="M8942.629 9567.209a.963.963 0 01.3.707 1.351 1.351 0 01-.3.746 6.91 6.91 0 01-5.379 2.359 6.9 6.9 0 01-2.668-.48 5.927 5.927 0 01-3.344-3.3 6.374 6.374 0 01-.453-2.4v-4.172a7.335 7.335 0 01.406-2.426 5.518 5.518 0 011.2-1.992 5.971 5.971 0 011.945-1.352 6.8 6.8 0 012.637-.492 6.933 6.933 0 012.652.492 6.219 6.219 0 011.992 1.352 5.581 5.581 0 011.273 1.992 6.55 6.55 0 01.438 2.426v2.117a1.035 1.035 0 01-.277.777 1.051 1.051 0 01-.777.285h-7.949a.317.317 0 00-.359.359v.633a3.365 3.365 0 00.8 2.262 3.116 3.116 0 002.488.918 3.985 3.985 0 002.094-.473 6.077 6.077 0 001.125-.9 1.071 1.071 0 01.777-.375 1.053 1.053 0 01.715.34zm-2.48-6.543a3.626 3.626 0 00-.734-2.3 2.913 2.913 0 00-2.441-.949 2.67 2.67 0 00-2.34.949 3.945 3.945 0 00-.668 2.3v.18a.315.315 0 00.359.352h5.473a.312.312 0 00.352-.352z" transform="translate(-8894.205 -9546.63)"/><path id="Path_2605" data-name="Path 2605" class="cls-1" d="M8993.027 9571.627a1.077 1.077 0 01-.781-.281 1.059 1.059 0 01-.285-.777v-9.02a5.991 5.991 0 011.5-4.211 5.311 5.311 0 014.129-1.621h1.273a.969.969 0 011.055 1.063v.883a1.033 1.033 0 01-.273.777 1.077 1.077 0 01-.781.281h-1.066a2.4 2.4 0 00-1.988.832 3.386 3.386 0 00-.664 2.176v8.84a1.086 1.086 0 01-.273.777 1.067 1.067 0 01-.785.281z" transform="translate(-8938.936 -9547.589)"/><path id="Path_2606" data-name="Path 2606" class="cls-1" d="M9041.729 9571.627a1 1 0 01-.781-.32 1.042 1.042 0 01-.285-.711.258.258 0 00-.152-.262.27.27 0 00-.309.125 3.5 3.5 0 01-1.465 1.1 5.945 5.945 0 01-2.348.426 5.35 5.35 0 01-2.262-.469 4.845 4.845 0 01-1.77-1.309 6.143 6.143 0 01-1.164-2.02 7.653 7.653 0 01-.426-2.6v-3.148a7.117 7.117 0 01.488-2.621 6.352 6.352 0 011.4-2.133 6.505 6.505 0 012.137-1.434 6.787 6.787 0 012.715-.531h5.277a1.015 1.015 0 01.777.285 1.062 1.062 0 01.277.777v13.789a1.088 1.088 0 01-.277.777 1.042 1.042 0 01-.777.281zm-1.066-12.555a.314.314 0 00-.352-.352h-2.652a3.473 3.473 0 00-2.738 1.094 3.832 3.832 0 00-.969 2.621v3.5a3.1 3.1 0 00.793 2.2 2.868 2.868 0 002.2.84 3.861 3.861 0 001.652-.328 3.344 3.344 0 001.148-.9 3.9 3.9 0 00.688-1.254 4.525 4.525 0 00.227-1.43z" transform="translate(-8967.315 -9547.589)"/><path id="Path_2607" data-name="Path 2607" class="cls-1" d="M9105.037 9567.529a.817.817 0 01.277.7 1.3 1.3 0 01-.32.734 6.018 6.018 0 01-1.855 1.387 5.951 5.951 0 01-2.875.668 6.872 6.872 0 01-2.734-.508 5.757 5.757 0 01-2.008-1.383 5.44 5.44 0 01-1.207-2.031 7.25 7.25 0 01-.41-2.441v-3.887a6.768 6.768 0 01.438-2.437 5.682 5.682 0 011.27-2.031 6.238 6.238 0 012-1.387 6.543 6.543 0 012.652-.512 6.217 6.217 0 012.582.512 6.479 6.479 0 011.879 1.258 1.019 1.019 0 01.313.746 1 1 0 01-.312.738l-.672.676a.946.946 0 01-1.457-.035 3.59 3.59 0 00-1.008-.625 3.362 3.362 0 00-1.324-.254 2.817 2.817 0 00-2.437 1 3.851 3.851 0 00-.75 2.352v3.887a5.58 5.58 0 00.16 1.293 3.218 3.218 0 00.531 1.082 2.812 2.812 0 00.969.727 3.992 3.992 0 001.527.258 3.123 3.123 0 001.59-.387 5.794 5.794 0 001.063-.75.985.985 0 011.484 0z" transform="translate(-9013.478 -9546.63)"/><path id="Path_2608" data-name="Path 2608" class="cls-1" d="M9150.729 9561.063a4.848 4.848 0 01-3.9-1.457 5.941 5.941 0 01-1.262-4.031v-7.066a.318.318 0 00-.355-.355h-1.055a1.094 1.094 0 01-.789-.277 1.059 1.059 0 01-.277-.773v-.887a.981.981 0 011.066-1.066h1.055a.313.313 0 00.355-.355v-2.477a1.059 1.059 0 01.277-.77 1.078 1.078 0 01.785-.285h1.063a1.047 1.047 0 01.777.285 1.059 1.059 0 01.277.77v2.477a.312.312 0 00.355.355h2.648a.99.99 0 011.063 1.066v.887a.989.989 0 01-.285.773 1.029 1.029 0 01-.777.277h-2.65a.316.316 0 00-.355.355v6.9a3.486 3.486 0 00.484 1.941 2.022 2.022 0 001.813.7h.707a1.007 1.007 0 01.777.293.975.975 0 01.285.77v.887a1.014 1.014 0 01-.285.777 1.032 1.032 0 01-.777.285z" transform="translate(-9049.444 -9537.019)"/><path id="Path_2609" data-name="Path 2609" class="cls-1" d="M9193.477 9535.943a.975.975 0 01-1.062-1.062v-1.77a1.059 1.059 0 01.277-.777 1.092 1.092 0 01.785-.277h1.059a1.085 1.085 0 01.777.277 1.061 1.061 0 01.281.777v1.77a1.042 1.042 0 01-.281.777 1.026 1.026 0 01-.777.285zm0 18.387a1.033 1.033 0 01-.785-.285 1.059 1.059 0 01-.277-.777v-13.785a1.041 1.041 0 01.277-.777 1.023 1.023 0 01.785-.293h1.059a1.016 1.016 0 01.777.293 1.042 1.042 0 01.281.777v13.785a1.061 1.061 0 01-.281.777 1.026 1.026 0 01-.777.285z" transform="translate(-9085.513 -9530.283)"/><path id="Path_2610" data-name="Path 2610" class="cls-1" d="M9222.248 9571.627a1.616 1.616 0 01-.8-.176 1.224 1.224 0 01-.473-.777l-4.844-13.965a.711.711 0 01.027-.727.871.871 0 01.715-.266h1.3a1.13 1.13 0 011.211.844l3.348 10.508c.07.254.2.391.363.391s.273-.137.348-.391l3.363-10.508a1.114 1.114 0 011.2-.844h1.309a.855.855 0 01.7.266.683.683 0 01.035.727l-4.844 13.965a1.31 1.31 0 01-.473.777 1.627 1.627 0 01-.8.176z" transform="translate(-9102.795 -9547.589)"/><path id="Path_2611" data-name="Path 2611" class="cls-1" d="M9289.492 9567.209a.9.9 0 01.3.707 1.24 1.24 0 01-.3.746 6.927 6.927 0 01-5.375 2.359 6.862 6.862 0 01-2.664-.48 5.842 5.842 0 01-2.027-1.32 5.69 5.69 0 01-1.309-1.984 6.164 6.164 0 01-.469-2.4v-4.172a7.238 7.238 0 01.41-2.426 5.638 5.638 0 011.2-1.992 5.77 5.77 0 011.945-1.352 6.733 6.733 0 012.633-.492 6.89 6.89 0 012.652.492 6.176 6.176 0 011.992 1.352 5.812 5.812 0 011.277 1.992 6.638 6.638 0 01.449 2.426v2.117a1 1 0 01-.3.777 1.041 1.041 0 01-.773.285h-7.957a.315.315 0 00-.348.359v.633a3.326 3.326 0 00.8 2.262 3.1 3.1 0 002.484.918 3.888 3.888 0 002.086-.473 5.952 5.952 0 001.137-.9 1.061 1.061 0 01.785-.375 1.018 1.018 0 01.7.34zm-2.473-6.543a3.588 3.588 0 00-.746-2.3 2.891 2.891 0 00-2.434-.949 2.641 2.641 0 00-2.332.949 3.837 3.837 0 00-.672 2.3v.18a.313.313 0 00.348.352h5.48a.314.314 0 00.355-.352z" transform="translate(-9147.837 -9546.63)"/></g></g></svg>