<svg xmlns="http://www.w3.org/2000/svg" width="97.989" height="50.947"><g data-name="Group 3074" fill="#581dc9"><path data-name="Path 1567" d="M31.37 49.626a.3.3 0 01.1.242.339.339 0 01-.1.22 3.43 3.43 0 01-.825.607 2.91 2.91 0 01-2.224.059 2.39 2.39 0 01-.8-.539 2.466 2.466 0 01-.527-.836 2.872 2.872 0 01-.192-1.074v-2.419a2.852 2.852 0 01.192-1.065 2.45 2.45 0 012.329-1.58 2.743 2.743 0 011.2.254 2.073 2.073 0 01.426.247 2.7 2.7 0 01.3.26.288.288 0 010 .461l-.254.252a.327.327 0 01-.21.116.338.338 0 01-.23-.116 2.969 2.969 0 00-.435-.307 1.542 1.542 0 00-.8-.177 1.463 1.463 0 00-.623.127 1.377 1.377 0 00-.461.351 1.564 1.564 0 00-.293.529 2.042 2.042 0 00-.1.645v2.419a1.773 1.773 0 00.391 1.2 1.349 1.349 0 001.085.456 1.692 1.692 0 00.818-.181 2.8 2.8 0 00.545-.369.391.391 0 01.225-.1.286.286 0 01.238.1z"/><path data-name="Path 1568" d="M34.892 50.947a2.509 2.509 0 01-1.008-.2 2.611 2.611 0 01-1.374-1.377 2.587 2.587 0 010-2.015 2.655 2.655 0 01.554-.82 2.706 2.706 0 01.82-.556 2.616 2.616 0 012.015 0 2.678 2.678 0 01.821.556 2.637 2.637 0 01.554.82 2.6 2.6 0 010 2.015 2.608 2.608 0 01-1.375 1.377 2.5 2.5 0 01-1.008.2m0-.935a1.484 1.484 0 00.633-.133 1.613 1.613 0 00.506-.351 1.587 1.587 0 00.336-.524 1.783 1.783 0 000-1.287 1.571 1.571 0 00-.336-.523 1.63 1.63 0 00-.506-.352 1.556 1.556 0 00-1.265 0 1.614 1.614 0 00-.506.352 1.59 1.59 0 00-.336.523 1.762 1.762 0 000 1.287 1.58 1.58 0 00.842.875 1.481 1.481 0 00.632.133"/><path data-name="Path 1569" d="M44.522 50.837a.3.3 0 01-.329-.33v-2.863a1.041 1.041 0 00-.055-.34.873.873 0 00-.166-.3.817.817 0 00-.278-.214.925.925 0 00-.415-.083.911.911 0 00-.412.083.812.812 0 00-.281.214.841.841 0 00-.16.3 1.172 1.172 0 00-.05.34v2.863a.335.335 0 01-.087.243.332.332 0 01-.243.087h-.33a.325.325 0 01-.24-.087.329.329 0 01-.088-.243v-2.863a1.053 1.053 0 00-.055-.34.924.924 0 00-.165-.3.824.824 0 00-.282-.214.877.877 0 00-.4-.083.917.917 0 00-.407.083.8.8 0 00-.288.214.9.9 0 00-.166.3 1.075 1.075 0 00-.054.34v2.863a.334.334 0 01-.087.243.339.339 0 01-.245.087h-.33a.325.325 0 01-.241-.087.335.335 0 01-.089-.243v-2.863a2.027 2.027 0 01.137-.742 1.744 1.744 0 01.384-.593 1.8 1.8 0 01.6-.391 2.031 2.031 0 01.783-.144 1.7 1.7 0 01.741.154 2.421 2.421 0 01.546.343.135.135 0 00.208 0 1.76 1.76 0 01.536-.352 1.862 1.862 0 01.765-.144 2.028 2.028 0 01.781.144 1.789 1.789 0 01.6.391 1.723 1.723 0 01.383.593 1.969 1.969 0 01.137.742v2.863a.3.3 0 01-.328.33z"/><path data-name="Path 1570" d="M52.449 50.837a.335.335 0 01-.243-.082.329.329 0 01-.088-.243v-2.863a1.043 1.043 0 00-.055-.34.937.937 0 00-.164-.3.832.832 0 00-.282-.214.907.907 0 00-.412-.083.92.92 0 00-.414.083.826.826 0 00-.44.511 1.133 1.133 0 00-.05.34v2.863a.34.34 0 01-.087.243.328.328 0 01-.242.087h-.332a.3.3 0 01-.327-.33v-2.863a1.031 1.031 0 00-.057-.34.9.9 0 00-.164-.3.836.836 0 00-.282-.214.881.881 0 00-.4-.083.928.928 0 00-.407.083.819.819 0 00-.287.214.9.9 0 00-.164.3 1.052 1.052 0 00-.056.34v2.863a.334.334 0 01-.088.243.324.324 0 01-.24.087h-.331a.328.328 0 01-.243-.087.334.334 0 01-.088-.243v-2.863a1.969 1.969 0 01.138-.742 1.657 1.657 0 01.384-.593 1.757 1.757 0 01.6-.391 2.027 2.027 0 01.781-.144 1.71 1.71 0 01.743.154 2.56 2.56 0 01.546.343.135.135 0 00.208 0 1.718 1.718 0 01.535-.352 1.851 1.851 0 01.764-.144 2.03 2.03 0 01.782.144 1.8 1.8 0 01.6.391 1.738 1.738 0 01.385.593 2 2 0 01.135.742v2.863a.3.3 0 01-.328.33z"/><path data-name="Path 1571" d="M57.457 46.215a.336.336 0 01.088-.243.326.326 0 01.243-.086h.33a.3.3 0 01.33.329v2.751a2.068 2.068 0 01-.142.759 1.973 1.973 0 01-.4.634 1.883 1.883 0 01-.626.429 2.262 2.262 0 01-1.664 0 1.953 1.953 0 01-.633-.429 1.877 1.877 0 01-.408-.634 2.1 2.1 0 01-.142-.759v-2.751a.3.3 0 01.332-.329h.329a.3.3 0 01.33.329v2.751a1.16 1.16 0 00.246.731.933.933 0 00.78.315.911.911 0 00.769-.315 1.157 1.157 0 00.242-.731z"/><path data-name="Path 1572" d="M63.177 50.837a.329.329 0 01-.243-.087.341.341 0 01-.088-.243v-2.752a1.125 1.125 0 00-.257-.732 1.15 1.15 0 00-1.576 0 1.126 1.126 0 00-.258.732v2.752a.3.3 0 01-.33.33h-.329a.327.327 0 01-.242-.087.33.33 0 01-.09-.243v-2.752a2.015 2.015 0 01.149-.76 1.921 1.921 0 01.415-.632 1.971 1.971 0 01.636-.43 2.282 2.282 0 011.674 0 1.966 1.966 0 01.639.43 1.986 1.986 0 01.415.632 2.035 2.035 0 01.146.76v2.752a.3.3 0 01-.33.33z"/><path data-name="Path 1573" d="M65.6 45.113a.3.3 0 01-.329-.329v-.55a.3.3 0 01.329-.332h.332a.324.324 0 01.24.089.328.328 0 01.089.243v.55a.318.318 0 01-.089.241.312.312 0 01-.24.089zm0 5.724a.328.328 0 01-.242-.085.331.331 0 01-.087-.243v-4.293a.328.328 0 01.087-.243.332.332 0 01.242-.087h.332a.3.3 0 01.329.33v4.293a.332.332 0 01-.089.243.324.324 0 01-.24.085z"/><path data-name="Path 1574" d="M71.05 49.854a.27.27 0 01.088.219.434.434 0 01-.1.234 1.965 1.965 0 01-.576.429 1.9 1.9 0 01-.9.209 2.134 2.134 0 01-.852-.159 1.8 1.8 0 01-.622-.429 1.773 1.773 0 01-.38-.634 2.287 2.287 0 01-.126-.76v-1.209a2.18 2.18 0 01.135-.76 1.865 1.865 0 01.4-.633 1.938 1.938 0 01.622-.428 2.006 2.006 0 01.824-.159 1.9 1.9 0 01.8.159 1.96 1.96 0 01.583.39.319.319 0 010 .463l-.208.209a.293.293 0 01-.452-.01 1.077 1.077 0 00-.313-.193 1.019 1.019 0 00-.415-.083.88.88 0 00-.759.314 1.209 1.209 0 00-.231.732v1.21a1.613 1.613 0 00.05.4.894.894 0 00.164.335.835.835 0 00.3.227 1.168 1.168 0 00.471.081.968.968 0 00.5-.122 1.9 1.9 0 00.329-.231.31.31 0 01.463 0z"/><path data-name="Path 1575" d="M75.499 50.838a.313.313 0 01-.245-.1.334.334 0 01-.087-.223.077.077 0 00-.05-.083.083.083 0 00-.093.04 1.105 1.105 0 01-.459.341 1.8 1.8 0 01-.732.131 1.7 1.7 0 01-.7-.142 1.6 1.6 0 01-.551-.408 1.959 1.959 0 01-.361-.633 2.332 2.332 0 01-.134-.808v-.98a2.195 2.195 0 01.155-.814 1.96 1.96 0 01.435-.666 2.108 2.108 0 011.513-.61h1.636a.337.337 0 01.245.086.332.332 0 01.086.243v4.293a.3.3 0 01-.33.33zm-.332-3.908a.1.1 0 00-.111-.112h-.825a1.079 1.079 0 00-.854.343 1.2 1.2 0 00-.3.814v1.091a.948.948 0 00.249.683.894.894 0 00.687.262 1.147 1.147 0 00.512-.1 1.039 1.039 0 00.356-.28 1.232 1.232 0 00.216-.391 1.34 1.34 0 00.072-.444z"/><path data-name="Path 1576" d="M79.468 50.838a1.523 1.523 0 01-1.213-.45 1.846 1.846 0 01-.392-1.257v-2.2a.1.1 0 00-.109-.111h-.331a.323.323 0 01-.243-.09.311.311 0 01-.086-.239v-.276a.327.327 0 01.086-.242.333.333 0 01.243-.085h.332a.1.1 0 00.109-.112v-.77a.323.323 0 01.088-.243.327.327 0 01.242-.088h.33a.308.308 0 01.332.332v.77c0 .073.033.112.107.112h.826a.332.332 0 01.243.085.34.34 0 01.087.242v.276a.306.306 0 01-.33.329h-.826c-.073 0-.107.037-.107.111v2.145a1.07 1.07 0 00.146.607.637.637 0 00.567.22h.22a.328.328 0 01.243.088.336.336 0 01.087.242v.275a.34.34 0 01-.087.243.333.333 0 01-.243.087z"/><path data-name="Path 1577" d="M81.549 45.113a.317.317 0 01-.242-.089.313.313 0 01-.088-.241v-.55a.324.324 0 01.088-.243.33.33 0 01.242-.089h.332a.306.306 0 01.329.332v.55a.306.306 0 01-.329.329zm0 5.724a.3.3 0 01-.33-.329v-4.293a.323.323 0 01.088-.243.334.334 0 01.242-.087h.332a.332.332 0 01.241.087.328.328 0 01.089.243v4.293a.332.332 0 01-.089.243.328.328 0 01-.241.085z"/><path data-name="Path 1578" d="M86.008 50.947a2.507 2.507 0 01-1.008-.2 2.61 2.61 0 01-.82-.555 2.652 2.652 0 01-.555-.821 2.6 2.6 0 010-2.015A2.627 2.627 0 0185 45.981a2.617 2.617 0 012.015 0 2.629 2.629 0 011.375 1.375 2.6 2.6 0 010 2.015 2.622 2.622 0 01-1.375 1.377 2.5 2.5 0 01-1.008.2m0-.935a1.493 1.493 0 00.633-.133 1.647 1.647 0 00.506-.351 1.609 1.609 0 00.336-.524 1.779 1.779 0 000-1.287 1.593 1.593 0 00-.336-.523 1.665 1.665 0 00-.506-.352 1.56 1.56 0 00-1.266 0 1.655 1.655 0 00-.5.352 1.533 1.533 0 00-.337.523 1.784 1.784 0 000 1.287 1.549 1.549 0 00.337.524 1.637 1.637 0 00.5.351 1.483 1.483 0 00.633.133"/><path data-name="Path 1579" d="M93.107 50.837a.3.3 0 01-.33-.33v-2.752a1.126 1.126 0 00-.258-.732 1.149 1.149 0 00-1.576 0 1.123 1.123 0 00-.257.732v2.752a.334.334 0 01-.089.243.328.328 0 01-.242.087h-.33a.3.3 0 01-.33-.33v-2.752a2.035 2.035 0 01.146-.76 1.95 1.95 0 01.416-.632 1.988 1.988 0 01.636-.43 2.286 2.286 0 011.675 0 1.994 1.994 0 01.637.43 1.868 1.868 0 01.412.632 1.961 1.961 0 01.151.76v2.752a.334.334 0 01-.089.243.329.329 0 01-.241.087z"/><path data-name="Path 1580" d="M95.134 49.735c.123-.145.273-.142.45.013a1.607 1.607 0 00.292.182.959.959 0 00.413.082.865.865 0 00.494-.133.4.4 0 00.2-.351.478.478 0 00-.17-.364 3.123 3.123 0 00-.633-.387 4.267 4.267 0 01-.529-.3 1.947 1.947 0 01-.389-.337 1.314 1.314 0 01-.249-.4 1.367 1.367 0 01-.087-.517 1.48 1.48 0 01.107-.561 1.43 1.43 0 01.314-.463 1.516 1.516 0 01.495-.314 1.933 1.933 0 011.436.05 1.645 1.645 0 01.5.332.411.411 0 01.094.235.3.3 0 01-.094.227l-.2.209a.47.47 0 01-.2.127.229.229 0 01-.216-.083.953.953 0 00-.659-.275.656.656 0 00-.467.141.5.5 0 00-.151.376.451.451 0 00.21.373 2.938 2.938 0 00.528.3 4.3 4.3 0 01.555.285 2.212 2.212 0 01.424.337 1.366 1.366 0 01.274.408 1.254 1.254 0 01.1.521 1.4 1.4 0 01-.144.644 1.437 1.437 0 01-.38.473 1.6 1.6 0 01-.539.287 2.019 2.019 0 01-.611.093 2.209 2.209 0 01-.836-.137 1.408 1.408 0 01-.528-.37.359.359 0 01-.1-.23.309.309 0 01.1-.232z"/><path data-name="Path 1581" d="M35.826 2.652h-1.69a1.553 1.553 0 00-1.682 1.682v2.811a1.554 1.554 0 001.682 1.685h1.69a1.556 1.556 0 001.685-1.685V4.334a1.556 1.556 0 00-1.685-1.682"/><path data-name="Path 1582" d="M35.826 12.764h-1.69a1.552 1.552 0 00-1.682 1.683v21.976a1.55 1.55 0 001.682 1.685h1.69a1.553 1.553 0 001.685-1.685V14.447a1.555 1.555 0 00-1.685-1.683"/><path data-name="Path 1583" d="M61.637 16.462a12.942 12.942 0 00-4.022-2.728 12.688 12.688 0 00-9.877 0 12.916 12.916 0 00-6.752 6.745 12.75 12.75 0 000 9.883 12.924 12.924 0 006.752 6.747 12.7 12.7 0 009.877 0 12.906 12.906 0 006.748-6.747 12.717 12.717 0 000-9.883 12.914 12.914 0 00-2.725-4.018m-1.734 12.116a7.665 7.665 0 01-1.649 2.563 7.9 7.9 0 01-2.48 1.728 7.748 7.748 0 01-6.21 0 7.987 7.987 0 01-2.484-1.728 7.678 7.678 0 01-1.644-2.563 8.675 8.675 0 010-6.312 7.756 7.756 0 011.644-2.568 8.16 8.16 0 012.484-1.725 7.744 7.744 0 016.21 0 8.07 8.07 0 012.48 1.725 7.743 7.743 0 011.649 2.568 8.658 8.658 0 010 6.312"/><path data-name="Path 1584" d="M75.43 33.333h-.566a1.9 1.9 0 01-1.457-.533 1.991 1.991 0 01-.509-1.435V1.685A1.551 1.551 0 0071.212 0h-1.685a1.652 1.652 0 00-1.233.446 1.671 1.671 0 00-.448 1.239v29.118a8.217 8.217 0 001.6 5.34q1.6 1.967 5.2 1.967h.788a1.554 1.554 0 001.683-1.685v-1.4a1.553 1.553 0 00-1.683-1.687"/><path data-name="Path 1585" d="M97.54 13.199a1.642 1.642 0 00-1.216-.442H88.1a10.711 10.711 0 00-4.25.826 10.6 10.6 0 00-3.344 2.232 9.868 9.868 0 00-2.18 3.337 10.917 10.917 0 00-.768 4.078v4.907a11.95 11.95 0 00.659 4.051 9.733 9.733 0 001.823 3.171 7.933 7.933 0 002.761 2.039 8.532 8.532 0 003.533.719 9.172 9.172 0 003.671-.663 5.466 5.466 0 002.289-1.709.42.42 0 01.472-.192c.245.076.249.742.249.961a1.611 1.611 0 00.441 1.1 1.538 1.538 0 001.214.5h1.656a1.534 1.534 0 001.661-1.654V14.412a1.644 1.644 0 00-.445-1.212m-4.527 14.11a6.885 6.885 0 01-.362 2.233 6.181 6.181 0 01-1.071 1.959 5.3 5.3 0 01-1.794 1.405 5.8 5.8 0 01-2.569.523 4.491 4.491 0 01-3.449-1.325 4.8 4.8 0 01-1.245-3.417V23.23a5.947 5.947 0 011.519-4.078 5.413 5.413 0 014.278-1.708h4.144a.484.484 0 01.55.548z"/><path data-name="Path 1586" d="M28.853 12.751h-2.331a1.8 1.8 0 00-1.912 1.358l-6.321 16.837c-.113.4-.3.611-.556.611s-.452-.207-.561-.611L7.067 5.046h7.071a1.86 1.86 0 002.011-2.012v-1A1.855 1.855 0 0014.138.026H1.308C.226.026-.259.565.139 1.571l13.964 35.022a2.132 2.132 0 00.752 1.2 2.3 2.3 0 001.258.311h3.171a2.311 2.311 0 001.259-.309 2.174 2.174 0 00.753-1.2l8.708-22.281c.3-1.044-.069-1.556-1.151-1.556"/></g></svg>