<svg xmlns="http://www.w3.org/2000/svg" width="39.998" height="40.002"><path d="M20.001 40.002a19.864 19.864 0 01-7.782-1.572 19.941 19.941 0 01-6.357-4.287 19.958 19.958 0 01-4.286-6.358 19.879 19.879 0 01-1.571-7.783 19.885 19.885 0 011.571-7.785A19.949 19.949 0 015.862 5.86a19.941 19.941 0 016.357-4.287A19.87 19.87 0 0120.001.002a19.885 19.885 0 017.785 1.571 19.952 19.952 0 016.357 4.287 19.952 19.952 0 014.287 6.357 19.885 19.885 0 011.571 7.785 19.879 19.879 0 01-1.571 7.783 19.956 19.956 0 01-4.287 6.358 19.941 19.941 0 01-6.357 4.287 19.879 19.879 0 01-7.785 1.572zm-5.663-23.861a.358.358 0 00-.138.028.336.336 0 00-.2.3v5.983a1.647 1.647 0 001.656 1.633h8.683a1.648 1.648 0 001.659-1.633v-5.983a.338.338 0 00-.2-.3.35.35 0 00-.137-.028.33.33 0 00-.22.081l-5.448 4.754-5.44-4.754a.341.341 0 00-.219-.082zm.546-1.149a.327.327 0 00-.311.206.328.328 0 00.092.363l5.12 4.414a.348.348 0 00.216.082.326.326 0 00.213-.082l5.121-4.417a.312.312 0 00.091-.356.311.311 0 00-.3-.21z" fill="#918e9f"/></svg>