<svg xmlns="http://www.w3.org/2000/svg" width="40" height="40"><path d="M20 0a20 20 0 1020 20A20 20 0 0020 0zm9.132 15.594q.013.3.013.593a12.972 12.972 0 01-13.061 13.061 12.994 12.994 0 01-7.036-2.062 9.337 9.337 0 001.095.063 9.211 9.211 0 005.7-1.965 4.6 4.6 0 01-4.288-3.184 4.575 4.575 0 002.073-.079 4.592 4.592 0 01-3.683-4.5v-.059a4.559 4.559 0 002.079.574A4.594 4.594 0 0110.6 11.9a13.033 13.033 0 009.462 4.8 4.593 4.593 0 017.823-4.186A9.207 9.207 0 0030.8 11.4a4.609 4.609 0 01-2.019 2.539 9.155 9.155 0 002.636-.723 9.329 9.329 0 01-2.285 2.378zm0 0" fill="#2fcff5"/></svg>