<svg xmlns="http://www.w3.org/2000/svg" width="22.132" height="11.508" viewBox="0 0 22.132 11.508">
  <path id="Path_134" data-name="Path 134" d="M246.348,289.041a.069.069,0,0,1,.023.054.077.077,0,0,1-.023.05.788.788,0,0,1-.187.137.655.655,0,0,1-.5.013.531.531,0,0,1-.18-.122.562.562,0,0,1-.119-.189.648.648,0,0,1-.043-.242V288.2a.642.642,0,0,1,.043-.24.56.56,0,0,1,.119-.189.55.55,0,0,1,.18-.123.57.57,0,0,1,.226-.045.636.636,0,0,1,.149.016.663.663,0,0,1,.121.041.509.509,0,0,1,.1.056.666.666,0,0,1,.068.058.066.066,0,0,1,0,.1l-.057.057a.06.06,0,0,1-.1,0,.632.632,0,0,0-.1-.07.348.348,0,0,0-.18-.04.33.33,0,0,0-.141.028.3.3,0,0,0-.1.079.349.349,0,0,0-.066.12.471.471,0,0,0-.022.146v.547a.4.4,0,0,0,.088.27.3.3,0,0,0,.245.1.382.382,0,0,0,.185-.041.64.64,0,0,0,.123-.083.086.086,0,0,1,.051-.023.066.066,0,0,1,.054.023Z" transform="translate(-239.263 -277.832)" fill="#722383"/>
  <path id="Path_135" data-name="Path 135" d="M250.965,290.887a.347.347,0,0,0,.143-.03.368.368,0,0,0,.114-.079.359.359,0,0,0,.076-.118.4.4,0,0,0,0-.291.358.358,0,0,0-.076-.118.364.364,0,0,0-.114-.079.356.356,0,0,0-.286,0,.372.372,0,0,0-.115.079.357.357,0,0,0-.076.118.4.4,0,0,0,0,.291.358.358,0,0,0,.076.118.376.376,0,0,0,.115.079.344.344,0,0,0,.143.03m0,.211a.563.563,0,0,1-.227-.046.59.59,0,0,1-.311-.311.588.588,0,0,1,0-.455.593.593,0,0,1,.311-.311.589.589,0,0,1,.455,0,.593.593,0,0,1,.311.311.585.585,0,0,1,0,.455.591.591,0,0,1-.311.311.563.563,0,0,1-.228.046" transform="translate(-243.084 -279.591)" fill="#722383"/>
  <path id="Path_136" data-name="Path 136" d="M257.5,291.074a.069.069,0,0,1-.075-.075v-.646a.233.233,0,0,0-.013-.077.2.2,0,0,0-.037-.067.18.18,0,0,0-.063-.048.24.24,0,0,0-.186,0,.177.177,0,0,0-.063.048.186.186,0,0,0-.036.067.262.262,0,0,0-.011.077V291a.069.069,0,0,1-.074.075h-.075a.069.069,0,0,1-.075-.075v-.646a.24.24,0,0,0-.013-.077.2.2,0,0,0-.037-.067.179.179,0,0,0-.063-.048.2.2,0,0,0-.091-.019.21.21,0,0,0-.092.019.178.178,0,0,0-.065.048.2.2,0,0,0-.037.067.241.241,0,0,0-.013.077V291a.074.074,0,0,1-.02.055.075.075,0,0,1-.055.02h-.074a.069.069,0,0,1-.075-.075v-.646a.451.451,0,0,1,.031-.168.4.4,0,0,1,.087-.134.407.407,0,0,1,.135-.088.464.464,0,0,1,.177-.032.384.384,0,0,1,.168.035.564.564,0,0,1,.123.077.031.031,0,0,0,.047,0,.4.4,0,0,1,.121-.079.424.424,0,0,1,.173-.032.465.465,0,0,1,.177.032.409.409,0,0,1,.136.088.391.391,0,0,1,.087.134.451.451,0,0,1,.031.168V291a.075.075,0,0,1-.02.055.076.076,0,0,1-.055.02Z" transform="translate(-247.441 -279.591)" fill="#722383"/>
  <path id="Path_137" data-name="Path 137" d="M264.791,291.074a.069.069,0,0,1-.075-.075v-.646a.247.247,0,0,0-.012-.077.206.206,0,0,0-.038-.067.179.179,0,0,0-.063-.048.24.24,0,0,0-.186,0,.18.18,0,0,0-.063.048.185.185,0,0,0-.036.067.269.269,0,0,0-.011.077V291a.069.069,0,0,1-.074.075h-.075a.069.069,0,0,1-.074-.075v-.646a.247.247,0,0,0-.013-.077.2.2,0,0,0-.038-.067.179.179,0,0,0-.063-.048.2.2,0,0,0-.091-.019.211.211,0,0,0-.092.019.18.18,0,0,0-.065.048.2.2,0,0,0-.037.067.24.24,0,0,0-.012.077V291a.074.074,0,0,1-.02.055.073.073,0,0,1-.055.02h-.075a.069.069,0,0,1-.075-.075v-.646a.446.446,0,0,1,.031-.168.384.384,0,0,1,.087-.134.4.4,0,0,1,.135-.088.466.466,0,0,1,.177-.032.387.387,0,0,1,.168.035.579.579,0,0,1,.123.077.031.031,0,0,0,.047,0,.387.387,0,0,1,.121-.079.423.423,0,0,1,.173-.032.464.464,0,0,1,.176.032.409.409,0,0,1,.135.088.384.384,0,0,1,.087.134.451.451,0,0,1,.031.168V291a.073.073,0,0,1-.02.055.074.074,0,0,1-.055.02Z" transform="translate(-252.945 -279.591)" fill="#722383"/>
  <path id="Path_138" data-name="Path 138" d="M271.426,290.105a.068.068,0,0,1,.075-.074h.075a.075.075,0,0,1,.055.02.075.075,0,0,1,.02.055v.622a.466.466,0,0,1-.032.171.441.441,0,0,1-.091.143.425.425,0,0,1-.142.1.507.507,0,0,1-.375,0,.446.446,0,0,1-.143-.1.423.423,0,0,1-.092-.143.461.461,0,0,1-.032-.171v-.622a.068.068,0,0,1,.075-.074h.074a.075.075,0,0,1,.055.02.076.076,0,0,1,.02.055v.622a.26.26,0,0,0,.056.165.209.209,0,0,0,.175.071.205.205,0,0,0,.174-.071.261.261,0,0,0,.055-.165Z" transform="translate(-258.449 -279.667)" fill="#722383"/>
  <path id="Path_139" data-name="Path 139" d="M276.426,291.074a.069.069,0,0,1-.075-.075v-.621a.255.255,0,0,0-.058-.166.259.259,0,0,0-.356,0,.254.254,0,0,0-.058.166V291a.069.069,0,0,1-.074.075h-.075a.074.074,0,0,1-.055-.02.073.073,0,0,1-.02-.055v-.621a.457.457,0,0,1,.034-.172.433.433,0,0,1,.238-.24.513.513,0,0,1,.378,0,.437.437,0,0,1,.144.1.444.444,0,0,1,.094.143.452.452,0,0,1,.033.172V291a.075.075,0,0,1-.019.055.076.076,0,0,1-.055.02Z" transform="translate(-262.156 -279.591)" fill="#722383"/>
  <path id="Path_140" data-name="Path 140" d="M280.8,289.773a.069.069,0,0,1-.074-.075v-.97a.068.068,0,0,1,.074-.074h.075a.075.075,0,0,1,.055.02.074.074,0,0,1,.02.055v.97a.073.073,0,0,1-.02.055.074.074,0,0,1-.055.02Zm0-1.293a.069.069,0,0,1-.074-.075v-.124a.069.069,0,0,1,.074-.075h.075a.069.069,0,0,1,.075.075v.124a.073.073,0,0,1-.02.055.074.074,0,0,1-.055.02Z" transform="translate(-265.979 -278.291)" fill="#722383"/>
  <path id="Path_141" data-name="Path 141" d="M283.631,290.851a.062.062,0,0,1,.02.05.1.1,0,0,1-.023.052.444.444,0,0,1-.131.1.424.424,0,0,1-.2.047.476.476,0,0,1-.192-.036.411.411,0,0,1-.141-.1.4.4,0,0,1-.086-.143.516.516,0,0,1-.028-.172v-.273a.483.483,0,0,1,.031-.172.421.421,0,0,1,.09-.143.435.435,0,0,1,.14-.1.464.464,0,0,1,.186-.036.437.437,0,0,1,.313.124.073.073,0,0,1,0,.1l-.047.047a.066.066,0,0,1-.1,0,.25.25,0,0,0-.071-.044.239.239,0,0,0-.094-.019.2.2,0,0,0-.171.071.269.269,0,0,0-.052.165v.273a.357.357,0,0,0,.011.091.2.2,0,0,0,.037.076.178.178,0,0,0,.068.051.264.264,0,0,0,.107.019.218.218,0,0,0,.112-.027.422.422,0,0,0,.074-.052.07.07,0,0,1,.1,0Z" transform="translate(-267.584 -279.59)" fill="#722383"/>
  <path id="Path_142" data-name="Path 142" d="M287.686,290.267a.022.022,0,0,0-.025-.025h-.186a.243.243,0,0,0-.193.077.267.267,0,0,0-.068.184v.246a.215.215,0,0,0,.056.154.2.2,0,0,0,.155.06.262.262,0,0,0,.116-.024.236.236,0,0,0,.081-.063.278.278,0,0,0,.049-.088.316.316,0,0,0,.016-.1Zm.074.883a.069.069,0,0,1-.054-.023.073.073,0,0,1-.02-.05.018.018,0,0,0-.011-.019.019.019,0,0,0-.021.009.244.244,0,0,1-.1.077.406.406,0,0,1-.165.03.383.383,0,0,1-.159-.032.358.358,0,0,1-.124-.092.441.441,0,0,1-.082-.143.538.538,0,0,1-.03-.183V290.5a.493.493,0,0,1,.035-.184.445.445,0,0,1,.1-.151.475.475,0,0,1,.342-.138h.37a.076.076,0,0,1,.055.02.074.074,0,0,1,.02.055v.97a.074.074,0,0,1-.02.055.075.075,0,0,1-.055.02Z" transform="translate(-270.709 -279.667)" fill="#722383"/>
  <path id="Path_143" data-name="Path 143" d="M292.137,290.308a.345.345,0,0,1-.275-.1.419.419,0,0,1-.088-.283v-.5a.022.022,0,0,0-.025-.025h-.075a.074.074,0,0,1-.055-.02.072.072,0,0,1-.02-.055v-.062a.074.074,0,0,1,.02-.055.075.075,0,0,1,.055-.02h.075a.022.022,0,0,0,.025-.025v-.174a.074.074,0,0,1,.02-.055.073.073,0,0,1,.055-.02h.075a.069.069,0,0,1,.075.075v.174a.022.022,0,0,0,.025.025h.186a.068.068,0,0,1,.074.074v.062a.068.068,0,0,1-.074.075h-.186a.022.022,0,0,0-.025.025v.485a.241.241,0,0,0,.033.137.144.144,0,0,0,.128.05h.05a.068.068,0,0,1,.074.075v.062a.068.068,0,0,1-.074.075Z" transform="translate(-274.188 -278.826)" fill="#722383"/>
  <path id="Path_144" data-name="Path 144" d="M295.473,289.773a.073.073,0,0,1-.054-.02.072.072,0,0,1-.02-.055v-.97a.073.073,0,0,1,.02-.055.074.074,0,0,1,.054-.02h.075a.068.068,0,0,1,.074.074v.97a.069.069,0,0,1-.074.075Zm0-1.293a.073.073,0,0,1-.054-.02.072.072,0,0,1-.02-.055v-.124a.07.07,0,0,1,.075-.075h.075a.069.069,0,0,1,.074.075v.124a.069.069,0,0,1-.074.075Z" transform="translate(-277.054 -278.291)" fill="#722383"/>
  <path id="Path_145" data-name="Path 145" d="M298.009,290.887a.346.346,0,0,0,.143-.03.378.378,0,0,0,.114-.079.36.36,0,0,0,.076-.118.4.4,0,0,0,0-.291.359.359,0,0,0-.076-.118.374.374,0,0,0-.114-.079.356.356,0,0,0-.286,0,.375.375,0,0,0-.114.079.358.358,0,0,0-.076.118.4.4,0,0,0,0,.291.359.359,0,0,0,.076.118.38.38,0,0,0,.114.079.347.347,0,0,0,.143.03m0,.211a.563.563,0,0,1-.227-.046.591.591,0,0,1-.311-.311.585.585,0,0,1,0-.455.593.593,0,0,1,.311-.311.59.59,0,0,1,.455,0,.593.593,0,0,1,.311.311.587.587,0,0,1,0,.455.591.591,0,0,1-.311.311.564.564,0,0,1-.228.046" transform="translate(-278.583 -279.591)" fill="#722383"/>
  <path id="Path_146" data-name="Path 146" d="M303.97,291.074A.069.069,0,0,1,303.9,291v-.621a.254.254,0,0,0-.058-.166.259.259,0,0,0-.356,0,.253.253,0,0,0-.058.166V291a.072.072,0,0,1-.02.055.073.073,0,0,1-.054.02h-.075A.069.069,0,0,1,303.2,291v-.621a.452.452,0,0,1,.033-.172.447.447,0,0,1,.093-.143.44.44,0,0,1,.144-.1.513.513,0,0,1,.378,0,.432.432,0,0,1,.237.24.452.452,0,0,1,.034.172V291a.069.069,0,0,1-.074.075Z" transform="translate(-282.941 -279.591)" fill="#722383"/>
  <path id="Path_147" data-name="Path 147" d="M308,290.824c.028-.033.062-.032.1,0a.34.34,0,0,0,.066.041.212.212,0,0,0,.093.019.2.2,0,0,0,.112-.03.092.092,0,0,0,.045-.079.107.107,0,0,0-.039-.082.706.706,0,0,0-.143-.087.979.979,0,0,1-.12-.067.45.45,0,0,1-.088-.076.3.3,0,0,1-.056-.091.31.31,0,0,1-.02-.117.326.326,0,0,1,.025-.127.316.316,0,0,1,.071-.1.341.341,0,0,1,.112-.071.4.4,0,0,1,.148-.026.4.4,0,0,1,.176.037.379.379,0,0,1,.112.075.092.092,0,0,1,.021.053.065.065,0,0,1-.021.051l-.044.047a.1.1,0,0,1-.046.029.051.051,0,0,1-.049-.018.214.214,0,0,0-.149-.062.147.147,0,0,0-.106.032.111.111,0,0,0-.034.084.1.1,0,0,0,.047.085.628.628,0,0,0,.119.067.918.918,0,0,1,.125.065.485.485,0,0,1,.1.076.3.3,0,0,1,.062.092.288.288,0,0,1,.023.118.315.315,0,0,1-.032.145.327.327,0,0,1-.086.107.357.357,0,0,1-.122.065.459.459,0,0,1-.138.021.5.5,0,0,1-.189-.031.318.318,0,0,1-.119-.083.082.082,0,0,1-.021-.053.068.068,0,0,1,.021-.052Z" transform="translate(-286.514 -279.59)" fill="#722383"/>
  <path id="Path_148" data-name="Path 148" d="M251.278,250.241H250.9a.351.351,0,0,0-.38.38v.635a.351.351,0,0,0,.38.381h.381a.352.352,0,0,0,.381-.381v-.635a.352.352,0,0,0-.381-.38" transform="translate(-243.186 -249.642)" fill="#722383"/>
  <path id="Path_149" data-name="Path 149" d="M251.278,259.548H250.9a.351.351,0,0,0-.38.38v4.964a.351.351,0,0,0,.38.38h.381a.352.352,0,0,0,.381-.38v-4.964a.352.352,0,0,0-.381-.38" transform="translate(-243.186 -256.665)" fill="#722383"/>
  <path id="Path_150" data-name="Path 150" d="M261.952,263.1a1.742,1.742,0,0,1-.373.579,1.784,1.784,0,0,1-.56.39,1.746,1.746,0,0,1-1.4,0,1.794,1.794,0,0,1-.561-.39,1.732,1.732,0,0,1-.372-.579,1.96,1.96,0,0,1,0-1.426,1.748,1.748,0,0,1,.372-.58,1.834,1.834,0,0,1,.561-.39,1.751,1.751,0,0,1,1.4,0,1.824,1.824,0,0,1,.56.39,1.758,1.758,0,0,1,.373.58,1.96,1.96,0,0,1,0,1.426m.39-2.737a2.917,2.917,0,0,0-.908-.616,2.866,2.866,0,0,0-2.231,0,2.914,2.914,0,0,0-1.525,1.524,2.876,2.876,0,0,0,0,2.232,2.914,2.914,0,0,0,1.525,1.524,2.869,2.869,0,0,0,2.231,0,2.913,2.913,0,0,0,1.524-1.524,2.871,2.871,0,0,0,0-2.232,2.916,2.916,0,0,0-.616-.908" transform="translate(-248.42 -256.644)" fill="#722383"/>
  <path id="Path_151" data-name="Path 151" d="M284.8,255.329h-.127a.429.429,0,0,1-.329-.12.448.448,0,0,1-.115-.324v-6.7a.351.351,0,0,0-.381-.381h-.38a.35.35,0,0,0-.38.381v6.576a1.857,1.857,0,0,0,.361,1.206,1.429,1.429,0,0,0,1.174.444h.178a.351.351,0,0,0,.38-.38v-.317a.351.351,0,0,0-.38-.381" transform="translate(-267.766 -247.8)" fill="#722383"/>
  <path id="Path_152" data-name="Path 152" d="M295.523,262.829a1.568,1.568,0,0,1-.081.505,1.4,1.4,0,0,1-.242.442,1.2,1.2,0,0,1-.405.318,1.313,1.313,0,0,1-.58.118,1.015,1.015,0,0,1-.779-.3,1.085,1.085,0,0,1-.281-.772v-1.233a1.345,1.345,0,0,1,.343-.922,1.224,1.224,0,0,1,.966-.385h.936a.109.109,0,0,1,.124.124Zm1.023-3.187a.37.37,0,0,0-.274-.1h-1.858a2.416,2.416,0,0,0-.96.187,2.387,2.387,0,0,0-.755.5,2.228,2.228,0,0,0-.493.753,2.472,2.472,0,0,0-.174.922v1.108a2.7,2.7,0,0,0,.149.915,2.2,2.2,0,0,0,.412.716,1.8,1.8,0,0,0,.623.461,1.938,1.938,0,0,0,.8.162,2.07,2.07,0,0,0,.829-.15,1.242,1.242,0,0,0,.517-.386.094.094,0,0,1,.106-.043c.055.017.056.167.056.217a.366.366,0,0,0,.1.25.349.349,0,0,0,.274.112h.374a.345.345,0,0,0,.374-.374v-4.98a.37.37,0,0,0-.1-.274" transform="translate(-274.514 -256.66)" fill="#722383"/>
  <path id="Path_153" data-name="Path 153" d="M227.165,250.7h-.527a.406.406,0,0,0-.432.307l-1.428,3.8c-.026.092-.068.138-.126.138s-.1-.046-.127-.138l-2.283-5.849h1.6a.419.419,0,0,0,.454-.455v-.227a.419.419,0,0,0-.454-.454h-2.9c-.244,0-.353.122-.264.349l3.154,7.911a.482.482,0,0,0,.17.271.519.519,0,0,0,.284.07H225a.519.519,0,0,0,.284-.07.49.49,0,0,0,.17-.272l1.967-5.033c.068-.235-.016-.352-.26-.352" transform="translate(-220.648 -247.816)" fill="#722383"/>
</svg>
