<svg id="Layer_1" data-name="Layer 1" xmlns="http://www.w3.org/2000/svg" viewBox="0 0 508.74 200.38"><defs><clipPath id="clip-path" transform="translate(-20.59 -18.49)"><path fill="none" d="M0 0h560.72v246.95H0z"/></clipPath><style>.cls-3{fill:#fff}.cls-4{fill:#722282}</style></defs><g clip-path="url(#clip-path)"><path class="cls-3" d="M144 213.67a1.21 1.21 0 01.4 1 1.36 1.36 0 01-.4.87 13.57 13.57 0 01-3.24 2.38 11.48 11.48 0 01-8.75.24 9.37 9.37 0 01-3.14-2.12 9.8 9.8 0 01-2.07-3.29 11.39 11.39 0 01-.76-4.22V199a11.25 11.25 0 01.76-4.18 9.5 9.5 0 015.21-5.43 9.91 9.91 0 013.95-.78 11.42 11.42 0 012.59.28 11.7 11.7 0 012.12.72 8.84 8.84 0 011.67 1 12.13 12.13 0 011.19 1 1.15 1.15 0 010 1.82l-1 1a1.4 1.4 0 01-.83.46 1.38 1.38 0 01-.91-.46 11.29 11.29 0 00-1.71-1.21 6.05 6.05 0 00-3.13-.69 5.59 5.59 0 00-2.45.5 5.27 5.27 0 00-1.82 1.38 6.19 6.19 0 00-1.15 2.08 8.07 8.07 0 00-.39 2.53v9.53a6.92 6.92 0 001.54 4.69 5.3 5.3 0 004.27 1.8 6.66 6.66 0 003.22-.72 11.16 11.16 0 002.14-1.44 1.48 1.48 0 01.89-.4 1.19 1.19 0 01.93.4zM157.82 218.87a9.74 9.74 0 01-4-.81 10.29 10.29 0 01-5.42-5.41 10.32 10.32 0 010-7.92 10.6 10.6 0 012.19-3.23 10.4 10.4 0 013.23-2.18 10.2 10.2 0 017.92 0 10.32 10.32 0 015.41 5.41 10.2 10.2 0 010 7.92 10.32 10.32 0 01-5.41 5.41 9.74 9.74 0 01-4 .81m0-3.68a6.1 6.1 0 002.49-.52 6.54 6.54 0 002-1.39 6.28 6.28 0 001.32-2.06 7 7 0 000-5.06 6.38 6.38 0 00-1.32-2.06 6.51 6.51 0 00-2-1.38 6.22 6.22 0 00-5 0 6.21 6.21 0 00-3.31 3.44 6.91 6.91 0 000 5.06 6.28 6.28 0 001.32 2.06 6.42 6.42 0 002 1.39 6.07 6.07 0 002.49.52M195.69 218.43a1.18 1.18 0 01-1.29-1.3v-11.25a4 4 0 00-.22-1.34 3.36 3.36 0 00-.65-1.17 3.15 3.15 0 00-1.1-.85 4.29 4.29 0 00-3.25 0 3.35 3.35 0 00-1.1.85 3.16 3.16 0 00-.63 1.17 4.57 4.57 0 00-.19 1.34v11.25a1.2 1.2 0 01-1.3 1.3h-1.3a1.31 1.31 0 01-1-.34 1.3 1.3 0 01-.34-1v-11.21a4 4 0 00-.22-1.34 3.36 3.36 0 00-.65-1.17 3.15 3.15 0 00-1.1-.85 3.68 3.68 0 00-1.58-.32 3.81 3.81 0 00-1.6.32 3.18 3.18 0 00-1.13.85 3.52 3.52 0 00-.65 1.17 4.27 4.27 0 00-.21 1.34v11.25a1.2 1.2 0 01-1.31 1.3h-1.29a1.26 1.26 0 01-1-.34 1.3 1.3 0 01-.35-1v-11.21a7.81 7.81 0 01.54-2.92 6.84 6.84 0 011.51-2.34 7.26 7.26 0 012.36-1.54 8.24 8.24 0 013.08-.56 6.77 6.77 0 012.92.6 9.84 9.84 0 012.14 1.35.53.53 0 00.82 0 7 7 0 012.11-1.39 7.47 7.47 0 013-.56 8.24 8.24 0 013.08.56 7.15 7.15 0 012.36 1.54 6.7 6.7 0 011.51 2.34 7.82 7.82 0 01.55 2.92v11.25a1.2 1.2 0 01-1.3 1.3zM226.87 218.43a1.2 1.2 0 01-1.31-1.3v-11.25a4.27 4.27 0 00-.21-1.34 3.52 3.52 0 00-.65-1.17 3.29 3.29 0 00-1.11-.85 4.26 4.26 0 00-3.24 0 3.29 3.29 0 00-1.11.85 3.14 3.14 0 00-.62 1.17 4.57 4.57 0 00-.2 1.34v11.25a1.34 1.34 0 01-.34 1 1.31 1.31 0 01-1 .34h-1.29a1.18 1.18 0 01-1.3-1.3v-11.29a4.28 4.28 0 00-.22-1.34 3.39 3.39 0 00-1.75-2 3.71 3.71 0 00-1.58-.32 3.89 3.89 0 00-1.61.32 3.23 3.23 0 00-1.12.85 3.36 3.36 0 00-.65 1.17 4 4 0 00-.22 1.34v11.25a1.18 1.18 0 01-1.29 1.3h-1.3a1.31 1.31 0 01-1-.34 1.3 1.3 0 01-.34-1v-11.23A7.81 7.81 0 01204 203a6.58 6.58 0 011.52-2.34 7 7 0 012.35-1.54 8.24 8.24 0 013.08-.56 6.8 6.8 0 012.92.6 10.09 10.09 0 012.14 1.35.54.54 0 00.83 0 6.68 6.68 0 012.1-1.39 7.44 7.44 0 013-.56 8.24 8.24 0 013.08.56 7.26 7.26 0 012.36 1.54 6.7 6.7 0 011.51 2.34 7.81 7.81 0 01.54 2.92v11.25a1.2 1.2 0 01-1.3 1.3zM246.56 200.25a1.29 1.29 0 01.35-.95 1.28 1.28 0 011-.35h1.3a1.21 1.21 0 011.3 1.3v10.82a8 8 0 01-.57 3 7.32 7.32 0 01-4 4.18 8.93 8.93 0 01-6.54 0 7.78 7.78 0 01-2.49-1.69 7.39 7.39 0 01-1.6-2.49 8.18 8.18 0 01-.56-3v-10.82a1.29 1.29 0 01.34-.95 1.3 1.3 0 011-.35h1.29a1.26 1.26 0 01.95.35 1.29 1.29 0 01.35.95v10.82a4.55 4.55 0 001 2.88 3.69 3.69 0 003.06 1.24 3.61 3.61 0 003-1.24 4.6 4.6 0 00.95-2.88zM269.07 218.43a1.29 1.29 0 01-.95-.34 1.3 1.3 0 01-.35-1v-10.78a4.44 4.44 0 00-1-2.88 4.52 4.52 0 00-6.2 0 4.44 4.44 0 00-1 2.88v10.82a1.3 1.3 0 01-.35 1 1.29 1.29 0 01-.95.34H257a1.29 1.29 0 01-.95-.34 1.3 1.3 0 01-.35-1v-10.82a7.85 7.85 0 01.59-3 7.44 7.44 0 011.62-2.49 7.79 7.79 0 012.51-1.68 8.91 8.91 0 016.58 0 7.76 7.76 0 014.72 7.16v10.82a1.3 1.3 0 01-.35 1 1.29 1.29 0 01-.95.34zM278.59 195.92a1.29 1.29 0 01-.95-.34 1.31 1.31 0 01-.34-1v-2.16a1.29 1.29 0 01.34-1 1.25 1.25 0 01.95-.35h1.3a1.24 1.24 0 01.95.35 1.25 1.25 0 01.35 1v2.16a1.2 1.2 0 01-1.3 1.3zm0 22.51a1.18 1.18 0 01-1.29-1.3v-16.88a1.19 1.19 0 011.29-1.3h1.3a1.28 1.28 0 01.95.35 1.25 1.25 0 01.35.95v16.88a1.2 1.2 0 01-1.3 1.3zM300 214.58a1.05 1.05 0 01.35.86 1.73 1.73 0 01-.39.92 8 8 0 01-2.27 1.68 7.39 7.39 0 01-3.53.82 8.39 8.39 0 01-3.36-.62 7.25 7.25 0 01-2.44-1.69 6.71 6.71 0 01-1.49-2.49 8.81 8.81 0 01-.5-3v-4.76a8.42 8.42 0 01.54-3 7.29 7.29 0 011.56-2.49 7.43 7.43 0 012.44-1.68 8 8 0 013.25-.63 7.67 7.67 0 015.45 2.16 1.26 1.26 0 010 1.82l-.82.82a1.14 1.14 0 01-1.77 0 4.45 4.45 0 00-1.24-.76 4.18 4.18 0 00-1.62-.32 3.47 3.47 0 00-3 1.23 4.71 4.71 0 00-.91 2.88v4.76a6.27 6.27 0 00.2 1.58 3.39 3.39 0 00.64 1.32 3.2 3.2 0 001.2.89 4.57 4.57 0 001.86.32 3.81 3.81 0 001.95-.47 7.24 7.24 0 001.29-.91 1.21 1.21 0 011.82 0zM317.51 218.43a1.18 1.18 0 01-.95-.39 1.26 1.26 0 01-.35-.86.3.3 0 00-.19-.33.34.34 0 00-.37.15 4.24 4.24 0 01-1.8 1.34 7.07 7.07 0 01-2.87.53 6.83 6.83 0 01-2.78-.56 6.25 6.25 0 01-2.2-1.61 7.59 7.59 0 01-1.43-2.49 9.26 9.26 0 01-.52-3.18v-3.85a8.49 8.49 0 01.61-3.21 7.63 7.63 0 011.71-2.62 8.31 8.31 0 015.95-2.4h6.45a1.2 1.2 0 011.3 1.3v16.88a1.18 1.18 0 01-1.3 1.3zm-1.3-15.36a.38.38 0 00-.43-.44h-3.24a4.26 4.26 0 00-3.36 1.34 4.71 4.71 0 00-1.19 3.21v4.28a3.77 3.77 0 001 2.69 3.54 3.54 0 002.71 1 4.48 4.48 0 002-.42 4.14 4.14 0 001.41-1.1 4.91 4.91 0 00.84-1.54 5.39 5.39 0 00.28-1.75zM333.14 218.43a6 6 0 01-4.78-1.77 7.27 7.27 0 01-1.54-4.94v-8.65a.39.39 0 00-.43-.44h-1.3a1.3 1.3 0 01-1-.35 1.27 1.27 0 01-.34-.95v-1.08a1.29 1.29 0 01.34-.95 1.3 1.3 0 011-.35h1.3a.38.38 0 00.43-.43v-3a1.29 1.29 0 01.34-1 1.25 1.25 0 01.95-.35h1.31a1.27 1.27 0 01.95.35 1.29 1.29 0 01.35 1v3a.37.37 0 00.42.43h3.25a1.32 1.32 0 011 .35 1.29 1.29 0 01.34.95v1.08a1.27 1.27 0 01-.34.95 1.32 1.32 0 01-1 .35h-3.25c-.28 0-.42.15-.42.44v8.44a4.21 4.21 0 00.58 2.38 2.5 2.5 0 002.23.86h.86a1.32 1.32 0 011 .35 1.29 1.29 0 01.34 1v1.08a1.3 1.3 0 01-.34 1 1.31 1.31 0 01-1 .34zM341.32 195.92a1.2 1.2 0 01-1.3-1.3v-2.16a1.21 1.21 0 011.3-1.3h1.3a1.25 1.25 0 01.95.35 1.29 1.29 0 01.35 1v2.16a1.32 1.32 0 01-.35 1 1.29 1.29 0 01-.95.34zm0 22.51a1.29 1.29 0 01-.95-.34 1.26 1.26 0 01-.35-1v-16.84a1.25 1.25 0 01.35-.95 1.29 1.29 0 01.95-.35h1.3a1.21 1.21 0 011.3 1.3v16.88a1.3 1.3 0 01-.35 1 1.29 1.29 0 01-.95.34zM358.85 218.87a9.74 9.74 0 01-4-.81 10.32 10.32 0 01-5.41-5.41 10.2 10.2 0 010-7.92 10.32 10.32 0 015.41-5.41 10.23 10.23 0 017.93 0 10.25 10.25 0 015.4 5.41 10.2 10.2 0 010 7.92 10.28 10.28 0 01-2.18 3.23 10.47 10.47 0 01-3.22 2.18 9.79 9.79 0 01-4 .81m0-3.68a6 6 0 002.49-.52 6.42 6.42 0 002-1.39 6 6 0 001.32-2.06 6.91 6.91 0 000-5.06 6.07 6.07 0 00-1.32-2.06 6.39 6.39 0 00-2-1.38 6.22 6.22 0 00-5 0 6.63 6.63 0 00-2 1.38 6.38 6.38 0 00-1.32 2.06 7 7 0 000 5.06 6.28 6.28 0 001.32 2.06 6.66 6.66 0 002 1.39 6.07 6.07 0 002.49.52M386.77 218.43a1.29 1.29 0 01-.95-.34 1.3 1.3 0 01-.35-1v-10.78a4.44 4.44 0 00-1-2.88 4.52 4.52 0 00-6.2 0 4.44 4.44 0 00-1 2.88v10.82a1.2 1.2 0 01-1.3 1.3h-1.3a1.18 1.18 0 01-1.29-1.3v-10.82a7.6 7.6 0 014.71-7.16 8.91 8.91 0 016.58 0 7.79 7.79 0 012.51 1.68 7.63 7.63 0 011.63 2.49 8 8 0 01.58 3v10.82a1.3 1.3 0 01-.34 1 1.32 1.32 0 01-.95.34zM394.74 214.1c.49-.57 1.08-.56 1.77.05a6 6 0 001.15.71 3.66 3.66 0 001.62.33 3.47 3.47 0 002-.52 1.6 1.6 0 00.78-1.39 1.87 1.87 0 00-.67-1.43 12 12 0 00-2.49-1.51 18.82 18.82 0 01-2.08-1.17 8 8 0 01-1.53-1.32 5.42 5.42 0 01-1-1.58 5.52 5.52 0 01-.34-2 5.6 5.6 0 01.43-2.2 5.28 5.28 0 011.23-1.82 6 6 0 011.95-1.24 7 7 0 012.58-.45 6.86 6.86 0 013.07.65 6.67 6.67 0 011.95 1.3 1.63 1.63 0 01.37.93 1.14 1.14 0 01-.37.88l-.78.83a1.8 1.8 0 01-.8.5.89.89 0 01-.85-.33 3.71 3.71 0 00-2.59-1.08 2.6 2.6 0 00-1.84.56 2 2 0 00-.59 1.47 1.82 1.82 0 00.82 1.48 11.26 11.26 0 002.08 1.16 17.18 17.18 0 012.19 1.13 8.38 8.38 0 011.66 1.32 5.14 5.14 0 011.08 1.6 4.92 4.92 0 01.4 2.06 5.45 5.45 0 01-.57 2.53 5.55 5.55 0 01-1.49 1.86 6.46 6.46 0 01-2.12 1.13 8.28 8.28 0 01-2.4.37 8.8 8.8 0 01-3.29-.54 5.56 5.56 0 01-2.08-1.46 1.4 1.4 0 01-.37-.91 1.21 1.21 0 01.37-.91zM161.49 28.92h-6.65a6.12 6.12 0 00-6.62 6.62v11.05a6.11 6.11 0 006.62 6.63h6.65a6.11 6.11 0 006.62-6.63V35.54a6.12 6.12 0 00-6.62-6.62M161.49 68.69h-6.65a6.12 6.12 0 00-6.62 6.62v86.44a6.11 6.11 0 006.62 6.62h6.65a6.65 6.65 0 004.85-1.76 6.57 6.57 0 001.77-4.86V75.31a6.12 6.12 0 00-6.62-6.62M263 83.23a50.65 50.65 0 00-15.81-10.72 49.88 49.88 0 00-38.86 0A50.73 50.73 0 00181.78 99a50.11 50.11 0 000 38.86 50.79 50.79 0 0026.55 26.54 50 50 0 0038.86 0 50.82 50.82 0 0026.54-26.54 50.11 50.11 0 000-38.86A50.92 50.92 0 00263 83.23m-6.79 47.66a30.1 30.1 0 01-6.49 10.11 30.92 30.92 0 01-9.75 6.8 30.51 30.51 0 01-24.42 0 31.35 31.35 0 01-9.77-6.8 30.21 30.21 0 01-6.47-10.07 34.1 34.1 0 010-24.83 30.59 30.59 0 016.47-10.1 32 32 0 019.77-6.78 30.51 30.51 0 0124.42 0 31.53 31.53 0 019.75 6.78 30.48 30.48 0 016.49 10.11 34.1 34.1 0 010 24.83M317.25 149.59H315a7.47 7.47 0 01-5.73-2.1 7.82 7.82 0 01-2-5.64V25.12a6.57 6.57 0 00-1.76-4.87 6.57 6.57 0 00-4.87-1.76H294a6.11 6.11 0 00-6.62 6.63v114.52q0 13.28 6.29 21t20.44 7.73h3.1a6.11 6.11 0 006.62-6.62v-5.53a6.11 6.11 0 00-6.62-6.63M404.23 70.4a6.46 6.46 0 00-4.78-1.73H367.1a41.67 41.67 0 00-29.87 12 38.9 38.9 0 00-8.58 13.11 43.08 43.08 0 00-3 16v19.29a46.8 46.8 0 002.6 15.94 38.27 38.27 0 007.17 12.47 31.45 31.45 0 0010.85 8 33.76 33.76 0 0013.9 2.83 36.14 36.14 0 0014.44-2.62 21.72 21.72 0 009-6.71 1.63 1.63 0 011.84-.76c1 .3 1 2.92 1 3.77a6.37 6.37 0 001.74 4.35 6 6 0 004.77 1.95h6.52a6 6 0 006.52-6.51V75.17a6.5 6.5 0 00-1.74-4.77m-17.81 55.49a27.09 27.09 0 01-1.42 8.8 24.2 24.2 0 01-4.22 7.69 20.71 20.71 0 01-7 5.53 22.81 22.81 0 01-10.1 2.05c-5.81 0-10.31-1.73-13.57-5.2s-4.9-7.95-4.9-13.43v-21.47a23.39 23.39 0 016-16q6-6.72 16.82-6.71h16.3a1.91 1.91 0 012.16 2.16zM134.07 68.64h-9.18c-4 0-6.48 1.82-7.52 5.33l-24.86 66.22c-.45 1.6-1.18 2.41-2.19 2.41s-1.78-.81-2.21-2.41L48.36 38.34h27.82A7.86 7.86 0 0082 36.23a7.79 7.79 0 002.11-5.8v-3.95a7.77 7.77 0 00-2.11-5.8 7.86 7.86 0 00-5.79-2.1H25.72c-4.25 0-6.15 2.13-4.59 6.08l54.92 137.75q1.1 3.51 3 4.73a9.09 9.09 0 004.95 1.21h12.43a9.11 9.11 0 004.95-1.21c1.23-.81 2.22-2.4 3-4.74l34.25-87.63c1.18-4.1-.27-6.12-4.52-6.12M517.23 218.27h-82.77a12.1 12.1 0 01-12.1-12.1v-30a12.1 12.1 0 0112.1-12.1h82.77a12.1 12.1 0 0112.1 12.1v30a12.1 12.1 0 01-12.1 12.1" transform="translate(-20.59 -18.49)"/><path class="cls-4" d="M450.23 199.21v-16h5.25a6.91 6.91 0 014.15 1.09 3.81 3.81 0 011.5 3.28 3.23 3.23 0 01-.6 1.91 3.74 3.74 0 01-1.67 1.28 3.63 3.63 0 012.38 1.34 4 4 0 01.83 2.53 4.1 4.1 0 01-1.48 3.43 6.38 6.38 0 01-4.07 1.18zm2.67-9.29h2.87a3 3 0 002-.59 2 2 0 00.73-1.67 2.09 2.09 0 00-.77-1.77 3.62 3.62 0 00-2.21-.57h-2.62zm0 2v5.16h3.62a3.17 3.17 0 002.13-.64 2.26 2.26 0 00.75-1.83 2.54 2.54 0 00-.74-1.93 3 3 0 00-2.07-.76h-3.69z" transform="translate(-20.59 -18.49)"/><path class="cls-4" d="M452.96 173.5h-6.28v5.08h7.4v2.14H444v-16.04h10v2.15h-7.32v4.53h6.28v2.14zM467.69 166.83h-4.95v13.89h-2.68v-13.89h-4.88v-2.15h12.51v2.15z"/><path class="cls-4" d="M497.47 195.46h-5.68l-1.24 3.75h-2.76l5.59-16h2.55l5.53 16h-2.77zm-4.94-2.24h4.21l-2.06-6.32h-.06z" transform="translate(-20.59 -18.49)"/></g></svg>