<svg id="Viola_Communications" data-name="Viola Communications" xmlns="http://www.w3.org/2000/svg" width="90.184" height="46.891" viewBox="0 0 90.184 46.891">
  <path id="Path_134" data-name="Path 134" d="M249.52,293.475a.282.282,0,0,1,.092.222.315.315,0,0,1-.092.2,3.211,3.211,0,0,1-.76.558,2.671,2.671,0,0,1-2.046.055,2.164,2.164,0,0,1-.735-.5,2.29,2.29,0,0,1-.485-.77,2.639,2.639,0,0,1-.177-.988v-2.228a2.615,2.615,0,0,1,.177-.978,2.28,2.28,0,0,1,.485-.77,2.239,2.239,0,0,1,.735-.5,2.323,2.323,0,0,1,.922-.182,2.592,2.592,0,0,1,.608.066,2.711,2.711,0,0,1,.495.167,2.075,2.075,0,0,1,.391.228,2.705,2.705,0,0,1,.279.238.267.267,0,0,1,0,.426l-.233.233a.246.246,0,0,1-.4,0,2.571,2.571,0,0,0-.4-.284,1.416,1.416,0,0,0-.734-.162,1.344,1.344,0,0,0-.573.116,1.24,1.24,0,0,0-.424.324,1.419,1.419,0,0,0-.27.487,1.917,1.917,0,0,0-.09.593v2.228a1.624,1.624,0,0,0,.36,1.1,1.237,1.237,0,0,0,1,.421,1.559,1.559,0,0,0,.754-.168,2.612,2.612,0,0,0,.5-.338.349.349,0,0,1,.207-.092.27.27,0,0,1,.219.092Z" transform="translate(-220.648 -247.8)" fill="#fff"/>
  <path id="Path_135" data-name="Path 135" d="M252.761,293.829a1.415,1.415,0,0,0,.583-.121,1.5,1.5,0,0,0,.465-.324,1.463,1.463,0,0,0,.31-.482,1.637,1.637,0,0,0,0-1.185,1.459,1.459,0,0,0-.31-.481,1.483,1.483,0,0,0-.465-.324,1.449,1.449,0,0,0-1.164,0,1.515,1.515,0,0,0-.467.324,1.454,1.454,0,0,0-.308.481,1.61,1.61,0,0,0,0,1.185,1.459,1.459,0,0,0,.308.482,1.532,1.532,0,0,0,.467.324,1.4,1.4,0,0,0,.581.121m0,.861a2.294,2.294,0,0,1-.926-.187,2.406,2.406,0,0,1-1.267-1.266,2.394,2.394,0,0,1,0-1.855,2.415,2.415,0,0,1,1.267-1.266,2.4,2.4,0,0,1,1.853,0,2.418,2.418,0,0,1,1.266,1.266,2.382,2.382,0,0,1,0,1.855,2.409,2.409,0,0,1-1.266,1.266,2.292,2.292,0,0,1-.927.187" transform="translate(-220.648 -247.8)" fill="#fff"/>
  <path id="Path_136" data-name="Path 136" d="M261.625,294.59a.282.282,0,0,1-.3-.3v-2.634a.952.952,0,0,0-.051-.314.812.812,0,0,0-.151-.273.73.73,0,0,0-.258-.2.976.976,0,0,0-.76,0,.721.721,0,0,0-.258.2.754.754,0,0,0-.147.273,1.065,1.065,0,0,0-.046.314v2.634a.282.282,0,0,1-.3.3h-.3a.282.282,0,0,1-.3-.3v-2.634a.979.979,0,0,0-.051-.314.831.831,0,0,0-.151-.273.73.73,0,0,0-.258-.2.824.824,0,0,0-.37-.077.855.855,0,0,0-.375.077.727.727,0,0,0-.264.2.83.83,0,0,0-.151.273.979.979,0,0,0-.051.314v2.634a.3.3,0,0,1-.081.223.305.305,0,0,1-.224.082h-.3a.282.282,0,0,1-.3-.3v-2.634a1.838,1.838,0,0,1,.126-.683,1.612,1.612,0,0,1,.355-.547,1.661,1.661,0,0,1,.552-.36,1.892,1.892,0,0,1,.72-.131,1.565,1.565,0,0,1,.683.141,2.3,2.3,0,0,1,.5.314.125.125,0,0,0,.192,0,1.618,1.618,0,0,1,.492-.324,1.729,1.729,0,0,1,.7-.131,1.9,1.9,0,0,1,.72.131,1.665,1.665,0,0,1,.553.36,1.6,1.6,0,0,1,.354.547,1.839,1.839,0,0,1,.127.683v2.634a.282.282,0,0,1-.3.3Z" transform="translate(-220.648 -247.8)" fill="#fff"/>
  <path id="Path_137" data-name="Path 137" d="M268.919,294.59a.283.283,0,0,1-.3-.3v-2.634a1.007,1.007,0,0,0-.05-.314.835.835,0,0,0-.153-.273.73.73,0,0,0-.258-.2.976.976,0,0,0-.76,0,.73.73,0,0,0-.258.2.754.754,0,0,0-.147.273,1.1,1.1,0,0,0-.046.314v2.634a.28.28,0,0,1-.3.3h-.3a.279.279,0,0,1-.3-.3v-2.634a1.007,1.007,0,0,0-.051-.314.835.835,0,0,0-.153-.273.73.73,0,0,0-.258-.2.821.821,0,0,0-.37-.077.861.861,0,0,0-.375.077.735.735,0,0,0-.264.2.83.83,0,0,0-.151.273.978.978,0,0,0-.05.314v2.634a.3.3,0,0,1-.082.223.3.3,0,0,1-.222.082h-.3a.28.28,0,0,1-.3-.3v-2.634a1.819,1.819,0,0,1,.127-.683,1.567,1.567,0,0,1,.354-.547,1.646,1.646,0,0,1,.551-.36,1.9,1.9,0,0,1,.72-.131,1.577,1.577,0,0,1,.685.141,2.362,2.362,0,0,1,.5.314.126.126,0,0,0,.193,0,1.577,1.577,0,0,1,.491-.324,1.724,1.724,0,0,1,.7-.131,1.893,1.893,0,0,1,.719.131,1.67,1.67,0,0,1,.552.36,1.566,1.566,0,0,1,.354.547,1.839,1.839,0,0,1,.127.683v2.634a.3.3,0,0,1-.081.223.3.3,0,0,1-.223.082Z" transform="translate(-220.648 -247.8)" fill="#fff"/>
  <path id="Path_138" data-name="Path 138" d="M273.528,290.334a.279.279,0,0,1,.3-.3h.3a.279.279,0,0,1,.3.3v2.533a1.9,1.9,0,0,1-.131.7,1.8,1.8,0,0,1-.37.583,1.731,1.731,0,0,1-.578.395,2.064,2.064,0,0,1-1.53,0,1.816,1.816,0,0,1-.583-.395,1.724,1.724,0,0,1-.373-.583,1.878,1.878,0,0,1-.132-.7v-2.533a.279.279,0,0,1,.3-.3h.3a.3.3,0,0,1,.223.08.308.308,0,0,1,.081.223v2.533a1.058,1.058,0,0,0,.228.673.853.853,0,0,0,.714.289.836.836,0,0,0,.709-.289,1.065,1.065,0,0,0,.223-.673Z" transform="translate(-220.648 -247.8)" fill="#fff"/>
  <path id="Path_139" data-name="Path 139" d="M278.8,294.59a.3.3,0,0,1-.223-.082.3.3,0,0,1-.081-.223v-2.532a1.039,1.039,0,0,0-.237-.675,1.057,1.057,0,0,0-1.45,0,1.035,1.035,0,0,0-.238.675v2.532a.282.282,0,0,1-.3.3h-.3a.3.3,0,0,1-.223-.082.3.3,0,0,1-.082-.223v-2.532a1.861,1.861,0,0,1,.137-.7,1.765,1.765,0,0,1,.968-.976,2.09,2.09,0,0,1,1.54,0,1.778,1.778,0,0,1,.586.394,1.807,1.807,0,0,1,.381.582,1.841,1.841,0,0,1,.136.7v2.532a.3.3,0,0,1-.079.223.309.309,0,0,1-.225.082Z" transform="translate(-220.648 -247.8)" fill="#fff"/>
  <path id="Path_140" data-name="Path 140" d="M281.024,294.589a.28.28,0,0,1-.3-.3v-3.951a.279.279,0,0,1,.3-.3h.3a.3.3,0,0,1,.223.08.3.3,0,0,1,.081.223v3.951a.3.3,0,0,1-.081.223.3.3,0,0,1-.223.081Zm0-5.267a.282.282,0,0,1-.3-.3v-.506a.281.281,0,0,1,.3-.3h.3a.282.282,0,0,1,.3.3v.506a.3.3,0,0,1-.081.223.3.3,0,0,1-.223.082Z" transform="translate(-220.648 -247.8)" fill="#fff"/>
  <path id="Path_141" data-name="Path 141" d="M286.038,293.687a.253.253,0,0,1,.083.2.41.41,0,0,1-.092.213,1.806,1.806,0,0,1-.532.395,1.725,1.725,0,0,1-.826.193,1.937,1.937,0,0,1-.784-.148,1.671,1.671,0,0,1-.573-.395,1.616,1.616,0,0,1-.35-.582,2.1,2.1,0,0,1-.116-.7v-1.114a1.968,1.968,0,0,1,.126-.7,1.721,1.721,0,0,1,.366-.582,1.773,1.773,0,0,1,.571-.4,1.891,1.891,0,0,1,.76-.147,1.783,1.783,0,0,1,1.277.507.3.3,0,0,1,0,.425l-.193.192a.268.268,0,0,1-.415-.009,1.019,1.019,0,0,0-.288-.178.974.974,0,0,0-.381-.076.808.808,0,0,0-.7.289,1.1,1.1,0,0,0-.213.674v1.114a1.454,1.454,0,0,0,.046.37.811.811,0,0,0,.151.309.727.727,0,0,0,.279.207,1.074,1.074,0,0,0,.435.076.889.889,0,0,0,.457-.111,1.736,1.736,0,0,0,.3-.213.284.284,0,0,1,.426,0Z" transform="translate(-220.648 -247.8)" fill="#fff"/>
  <path id="Path_142" data-name="Path 142" d="M289.828,290.993a.09.09,0,0,0-.1-.1h-.758a.991.991,0,0,0-.786.315,1.089,1.089,0,0,0-.279.749v1a.876.876,0,0,0,.228.628.822.822,0,0,0,.633.243,1.067,1.067,0,0,0,.471-.1.964.964,0,0,0,.329-.258,1.132,1.132,0,0,0,.2-.36,1.289,1.289,0,0,0,.066-.41Zm.3,3.6a.28.28,0,0,1-.222-.092.3.3,0,0,1-.081-.2.071.071,0,0,0-.045-.076.077.077,0,0,0-.087.036.994.994,0,0,1-.421.313,1.655,1.655,0,0,1-.673.122,1.56,1.56,0,0,1-.648-.131,1.458,1.458,0,0,1-.507-.375,1.8,1.8,0,0,1-.334-.583,2.193,2.193,0,0,1-.123-.745v-.9a2.008,2.008,0,0,1,.143-.749,1.813,1.813,0,0,1,.4-.614,1.936,1.936,0,0,1,1.393-.561h1.509a.308.308,0,0,1,.224.08.3.3,0,0,1,.08.223v3.951a.3.3,0,0,1-.08.223.305.305,0,0,1-.224.082Z" transform="translate(-220.648 -247.8)" fill="#fff"/>
  <path id="Path_143" data-name="Path 143" d="M293.788,294.59a1.405,1.405,0,0,1-1.119-.416,1.707,1.707,0,0,1-.36-1.155v-2.026a.09.09,0,0,0-.1-.1H291.9a.3.3,0,0,1-.223-.081.3.3,0,0,1-.081-.223v-.253a.3.3,0,0,1,.081-.223.3.3,0,0,1,.223-.08h.305a.089.089,0,0,0,.1-.1v-.71a.3.3,0,0,1,.082-.223.3.3,0,0,1,.222-.081h.3a.282.282,0,0,1,.3.3v.71a.088.088,0,0,0,.1.1h.76a.276.276,0,0,1,.3.3v.253a.278.278,0,0,1-.3.3h-.76a.089.089,0,0,0-.1.1v1.975a.983.983,0,0,0,.136.557.586.586,0,0,0,.522.2h.2a.278.278,0,0,1,.3.3v.253a.279.279,0,0,1-.3.3Z" transform="translate(-220.648 -247.8)" fill="#fff"/>
  <path id="Path_144" data-name="Path 144" d="M295.7,294.589a.283.283,0,0,1-.3-.3v-3.951a.3.3,0,0,1,.083-.223.3.3,0,0,1,.222-.08h.3a.279.279,0,0,1,.3.3v3.951a.28.28,0,0,1-.3.3Zm0-5.267a.3.3,0,0,1-.222-.082.294.294,0,0,1-.083-.223v-.506a.284.284,0,0,1,.3-.3h.3a.281.281,0,0,1,.3.3v.506a.282.282,0,0,1-.3.3Z" transform="translate(-220.648 -247.8)" fill="#fff"/>
  <path id="Path_145" data-name="Path 145" d="M299.806,293.829a1.407,1.407,0,0,0,.582-.121,1.54,1.54,0,0,0,.466-.324,1.464,1.464,0,0,0,.31-.482,1.637,1.637,0,0,0,0-1.185,1.459,1.459,0,0,0-.31-.481,1.523,1.523,0,0,0-.466-.324,1.452,1.452,0,0,0-1.165,0,1.531,1.531,0,0,0-.465.324,1.459,1.459,0,0,0-.31.481,1.637,1.637,0,0,0,0,1.185,1.464,1.464,0,0,0,.31.482,1.548,1.548,0,0,0,.465.324,1.412,1.412,0,0,0,.583.121m0,.861a2.292,2.292,0,0,1-.927-.187,2.408,2.408,0,0,1-1.266-1.266,2.382,2.382,0,0,1,0-1.855,2.418,2.418,0,0,1,1.266-1.266,2.4,2.4,0,0,1,1.854,0A2.418,2.418,0,0,1,302,291.382a2.394,2.394,0,0,1,0,1.855,2.408,2.408,0,0,1-1.266,1.266,2.3,2.3,0,0,1-.927.187" transform="translate(-220.648 -247.8)" fill="#fff"/>
  <path id="Path_146" data-name="Path 146" d="M306.339,294.59a.282.282,0,0,1-.3-.3v-2.532a1.035,1.035,0,0,0-.238-.675,1.055,1.055,0,0,0-1.449,0,1.029,1.029,0,0,0-.238.675v2.532a.294.294,0,0,1-.082.223.3.3,0,0,1-.222.082h-.3a.282.282,0,0,1-.3-.3v-2.532a1.841,1.841,0,0,1,.136-.7,1.821,1.821,0,0,1,.38-.582,1.793,1.793,0,0,1,.587-.394,2.09,2.09,0,0,1,1.54,0,1.759,1.759,0,0,1,.967.976,1.843,1.843,0,0,1,.138.7v2.532a.282.282,0,0,1-.3.3Z" transform="translate(-220.648 -247.8)" fill="#fff"/>
  <path id="Path_147" data-name="Path 147" d="M308.2,293.576c.114-.135.253-.132.415.011a1.383,1.383,0,0,0,.268.166.864.864,0,0,0,.38.076.813.813,0,0,0,.456-.121.375.375,0,0,0,.182-.324.437.437,0,0,0-.157-.335,2.877,2.877,0,0,0-.582-.355,3.976,3.976,0,0,1-.487-.272,1.833,1.833,0,0,1-.358-.31,1.221,1.221,0,0,1-.228-.369,1.265,1.265,0,0,1-.081-.477,1.327,1.327,0,0,1,.1-.517,1.286,1.286,0,0,1,.288-.424,1.391,1.391,0,0,1,.456-.29,1.649,1.649,0,0,1,.6-.106,1.616,1.616,0,0,1,.718.152,1.541,1.541,0,0,1,.456.3.375.375,0,0,1,.087.218.266.266,0,0,1-.087.207l-.181.192a.413.413,0,0,1-.188.117.206.206,0,0,1-.2-.075.872.872,0,0,0-.607-.254.6.6,0,0,0-.43.132.453.453,0,0,0-.138.344.419.419,0,0,0,.193.345,2.558,2.558,0,0,0,.486.273,3.746,3.746,0,0,1,.511.264,1.975,1.975,0,0,1,.39.309,1.23,1.23,0,0,1,.253.374,1.175,1.175,0,0,1,.092.482,1.284,1.284,0,0,1-.132.592,1.333,1.333,0,0,1-.349.436,1.455,1.455,0,0,1-.5.263,1.871,1.871,0,0,1-.562.086,2.029,2.029,0,0,1-.77-.126,1.3,1.3,0,0,1-.486-.339.332.332,0,0,1-.086-.214.278.278,0,0,1,.086-.212Z" transform="translate(-220.648 -247.8)" fill="#fff"/>
  <path id="Path_148" data-name="Path 148" d="M253.62,250.241h-1.554a1.43,1.43,0,0,0-1.55,1.549v2.587a1.429,1.429,0,0,0,1.55,1.551h1.554a1.433,1.433,0,0,0,1.551-1.551V251.79a1.434,1.434,0,0,0-1.551-1.549" transform="translate(-220.648 -247.8)" fill="#fff"/>
  <path id="Path_149" data-name="Path 149" d="M253.62,259.548h-1.554a1.429,1.429,0,0,0-1.55,1.549v20.227a1.429,1.429,0,0,0,1.55,1.55h1.554a1.433,1.433,0,0,0,1.551-1.55V261.1a1.433,1.433,0,0,0-1.551-1.549" transform="translate(-220.648 -247.8)" fill="#fff"/>
  <path id="Path_150" data-name="Path 150" d="M275.787,274.1a7.1,7.1,0,0,1-1.518,2.358,7.273,7.273,0,0,1-2.283,1.59,7.113,7.113,0,0,1-5.714,0,7.314,7.314,0,0,1-2.287-1.59,7.056,7.056,0,0,1-1.514-2.358,7.987,7.987,0,0,1,0-5.81,7.123,7.123,0,0,1,1.514-2.364,7.477,7.477,0,0,1,2.287-1.588,7.135,7.135,0,0,1,5.714,0,7.435,7.435,0,0,1,2.283,1.588,7.164,7.164,0,0,1,1.518,2.364,7.987,7.987,0,0,1,0,5.81m1.589-11.151a11.886,11.886,0,0,0-3.7-2.51,11.68,11.68,0,0,0-9.092,0,11.873,11.873,0,0,0-6.213,6.209,11.722,11.722,0,0,0,0,9.1,11.873,11.873,0,0,0,6.213,6.209,11.692,11.692,0,0,0,9.092,0,11.872,11.872,0,0,0,6.21-6.209,11.7,11.7,0,0,0,0-9.1,11.881,11.881,0,0,0-2.509-3.7" transform="translate(-220.648 -247.8)" fill="#fff"/>
  <path id="Path_151" data-name="Path 151" d="M290.07,278.478h-.519a1.746,1.746,0,0,1-1.342-.491,1.826,1.826,0,0,1-.468-1.319V249.352a1.43,1.43,0,0,0-1.552-1.552h-1.55a1.428,1.428,0,0,0-1.549,1.552v26.8a7.566,7.566,0,0,0,1.471,4.915q1.475,1.807,4.783,1.809h.726a1.429,1.429,0,0,0,1.549-1.55v-1.293a1.431,1.431,0,0,0-1.549-1.553" transform="translate(-220.648 -247.8)" fill="#fff"/>
  <path id="Path_152" data-name="Path 152" d="M306.257,272.934a6.388,6.388,0,0,1-.332,2.058,5.712,5.712,0,0,1-.987,1.8,4.891,4.891,0,0,1-1.652,1.294,5.348,5.348,0,0,1-2.363.479,4.137,4.137,0,0,1-3.176-1.217A4.419,4.419,0,0,1,296.6,274.2v-5.023a5.479,5.479,0,0,1,1.4-3.756,4.988,4.988,0,0,1,3.937-1.571h3.814a.446.446,0,0,1,.506.506Zm4.167-12.985a1.508,1.508,0,0,0-1.118-.407h-7.57a9.848,9.848,0,0,0-3.913.761,9.729,9.729,0,0,0-3.076,2.054,9.082,9.082,0,0,0-2.008,3.069,10.071,10.071,0,0,0-.707,3.756V273.7a11,11,0,0,0,.607,3.73,8.969,8.969,0,0,0,1.679,2.918,7.336,7.336,0,0,0,2.539,1.877,7.9,7.9,0,0,0,3.253.661,8.433,8.433,0,0,0,3.378-.612A5.061,5.061,0,0,0,305.6,280.7a.383.383,0,0,1,.432-.177c.225.069.229.682.229.883a1.489,1.489,0,0,0,.406,1.017,1.42,1.42,0,0,0,1.118.456h1.525a1.408,1.408,0,0,0,1.526-1.522V261.064a1.508,1.508,0,0,0-.408-1.115" transform="translate(-220.648 -247.8)" fill="#fff"/>
  <path id="Path_153" data-name="Path 153" d="M247.2,259.535h-2.146a1.654,1.654,0,0,0-1.76,1.249l-5.819,15.5c-.1.373-.276.562-.513.562s-.415-.189-.516-.562l-9.3-23.834h6.509a1.709,1.709,0,0,0,1.849-1.853v-.923a1.706,1.706,0,0,0-1.849-1.85H221.85c-1,0-1.44.5-1.076,1.424l12.854,32.234a1.963,1.963,0,0,0,.691,1.106,2.115,2.115,0,0,0,1.158.285l2.919,0a2.115,2.115,0,0,0,1.158-.285,1.994,1.994,0,0,0,.694-1.107l8.015-20.507c.276-.959-.065-1.433-1.06-1.433" transform="translate(-220.648 -247.8)" fill="#fff"/>
</svg>
