<svg xmlns="http://www.w3.org/2000/svg" width="169.205" height="34.967"><g fill="#fff"><path data-name="Path 2510" d="M19.874 26.823a1.208 1.208 0 01-.887.277 2.274 2.274 0 01-.927-.277L6.58 20.112a.424.424 0 00-.494 0 .823.823 0 00-.3.4l-1.617 5.363a1.247 1.247 0 01-1.341.945H.894c-.763 0-1.04-.371-.827-1.105L7.959 1.059a1.5 1.5 0 01.53-.852 1.625 1.625 0 01.891-.215h2.761a1.622 1.622 0 01.887.215 1.53 1.53 0 01.534.852l7.534 23.594a1.239 1.239 0 01-.317 1.418zm-8.719-21.82c-.08-.289-.213-.43-.393-.43s-.317.141-.4.43L7.247 15.425a1.106 1.106 0 00-.04.762.9.9 0 00.393.414l7.418 4.348c.289.184.5.2.634.051a.481.481 0 00.116-.484z"/><path data-name="Path 2511" d="M31.081 26.823a7.344 7.344 0 01-2.822-.516 6.578 6.578 0 01-2.191-1.395 6.126 6.126 0 01-1.4-2.133 7.148 7.148 0 01-.493-2.668v-4.332a6.962 6.962 0 01.514-2.672 6.321 6.321 0 013.533-3.527 7.048 7.048 0 012.7-.512h3.909a.352.352 0 00.393-.4V1.176a1.086 1.086 0 011.184-1.18h1.184a1.084 1.084 0 011.18 1.18v24.469a1.2 1.2 0 01-.313.867 1.175 1.175 0 01-.867.313zm4.142-14.008a.351.351 0 00-.393-.395h-3.749a3.192 3.192 0 00-3.355 3.359v4.332a3.186 3.186 0 00.988 2.434 3.331 3.331 0 002.367.922h3.749a.348.348 0 00.393-.395z"/><path data-name="Path 2512" d="M48.84 26.832a1.75 1.75 0 01-.887-.207 1.409 1.409 0 01-.534-.871l-5.407-15.582a.779.779 0 01.041-.8.958.958 0 01.79-.3H44.3a1.256 1.256 0 011.345.945l3.745 11.715c.08.289.212.441.4.441s.313-.152.393-.441l3.75-11.715a1.25 1.25 0 011.341-.945h1.46a.957.957 0 01.787.3.767.767 0 01.04.8l-5.406 15.582a1.407 1.407 0 01-.531.871 1.769 1.769 0 01-.887.207z"/><path data-name="Path 2513" d="M73.614 22.965a1.046 1.046 0 01.337.789 1.423 1.423 0 01-.337.832 7.486 7.486 0 01-2.329 1.813 7.64 7.64 0 01-3.668.828 7.837 7.837 0 01-2.979-.535 6.58 6.58 0 01-3.729-3.691 7.05 7.05 0 01-.514-2.68v-4.656a8 8 0 01.457-2.7 6.2 6.2 0 011.341-2.227 6.29 6.29 0 012.167-1.5 7.324 7.324 0 012.942-.555 7.459 7.459 0 012.959.555 6.688 6.688 0 012.227 1.5 6.4 6.4 0 011.421 2.227 7.438 7.438 0 01.494 2.7v2.371a1.139 1.139 0 01-.317.863 1.166 1.166 0 01-.867.316h-8.878a.349.349 0 00-.394.395v.711a3.732 3.732 0 00.887 2.527 3.478 3.478 0 002.781 1.02 4.323 4.323 0 002.328-.527 6.617 6.617 0 001.265-1 1.165 1.165 0 01.867-.418 1.151 1.151 0 01.79.379zm-2.761-7.3a4.016 4.016 0 00-.828-2.559 3.23 3.23 0 00-2.722-1.07 2.954 2.954 0 00-2.6 1.07 4.3 4.3 0 00-.75 2.559v.2a.351.351 0 00.394.395h6.117a.351.351 0 00.394-.395z"/><path data-name="Path 2514" d="M79.928 26.832a1.086 1.086 0 01-1.185-1.187v-10.07a6.668 6.668 0 011.658-4.691 5.94 5.94 0 014.616-1.812h1.42a1.09 1.09 0 011.18 1.184v.988a1.089 1.089 0 01-1.18 1.18h-1.184a2.673 2.673 0 00-2.231.934 3.809 3.809 0 00-.731 2.426v9.863a1.084 1.084 0 01-1.18 1.188z"/><path data-name="Path 2515" d="M97.527 26.834a5.444 5.444 0 01-4.359-1.617 6.648 6.648 0 01-1.4-4.5V12.83a.354.354 0 00-.394-.4H90.19a1.085 1.085 0 01-1.185-1.18v-.988a1.18 1.18 0 01.313-.867 1.167 1.167 0 01.871-.32h1.184a.347.347 0 00.394-.391V5.918a1.084 1.084 0 011.184-1.18h1.184a1.083 1.083 0 011.18 1.18v2.766a.348.348 0 00.4.391h2.958a1.148 1.148 0 01.866.32 1.163 1.163 0 01.317.867v.988a1.09 1.09 0 01-1.184 1.18h-2.958a.355.355 0 00-.4.4v7.691a3.843 3.843 0 00.535 2.168 2.281 2.281 0 002.03.785h.792a1.106 1.106 0 011.184 1.191v.988a1.09 1.09 0 01-1.184 1.18z"/><path data-name="Path 2516" d="M104.983 6.316a1.091 1.091 0 01-1.184-1.191V3.156a1.145 1.145 0 01.317-.863 1.163 1.163 0 01.867-.312h1.185a1.088 1.088 0 011.184 1.176v1.969a1.09 1.09 0 01-1.184 1.191zm0 20.516a1.094 1.094 0 01-1.184-1.176V10.265a1.117 1.117 0 011.184-1.2h1.185a1.131 1.131 0 01.867.332 1.154 1.154 0 01.316.863v15.391a1.093 1.093 0 01-1.184 1.176z"/><path data-name="Path 2517" d="M112.638 22.891c.446-.531.987-.516 1.618.031a5.421 5.421 0 001.047.66 3.449 3.449 0 001.477.285 3.072 3.072 0 001.778-.473 1.436 1.436 0 00.707-1.258 1.714 1.714 0 00-.611-1.3 11.658 11.658 0 00-2.267-1.379 15.6 15.6 0 01-1.895-1.066 7.022 7.022 0 01-1.4-1.211 4.7 4.7 0 01-.887-1.434 4.923 4.923 0 01-.317-1.852 5.149 5.149 0 01.4-2.016 4.953 4.953 0 011.124-1.656 5.317 5.317 0 011.775-1.121 6.23 6.23 0 012.348-.418 6.461 6.461 0 012.8.59 6.145 6.145 0 011.774 1.184 1.446 1.446 0 01.337.852 1.064 1.064 0 01-.337.813l-.71.742a1.541 1.541 0 01-.73.461.788.788 0 01-.766-.3 3.452 3.452 0 00-2.369-.984 2.365 2.365 0 00-1.678.512 1.784 1.784 0 00-.53 1.344 1.621 1.621 0 00.748 1.34 10.312 10.312 0 001.894 1.066 14.458 14.458 0 012 1.031 7.847 7.847 0 011.517 1.2 5.023 5.023 0 01.987 1.457 4.671 4.671 0 01.353 1.879 5 5 0 01-.514 2.3 5.162 5.162 0 01-1.361 1.7 5.725 5.725 0 01-1.93 1.02 7.332 7.332 0 01-2.192.34 7.959 7.959 0 01-3-.492 4.943 4.943 0 01-1.894-1.32 1.309 1.309 0 01-.333-.828 1.064 1.064 0 01.333-.832z"/><path data-name="Path 2518" d="M128.262 6.316a1.091 1.091 0 01-1.185-1.191V3.156a1.145 1.145 0 01.317-.863 1.163 1.163 0 01.868-.312h1.183a1.089 1.089 0 011.185 1.176v1.969a1.091 1.091 0 01-1.185 1.191zm0 20.516a1.095 1.095 0 01-1.185-1.176V10.265a1.117 1.117 0 011.185-1.2h1.183a1.131 1.131 0 01.868.332 1.152 1.152 0 01.317.863v15.391a1.094 1.094 0 01-1.185 1.176z"/><path data-name="Path 2519" d="M147.99 26.833a1.09 1.09 0 01-1.184-1.18v-9.867a4.005 4.005 0 00-.927-2.629 4.112 4.112 0 00-5.644 0 4.006 4.006 0 00-.928 2.629v9.867a1.084 1.084 0 01-1.18 1.18h-1.185a1.084 1.084 0 01-1.184-1.18v-9.867a7.168 7.168 0 01.53-2.723 6.866 6.866 0 013.769-3.812 8.167 8.167 0 016 0 7.073 7.073 0 012.289 1.539 6.9 6.9 0 011.481 2.273 7.107 7.107 0 01.533 2.723v9.867a1.089 1.089 0 01-1.184 1.18z"/><path data-name="Path 2520" d="M163.769 33.571c-.445-.57-.341-1.113.317-1.609a3.319 3.319 0 00.867-.895 2.554 2.554 0 00.357-1.437 2.476 2.476 0 00-.967-2.031 3.878 3.878 0 00-2.468-.77h-6.785a1.09 1.09 0 01-1.183-1.184v-.977a2.954 2.954 0 01.669-1.777l1.854-2.566a.876.876 0 00.137-.641 1.067 1.067 0 00-.216-.5 6.39 6.39 0 01-.927-1.781 6.274 6.274 0 01-.334-2.008 6.062 6.062 0 01.571-2.605 6.868 6.868 0 011.521-2.129 7.126 7.126 0 012.188-1.437 6.48 6.48 0 012.625-.539c.262 0 .535.012.808.039a3.778 3.778 0 01.967.242 1.17 1.17 0 00.791.027 1.15 1.15 0 00.434-.391l1.265-1.691a1.1 1.1 0 01.767-.492 1.207 1.207 0 01.887.258l.791.543a1.153 1.153 0 01.494.773 1.243 1.243 0 01-.257.9l-1.264 1.684a.77.77 0 00-.077.676 3.029 3.029 0 00.313.668 6.583 6.583 0 01.987 3.477 6.085 6.085 0 01-.569 2.6 6.85 6.85 0 01-1.522 2.109 7.172 7.172 0 01-2.187 1.4 6.793 6.793 0 01-2.625.508 7.011 7.011 0 01-1.027-.07 16.37 16.37 0 01-.828-.16 1.386 1.386 0 00-.59-.023.757.757 0 00-.474.375l-.634.867c-.237.371-.117.555.357.555h3.039a8.27 8.27 0 012.7.438 7.14 7.14 0 012.248 1.215 5.665 5.665 0 011.521 1.922 6.32 6.32 0 01-.3 5.742 7.34 7.34 0 01-1.835 1.891 1.111 1.111 0 01-.867.18 1.385 1.385 0 01-.75-.457zm-1.774-14.832a3.315 3.315 0 001.281-.246 3.434 3.434 0 001.068-.715 3.639 3.639 0 00.73-1.074 3.157 3.157 0 00.277-1.312 3.285 3.285 0 00-.277-1.328 3.653 3.653 0 00-.73-1.066 3.471 3.471 0 00-1.068-.7 3.308 3.308 0 00-2.561 0 3.422 3.422 0 00-1.068.7 3.661 3.661 0 00-.73 1.066 3.221 3.221 0 00-.277 1.328 3.1 3.1 0 00.277 1.313 3.647 3.647 0 00.73 1.074 3.385 3.385 0 001.068.715 3.3 3.3 0 001.279.245z"/></g></svg>