<?xml version="1.0" encoding="UTF-8"?>
<svg id="Layer_1" data-name="Layer 1" xmlns="http://www.w3.org/2000/svg" version="1.1" viewBox="0 0 800 800">
  <defs>
    <style>
      .cls-1 {
        fill: #fff;
        stroke-width: 0px;
      }
    </style>
  </defs>
  <path class="cls-1" d="M482.7,393.4h0s-115.9-54.1-115.9-54.1c-10.1-4.7-18.4.6-18.4,11.8v101.9c0,11.2,8.3,16.5,18.4,11.8l115.8-54.1c10.2-4.7,10.2-12.5,0-17.2Z"/>
  <path class="cls-1" d="M400,16C187.9,16,16,187.9,16,400s171.9,384,384,384,384-171.9,384-384S612.1,16,400,16ZM400,603.2c-253.6,0-258-22.9-258-201.2s4.4-201.2,258-201.2,258,22.9,258,201.2-4.4,201.2-258,201.2Z"/>
</svg>